<svg   viewBox="0 0 1028 1024" version="1.1" xmlns="http://www.w3.org/2000/svg"  ><path d="M217.6 249.6h-128c-6.4 0-12.8 0-19.2 6.4l-64 121.6c-6.4 6.4-6.4 19.2 0 25.6L288 896h140.8l204.8-172.8-416-473.6z m0 0" fill="#615CED" ></path><path d="M134.4 633.6l-64 108.8c-6.4 6.4-6.4 19.2 0 25.6l70.4 121.6c6.4 6.4 12.8 6.4 25.6 6.4h262.4L134.4 633.6z m755.2-243.2l64-108.8c6.4-6.4 6.4-19.2 0-25.6l-70.4-121.6c-6.4-6.4-12.8-6.4-25.6-6.4H288L217.6 243.2 268.8 512l620.8-121.6z m0 0" fill="#615CED" p-id="6695"></path><path d="M595.2 128L531.2 19.2c0-12.8-12.8-12.8-19.2-12.8H371.2c-6.4 0-19.2 6.4-19.2 12.8L288 128 217.6 243.2 595.2 128zM428.8 896l64 108.8c6.4 6.4 12.8 12.8 19.2 12.8h140.8c6.4 0 19.2-6.4 19.2-12.8L960 512l-70.4-121.6-256-89.6L428.8 896z m0 0" fill="#615CED" p-id="6696"></path><path d="M806.4 774.4h128c6.4 0 19.2-6.4 19.2-12.8L1024 640c6.4-6.4 6.4-19.2 0-25.6L960 512l-70.4-121.6-83.2 384z m0 0" fill="#615CED" p-id="6697"></path><path d="M441.6 876.8H166.4l70.4-121.6h140.8L96 275.2h140.8L512 755.2l-70.4 121.6z m0 0" fill="#FFFFFF" ></path><path d="M230.4 275.2L371.2 32l70.4 121.6-70.4 115.2h556.8l-70.4 121.6H300.8L230.4 275.2z m0 0M857.6 390.4l140.8 243.2h-140.8L787.2 512 512 992l-70.4-121.6 275.2-480h140.8z m0 0" fill="#FFFFFF" ></path><path d="M512 755.2l204.8-364.8H300.8L512 755.2z m0 0" fill="#605BEC" p-id="6700"></path><path d="M512 755.2L230.4 275.2l12.8-25.6 281.6 480-12.8 25.6z m0 0" fill="#605BEC" p-id="6701"></path><path d="M300.8 390.4h556.8l12.8 25.6H320l-19.2-25.6z m0 0" fill="#605BEC" ></path><path d="M723.2 390.4L448 870.4h-25.6l275.2-480h25.6z m0 0" fill="#605BEC" ></path></svg>