<svg   viewBox="0 0 1391 1024" version="1.1" xmlns="http://www.w3.org/2000/svg"  ><path d="M1333.74443323 82.22042509c-13.80988113-6.90651166-19.77216769 6.25765149-27.83971486 12.94735271-2.7494075 2.15867766-5.09661597 4.96464441-7.44382443 7.55380074-20.17908001 22.01097094-43.75485659 36.47128333-74.589069 34.74465541-45.04943475-2.58915632-83.51757347 11.86958497-117.50810569 47.04629015-7.2285851-43.37779501-31.23798253-69.2740715-67.78939144-85.89149046-19.15315822-8.63156848-38.46813872-17.26470805-51.87582082-36.04080467-9.33227462-13.37940245-11.86958497-28.2701935-16.56243082-42.94417414-2.96778901-8.8483789-5.93557805-17.91199713-15.91514173-19.42338573-10.87194282-1.72662791-15.10760146 7.55380073-19.36996865 15.3228408-16.99448057 31.72344934-23.6040562 66.68491519-22.93005859 102.07685969 1.45797153 79.63383898 34.42258196 143.08073766 99.86633603 188.18516058 7.44539552 5.17831264 9.36055423 10.35819639 7.01334578 17.91042602-4.45089798 15.53808012-9.79260399 30.6456816-14.45874129 46.18376174-2.9693601 9.92771773-7.418687 12.0848243-17.85858007 7.76904006-35.90569092-15.3228408-66.92843413-37.9826719-94.36280776-65.38876592-46.53254371-45.9685224-88.61576053-96.6833077-141.08388229-136.39103645a620.44857966 620.44857966 0 0 0-37.41550843-26.11308694c-53.54746058-53.0887023 7.01334578-96.68173661 21.0416084-101.86162035 14.6472721-5.39512307 5.09818706-23.95440928-42.29845612-23.73916995s-90.74772965 16.40217963-145.99510964 37.98267191c-8.09111351 3.2364454-16.59071043 5.6103624-25.27569597 7.55380074-50.17590143-9.71247839-102.23868196-11.86958497-156.65024201-5.61193348-102.42721275 11.65434565-184.24643792 61.07455278-244.40190308 145.45465466-72.24186053 101.4295706-89.26462071 216.6721645-68.4115431 336.87626062 21.85071977 126.68012914 85.21592177 231.56295556 182.54651857 313.56914048 100.94410379 85.02739095 217.18433986 126.68012914 349.79847589 118.69584973 80.54978445-4.74940507 170.2181753-15.75489055 271.37751842-103.15776961 25.51921492 12.94892381 52.30629946 18.12880755 96.71001624 22.01254203 34.23248007 3.2364454 67.17038198-1.72662791 92.66288839-7.12175096 39.95124769-8.63156848 37.17198947-46.39900106 22.7399567-53.30394163-117.10276448-55.67942971-91.39501876-33.01959858-114.755556-51.36207439 59.50817604-71.86479892 149.17656689-146.53556459 184.24643795-388.45514546 2.77768711-19.20657529 0.43047867-31.29139958 0-46.82947971-0.21681042-9.49566798 1.88687908-13.16573423 12.54358259-14.24350198 29.32282382-3.45325582 57.80982774-11.65434565 83.9496232-26.32832626 75.85536753-42.29845616 106.47276951-111.78933809 113.70292571-195.09167222 1.07933883-12.73211339-0.21523932-25.89627652-13.40768208-32.58597776M672.59048267 831.93671913c-113.46097785-91.07137422-168.51982701-121.06819563-191.25978372-119.77361748-21.25684774 1.29457817-17.42653031 26.11308695-12.76039301 42.29845614 4.88294773 15.97012989 11.27571295 26.97561536 20.20421747 41.00387801 6.15238845 9.28042865 10.41475564 23.09188086-6.17595481 33.45007725-36.55298001 23.09188086-100.08157538-7.76904006-103.04779332-9.27885757-73.96848843-44.45713381-135.82544403-103.1577696-179.39176984-183.43732658-42.08164574-77.25992199-66.4948133-160.1302064-70.54194114-248.61085317-1.07933883-21.36525295 5.09818706-28.91905367 25.89784762-32.80435928a250.87636497 250.87636497 0 0 1 83.11223228-2.15710656c115.83646593 17.26627914 214.46006978 70.138171 297.11354374 153.8725549 47.18140388 47.69200813 82.87028441 104.66601601 119.66521225 160.34544572 39.08871926 59.12954337 81.17193611 115.45626214 134.71939669 161.63845278 18.90963927 16.18536923 33.98896113 28.48700395 48.44770242 37.55062216-43.56632578 4.96464441-116.26537349 6.04241215-165.98251663-34.09736632m54.40998899-357.16217477c0-9.49566798 7.44696661-17.04946873 16.80594974-17.04946872q3.18302835 0.05498814 5.71876762 1.07933883a16.91435498 16.91435498 0 0 1 10.84523431 15.97012989 16.83265829 16.83265829 0 0 1-16.77924123 17.04946872 16.6441275 16.6441275 0 0 1-16.59071044-17.04946872m168.95187674 88.48064679c-10.81852576 4.53259466-21.66218896 8.41790022-32.10208201 8.8483789-16.13195215 0.8640995-33.7737218-5.82560173-43.32280686-14.02669155-14.89079105-12.73368447-25.52078602-19.85543545-29.97168398-42.08321683-1.91515871-9.49566798-0.8640995-24.16964861 0.83739098-32.58597774 3.83031742-18.12880755-0.43204976-29.78158209-12.94892381-40.35658891-10.19637413-8.63313957-23.17357754-11.00705657-37.41550843-11.00705657-5.31499747 0-10.19637413-2.37234591-13.81145222-4.31578423a14.16180529 14.16180529 0 0 1-6.15081735-19.85386437c1.48310897-3.02120608 8.71326515-10.35976749 10.41318453-11.65434564 19.34011795-11.2222959 41.64959598-7.55222964 62.25915463 0.8640995 19.1264497 7.9842794 33.55848246 22.65983111 54.4115601 43.37779497 21.25684774 25.03374811 25.08716515 31.94025977 37.17198946 50.71478532 9.57736465 14.67398064 18.29062981 29.78158209 24.22620784 47.04471904 3.64021553 10.79181723-1.0526303 19.63862503-13.59621288 25.03374811" fill="#4D6BFE" ></path></svg>