<svg   viewBox="0 0 1024 1024" version="1.1" xmlns="http://www.w3.org/2000/svg"  ><path d="M128 213.333333c-23.381333 0-42.666667 19.285333-42.666667 42.666667v494.933333c0 23.381333 19.285333 42.666667 42.666667 42.666667h768c26.282667 0 42.666667-17.834667 42.666667-38.4V256c0-23.381333-19.285333-42.666667-42.666667-42.666667H128zM0 256c0-70.485333 57.514667-128 128-128h768c70.485333 0 128 57.514667 128 128v499.2c0 73.301333-60.416 123.733333-128 123.733333H128c-70.485333 0-128-57.514667-128-128V256z" fill="#515151" p-id="5027"></path><path d="M294.4 424.533333c-42.069333 0-78.933333 36.864-78.933333 78.933334 0 42.069333 36.864 78.933333 78.933333 78.933333h38.4a32 32 0 0 1 0 64h-38.4c-77.397333 0-142.933333-65.536-142.933333-142.933333S217.002667 360.533333 294.4 360.533333h38.4a32 32 0 1 1 0 64h-38.4zM503.466667 424.533333c-28.16 0-49.066667 22.997333-49.066667 49.066667v59.733333c0 28.16 22.954667 49.066667 49.066667 49.066667h17.066666c27.306667 0 49.066667-21.973333 49.066667-44.8v-64c0-28.16-22.954667-49.066667-49.066667-49.066667h-17.066666zM390.4 473.6c0-59.221333 47.36-113.066667 113.066667-113.066667h17.066666c59.221333 0 113.066667 47.36 113.066667 113.066667v64c0 62.549333-55.04 108.8-113.066667 108.8h-17.066666c-59.221333 0-113.066667-47.36-113.066667-113.066667v-59.733333zM691.2 360.533333a32 32 0 0 1 32 32v221.866667a32 32 0 0 1-64 0V392.533333a32 32 0 0 1 32-32zM840.533333 360.533333a32 32 0 0 1 32 32v221.866667a32 32 0 0 1-64 0V392.533333a32 32 0 0 1 32-32z" fill="#515151" p-id="5028"></path><path d="M673.322667 365.994667a32 32 0 0 1 44.416 8.661333l149.333333 221.866667a32 32 0 0 1-53.077333 35.754666l-149.333334-221.866666a32 32 0 0 1 8.661334-44.373334z" fill="#515151" ></path></svg>