<svg  viewBox="0 0 1170 1024" version="1.1" xmlns="http://www.w3.org/2000/svg" ><path d="M32.554913 0a32.850867 32.850867 0 0 1 32.554914 32.554913v958.890174a32.850867 32.850867 0 0 1-32.554914 32.554913A32.850867 32.850867 0 0 1 0 991.445087V32.554913A32.850867 32.850867 0 0 1 32.554913 0z" fill="#515151" ></path><path d="M486.843931 213.086705a33.442775 33.442775 0 0 1 44.393063 11.83815l263.398844 458.728324a32.554913 32.554913 0 0 1-56.231214 32.554913l-263.398844-458.728323a33.442775 33.442775 0 0 1 11.838151-44.393064z" fill="#515151" ></path><path d="M514.959538 210.127168a33.442775 33.442775 0 0 1 11.83815 44.393063L216.046243 790.196532a32.554913 32.554913 0 1 1-56.231214-32.554914L467.606936 221.965318a36.402312 36.402312 0 0 1 47.352602-11.83815z" fill="#515151" ></path><path d="M1154.219653 29.595376a33.442775 33.442775 0 0 1 11.83815 44.393063L799.075145 713.248555a32.554913 32.554913 0 0 1-56.231214-32.554913L1109.82659 44.393064A31.963006 31.963006 0 0 1 1154.219653 29.595376z" fill="#515151" ></path><path d="M32.554913 958.890173h1103.907515a32.850867 32.850867 0 0 1 32.554913 32.554914 32.850867 32.850867 0 0 1-32.554913 32.554913H32.554913A32.850867 32.850867 0 0 1 0 991.445087a32.850867 32.850867 0 0 1 32.554913-32.554914z" fill="#515151" ></path></svg>