<?xml version="1.0" standalone="no"?><!DOCTYPE svg PUBLIC "-//W3C//DTD SVG 1.1//EN" "http://www.w3.org/Graphics/SVG/1.1/DTD/svg11.dtd"><svg t="1638498791164" class="icon" viewBox="0 0 1024 1024" version="1.1" xmlns="http://www.w3.org/2000/svg" p-id="1740" xmlns:xlink="http://www.w3.org/1999/xlink" width="200" height="200"><defs><style type="text/css"></style></defs><path d="M844.8 544v-91.733333c64-21.333333 100.266667-89.6 78.933333-155.733334-21.333333-64-89.6-100.266667-155.733333-78.933333-12.8 4.266667-25.6 10.666667-36.266667 19.2l-100.266666-55.466667c14.933333-66.133333-25.6-132.266667-91.733334-149.333333s-132.266667 25.6-149.333333 91.733333c-4.266667 19.2-4.266667 38.4 0 55.466667l-100.266667 59.733333c-53.333333-42.666667-130.133333-34.133333-172.8 19.2s-34.133333 130.133333 19.2 172.8c10.666667 8.533333 21.333333 14.933333 34.133334 19.2v91.733334c-66.133333 19.2-102.4 87.466667-83.2 153.6s87.466667 102.4 153.6 83.2c19.2-6.4 38.4-17.066667 51.2-32l96 55.466666c-10.666667 66.133333 34.133333 130.133333 100.266666 140.8s130.133333-34.133333 140.8-100.266666c2.133333-14.933333 2.133333-29.866667 0-44.8l87.466667-49.066667c49.066667 46.933333 125.866667 46.933333 174.933333-2.133333s46.933333-125.866667-2.133333-174.933334c-8.533333-10.666667-25.6-21.333333-44.8-27.733333z m21.333333-206.933333c0 32-27.733333 59.733333-59.733333 59.733333S746.666667 369.066667 746.666667 337.066667s25.6-59.733333 59.733333-59.733334c34.133333 0 59.733333 25.6 59.733333 59.733334zM215.466667 277.333333c32 0 59.733333 25.6 59.733333 59.733334 0 32-25.6 59.733333-59.733333 59.733333s-59.733333-25.6-59.733334-59.733333c2.133333-34.133333 27.733333-59.733333 59.733334-59.733334z m298.666666 605.866667c-32 0-59.733333-25.6-59.733333-59.733333 0-32 25.6-59.733333 59.733333-59.733334 32 0 59.733333 25.6 59.733334 59.733334s-25.6 59.733333-59.733334 59.733333z m0-181.333333c-36.266667 0-70.4 17.066667-93.866666 44.8l-91.733334-53.333334c17.066667-66.133333-21.333333-132.266667-87.466666-149.333333h-2.133334v-85.333333c66.133333-10.666667 110.933333-74.666667 100.266667-142.933334-2.133333-8.533333-4.266667-14.933333-6.4-23.466666l91.733333-53.333334c46.933333 49.066667 123.733333 51.2 172.8 6.4l6.4-6.4 89.6 49.066667c-25.6 61.866667 4.266667 134.4 66.133334 160 6.4 2.133333 12.8 4.266667 21.333333 6.4v85.333333c-66.133333 14.933333-108.8 78.933333-93.866667 145.066667 0 2.133333 0 4.266667 2.133334 6.4l-83.2 49.066667c-23.466667-25.6-57.6-38.4-91.733334-38.4z" fill="#2B85FB" p-id="1741"></path></svg>