<?xml version="1.0" encoding="utf-8"?>
<!-- Generator: Adobe Illustrator 24.1.0, SVG Export Plug-In . SVG Version: 6.00 Build 0)  -->
<svg version="1.1" id="图层_1" xmlns="http://www.w3.org/2000/svg" xmlns:xlink="http://www.w3.org/1999/xlink" x="0px" y="0px"
	 viewBox="0 0 200 200" style="enable-background:new 0 0 200 200;" xml:space="preserve">
<style type="text/css">
	.st0{fill:#FCD20A;}
	.st1{fill:#18BCB3;}
	.st2{fill:#EF4F99;}
	.st3{fill:#1BA8E0;}
	.st4{fill:#92C83E;}
	.st5{fill:#107AA2;}
</style>
<path class="st0" d="M81.7,88.8l37.5,17.1l37.9-33.3c0.4-2.9,0.8-5.4,0.8-8.3c0-23.3-18.8-42.5-42.5-42.5c-14.2,0-27.1,6.7-35,18.3
	l-6.2,32.5L81.7,88.8L81.7,88.8z"/>
<path class="st1" d="M79.6,95l-37.1,33.3c-0.4,2.9-0.8,5.8-0.8,8.3c0,23.3,19.2,42.5,42.5,42.5c14.2,0,27.1-7.1,35-18.3l6.2-32.5
	l-8.3-15.8L79.6,95L79.6,95z"/>
<path class="st2" d="M42.5,63.3l25.8,6.3l5.8-29.2c-3.8-2.9-7.9-4.2-12.5-4.2c-11.2,0-20.4,9.2-20.4,20.4
	C41.3,58.7,41.7,61.2,42.5,63.3z"/>
<path class="st3" d="M68.8,76.2l-28.3-6.7c-11.7,3.8-19.6,15-19.6,27.1c0,11.7,7.1,22.5,18.3,26.7l36.3-32.5
	C75.4,90.8,68.8,76.3,68.8,76.2z"/>
<path class="st4" d="M131.7,131.7l-5.8,29.2c3.8,2.9,7.9,4.2,12.1,4.2c11.2,0,20.4-9.2,20.4-20.4c0-2.5-0.4-5-1.3-7.1L131.7,131.7
	L131.7,131.7z"/>
<path class="st5" d="M160.8,77.9l-37.1,32.5l7.5,14.6l28.3,6.7c11.7-3.8,19.6-15,19.6-27.1C179.2,92.9,172.1,82.5,160.8,77.9z"/>
</svg>
