<?xml version="1.0" standalone="no"?><!DOCTYPE svg PUBLIC "-//W3C//DTD SVG 1.1//EN"
        "http://www.w3.org/Graphics/SVG/1.1/DTD/svg11.dtd">
<svg t="1638499677587" class="icon" viewBox="0 0 1024 1024" version="1.1" xmlns="http://www.w3.org/2000/svg" p-id="6111"
     width="200" height="200">
    <defs>
        <style type="text/css"></style>
    </defs>
    <path d="M512 512m-512 0a512 512 0 1 0 1024 0 512 512 0 1 0-1024 0Z" fill="#E9F4FF" p-id="6112"></path>
    <path d="M153.6 691.2h716.8v51.2H153.6zM486.4 307.2h51.2v358.4h-51.2zM665.6 307.2h51.2v358.4h-51.2z" fill="#040405"
          p-id="6113"></path>
    <path d="M153.6 307.2h51.2v358.4H153.6z" fill="#2394FB" p-id="6114"></path>
    <path d="M153.6 307.2h204.8v51.2H153.6zM153.6 460.8h204.8v51.2H153.6z" fill="#2394FB" p-id="6115"></path>
    <path d="M384 307.2h256v51.2H384zM665.6 307.2h153.6v51.2h-153.6zM665.6 460.8h153.6v51.2h-153.6zM819.2 358.4h51.2v102.4h-51.2z"
          fill="#040405" p-id="6116"></path>
</svg>
