<?xml version="1.0" standalone="no"?><!DOCTYPE svg PUBLIC "-//W3C//DTD SVG 1.1//EN" "http://www.w3.org/Graphics/SVG/1.1/DTD/svg11.dtd"><svg t="1638499744077" class="icon" viewBox="0 0 1024 1024" version="1.1" xmlns="http://www.w3.org/2000/svg" p-id="6574" xmlns:xlink="http://www.w3.org/1999/xlink" width="200" height="200"><defs><style type="text/css"></style></defs><path d="M808.533333 373.333333C793.6 258.133333 695.466667 170.666667 576 170.666667c-100.266667 0-185.6 61.866667-219.733333 149.333333H341.333333c-70.4 0-130.133333 49.066667-145.066666 115.2C106.666667 460.8 42.666667 544 42.666667 640c0 117.333333 96 213.333333 213.333333 213.333333h490.666667c130.133333-6.4 234.666667-113.066667 234.666666-245.333333 0-110.933333-72.533333-202.666667-172.8-234.666667zM362.666667 405.333333c0-23.466667 19.2-42.666667 42.666666-42.666666h213.333334c23.466667 0 42.666667 19.2 42.666666 42.666666v128c0 23.466667-19.2 42.666667-42.666666 42.666667H405.333333c-23.466667 0-42.666667-19.2-42.666666-42.666667v-128z m61.866666 330.666667c0 8.533333-4.266667 12.8-12.8 12.8-8.533333 0-12.8-4.266667-12.8-12.8v-38.4h-53.333333v38.4c0 8.533333-4.266667 12.8-12.8 12.8s-12.8-6.4-12.8-12.8v-98.133333c0-8.533333 4.266667-12.8 12.8-12.8 8.533333 0 12.8 4.266667 12.8 12.8v36.266666h53.333333v-36.266666c0-8.533333 4.266667-12.8 12.8-12.8 8.533333 0 12.8 4.266667 12.8 12.8v98.133333z m57.6 10.666667h-29.866666c-8.533333 0-12.8-4.266667-12.8-12.8v-96c0-8.533333 4.266667-12.8 12.8-12.8h27.733333c38.4 2.133333 59.733333 21.333333 59.733333 61.866666 0 38.4-19.2 57.6-57.6 59.733334z m128-98.133334h-32v25.6h27.733334c8.533333 0 10.666667 4.266667 12.8 12.8 0 8.533333-4.266667 10.666667-12.8 12.8h-27.733334v38.4c0 8.533333-4.266667 12.8-12.8 12.8s-12.8-4.266667-12.8-12.8V640c0-8.533333 4.266667-12.8 12.8-12.8h44.8c6.4 0 10.666667 4.266667 10.666667 10.666667s-4.266667 10.666667-10.666667 10.666666z m55.466667 100.266667c-27.733333 0-40.533333-6.4-40.533333-17.066667 0-8.533333 4.266667-10.666667 10.666666-12.8 2.133333 0 6.4 0 12.8 2.133334s12.8 4.266667 17.066667 4.266666c10.666667 0 17.066667-6.4 17.066667-14.933333 0-6.4-6.4-10.666667-21.333334-14.933333-19.2-2.133333-32-12.8-36.266666-32 2.133333-23.466667 14.933333-36.266667 42.666666-38.4 21.333333 2.133333 32 6.4 34.133334 17.066666 0 8.533333-4.266667 12.8-10.666667 12.8-2.133333 0-4.266667 0-8.533333-2.133333-6.4-2.133333-10.666667-2.133333-12.8-2.133333-8.533333 0-12.8 4.266667-14.933334 10.666666 0 4.266667 6.4 8.533333 19.2 12.8 21.333333 2.133333 34.133333 14.933333 38.4 38.4-6.4 21.333333-19.2 34.133333-46.933333 36.266667z m-185.6-100.266667h-14.933333v74.666667h17.066666c21.333333 0 32-12.8 32-36.266667 0-25.6-10.666667-36.266667-34.133333-38.4z" p-id="6575" fill="#1296db"></path><path d="M595.2 409.6c-8.533333-8.533333-21.333333-8.533333-29.866667 0L490.666667 484.266667l-29.866667-29.866667c-8.533333-8.533333-21.333333-8.533333-29.866667 0-8.533333 8.533333-8.533333 21.333333 0 29.866667l44.8 44.8c8.533333 8.533333 21.333333 8.533333 29.866667 0l89.6-89.6c8.533333-6.4 8.533333-21.333333 0-29.866667z" p-id="6576" fill="#1296db"></path></svg>