<?xml version="1.0" standalone="no"?><!DOCTYPE svg PUBLIC "-//W3C//DTD SVG 1.1//EN" "http://www.w3.org/Graphics/SVG/1.1/DTD/svg11.dtd"><svg t="1638498823452" class="icon" viewBox="0 0 1024 1024" version="1.1" xmlns="http://www.w3.org/2000/svg" p-id="3356" xmlns:xlink="http://www.w3.org/1999/xlink" width="200" height="200"><defs><style type="text/css"></style></defs><path d="M504.591 72.612S89.112 432.584 485.092 818.075c0 0 43.498-124.485 19.499-745.463zM548.089 84.602s5.522 494.563 3 513.898c-3 23-0.411 39-3 77.5 0 0-15.589 99.5 26.911 140 0 0 175 27.5 153.5-301 0 0 9-128.5-47.5-245 0 0-52.5-107-115.5-162l-17.411-23.398zM527.5 824s-6.5 32.5-15.5 39c0 0 9 39 7.75 78l25.548 8.5S539 873 547.5 848l-20-24z" p-id="3357" fill="#1c8735"></path></svg>