<?xml version="1.0" standalone="no"?><!DOCTYPE svg PUBLIC "-//W3C//DTD SVG 1.1//EN" "http://www.w3.org/Graphics/SVG/1.1/DTD/svg11.dtd"><svg t="1638498972110" class="icon" viewBox="0 0 1024 1024" version="1.1" xmlns="http://www.w3.org/2000/svg" p-id="5232" xmlns:xlink="http://www.w3.org/1999/xlink" width="200" height="200"><defs><style type="text/css"></style></defs><path d="M699.946667 242.176c-4.906667 0-8.234667 0.597333-11.690667 1.408v0.554667h0.597333c2.304 4.437333 6.229333 7.68 9.130667 11.648 2.304 4.565333 4.266667 9.130667 6.570667 13.653333l0.597333-0.64c4.010667-2.816 5.973333-7.338667 5.973333-14.208-1.706667-2.005333-1.962667-4.010667-3.413333-5.973333-1.706667-2.858667-5.376-4.266667-7.68-6.528zM246.186667 805.12h-39.552a2169.770667 2169.770667 0 0 0-11.52-188.16h-0.341334l-60.16 188.16H104.533333l-59.733333-188.16h-0.426667a3110.058667 3110.058667 0 0 0-8.32 188.16H0c2.346667-83.882667 8.192-162.56 17.493333-235.946667h49.066667l56.96 173.397334h0.341333L181.333333 569.173333h46.72c10.325333 85.973333 16.384 164.693333 18.261334 235.946667z m171.392-174.08c-16.128 87.253333-37.376 150.741333-63.658667 190.293333-20.565333 30.549333-43.093333 45.781333-67.541333 45.781334-6.528 0-14.506667-1.962667-24.149334-5.888v-21.077334c4.693333 0.725333 10.24 1.109333 16.469334 1.109334 11.434667 0 20.608-3.2 27.605333-9.472 8.405333-7.68 12.586667-16.298667 12.586667-25.813334 0-6.613333-3.285333-20.053333-9.813334-40.277333L265.813333 631.04h38.826667l31.018667 100.693333c6.997333 22.869333 9.941333 38.826667 8.746666 47.914667 17.066667-45.397333 28.928-95.018667 35.626667-148.608h37.546667z m525.866666 174.08h-112.213333v-235.946667h37.76v206.933334h74.453333z m-141.653333 5.76l-43.349333-21.333333c3.84-3.242667 7.552-6.741333 10.88-10.666667 18.474667-21.589333 27.648-53.674667 27.648-96.128 0-78.08-30.634667-117.162667-91.946667-117.162667-30.037333 0-53.504 9.898667-70.4 29.738667-18.346667 21.674667-27.562667 53.589333-27.562667 95.786667 0 41.472 8.106667 71.936 24.490667 91.306666 14.933333 17.493333 37.418667 26.24 67.541333 26.24 11.264 0 21.589333-1.408 30.933334-4.181333l56.533333 32.938667 15.36-26.538667zM661.333333 757.888c-9.6-15.36-14.378667-40.106667-14.378666-74.069333 0-59.434667 18.090667-89.173333 54.186666-89.173334 18.901333 0 32.853333 7.125333 41.685334 21.333334 9.557333 15.445333 14.336 39.936 14.336 73.514666 0 59.904-18.090667 89.941333-54.186667 89.941334-18.986667 0-32.853333-7.125333-41.728-21.333334z m-70.741333-18.133333c0 20.053333-7.338667 36.522667-22.016 49.322666s-34.261333 19.2-59.050667 19.2c-23.168 0-45.397333-7.338667-67.114666-21.973333l10.112-20.309333c18.688 9.386667 35.541333 13.994667 50.773333 13.994666 14.165333 0 25.301333-3.114667 33.408-9.386666a32.170667 32.170667 0 0 0 12.8-26.24c0-14.08-9.813333-26.026667-27.648-36.053334-16.554667-9.088-49.621333-28.032-49.621333-28.032-18.005333-13.098667-26.965333-27.136-26.965334-50.218666 0-19.2 6.698667-34.56 20.053334-46.293334 13.44-11.861333 30.72-17.706667 52.053333-17.706666 21.845333 0 41.813333 5.802667 59.733333 17.493333l-9.088 20.309333a116.309333 116.309333 0 0 0-45.397333-9.813333c-12.074667 0-21.418667 2.901333-27.904 8.789333a29.226667 29.226667 0 0 0-10.581333 22.357334c0 13.994667 9.984 26.026667 28.416 36.266666 16.768 9.173333 50.645333 28.586667 50.645333 28.586667 18.474667 13.013333 27.648 26.88 27.648 49.834667z m400.298667-249.685334c-22.826667-0.597333-40.533333 1.706667-55.338667 8.021334-4.266667 1.706667-11.093333 1.706667-11.690667 7.125333 2.346667 2.261333 2.688 5.973333 4.693334 9.130667 3.413333 5.717333 9.301333 13.354667 14.762666 17.365333 5.973333 4.693333 11.946667 9.216 18.218667 13.226667 11.093333 6.826667 23.68 10.88 34.56 17.749333 6.186667 4.010667 12.501333 9.088 18.773333 13.354667 3.114667 2.133333 5.12 5.973333 9.130667 7.338666v-0.853333c-1.962667-2.56-2.56-6.272-4.48-9.130667-2.858667-2.858667-5.717333-5.418667-8.533333-8.234666a137.514667 137.514667 0 0 0-29.653334-28.8c-9.130667-6.229333-29.098667-14.933333-32.853333-25.386667l-0.554667-0.597333c6.229333-0.554667 13.653333-2.816 19.626667-4.522667 9.685333-2.56 18.56-2.005333 28.586667-4.522667 4.522667-1.152 9.088-2.56 13.653333-4.010666v-2.56c-5.12-5.12-8.96-12.074667-14.250667-16.853334a378.325333 378.325333 0 0 0-47.104-35.114666c-8.96-5.717333-20.309333-9.386667-29.738666-14.250667-3.413333-1.706667-9.130667-2.56-11.093334-5.418667-5.12-6.229333-8.106667-14.506667-11.733333-21.930666a754.773333 754.773333 0 0 1-23.338667-49.621334c-5.12-11.178667-8.234667-22.314667-14.506666-32.554666-29.44-48.512-61.312-77.909333-110.336-106.666667-10.538667-5.973333-23.168-8.533333-36.522667-11.690667-7.125333-0.341333-14.250667-0.853333-21.333333-1.152-4.693333-2.005333-9.216-7.424-13.226667-10.026666-16.213333-10.24-58.197333-32.426667-70.144-3.072-7.68 18.517333 11.392 36.778667 18.005333 46.165333 4.906667 6.528 11.093333 13.994667 14.506667 21.333333 2.005333 4.949333 2.56 10.026667 4.565333 15.189334 4.522667 12.544 8.832 26.538667 14.805334 38.272 3.114667 5.973333 6.528 12.245333 10.538666 17.621333 2.304 3.114667 6.229333 4.565333 7.125334 9.685333-4.010667 5.802667-4.266667 14.250667-6.570667 21.333334-10.24 32.298667-6.229333 72.234667 8.277333 96 4.565333 7.082667 15.445333 22.784 29.994667 16.768 12.8-5.12 9.984-21.333333 13.653333-35.626667 0.853333-3.413333 0.298667-5.674667 2.048-7.978667v0.64c4.010667 8.021333 8.021333 15.658667 11.690667 23.68 8.789333 13.994667 24.149333 28.501333 36.992 38.186667 6.826667 5.12 12.245333 13.994667 20.778667 17.152v-0.853333h-0.64c-1.834667-2.474667-4.266667-3.669333-6.570667-5.674667a146.986667 146.986667 0 0 1-14.933333-17.066667 373.76 373.76 0 0 1-31.872-51.968c-4.693333-8.96-8.618667-18.602667-12.373334-27.434666-1.706667-3.413333-1.706667-8.533333-4.565333-10.24-4.266667 6.229333-10.538667 11.648-13.653333 19.328-5.418667 12.288-5.973333 27.392-8.021334 43.093333-1.152 0.298667-0.597333 0-1.152 0.597333-9.130667-2.218667-12.245333-11.690667-15.658666-19.626666-8.533333-20.266667-9.941333-52.821333-2.56-76.16 2.005333-5.973333 10.538667-24.832 7.125333-30.549334-1.792-5.418667-7.424-8.533333-10.538667-12.928a105.728 105.728 0 0 1-10.24-18.218666c-6.826667-15.957333-10.24-33.621333-17.664-49.578667-3.413333-7.381333-9.386667-15.104-14.250666-21.888-5.418667-7.68-11.392-13.098667-15.701334-22.186667-1.408-3.114667-3.413333-8.277333-1.152-11.690666 0.597333-2.304 1.792-3.2 4.010667-3.84 3.754667-3.072 14.293333 0.938667 18.005333 2.645333 10.538667 4.266667 19.413333 8.277333 28.245334 14.250667 4.010667 2.816 8.32 8.234667 13.44 9.642666h5.973333c9.130667 2.005333 19.413333 0.597333 27.946667 3.114667 15.146667 4.864 28.8 11.946667 41.045333 19.626667a253.994667 253.994667 0 0 1 88.96 97.536c3.413333 6.570667 4.906667 12.586667 8.021333 19.413333 5.973333 14.08 13.354667 28.288 19.413334 41.898667 5.973333 13.44 11.733333 27.136 20.309333 38.272 4.266667 5.973333 21.418667 9.088 29.098667 12.202666 5.674667 2.56 14.506667 4.906667 19.626666 8.021334 9.813333 5.973333 19.370667 12.8 28.586667 19.370666 4.693333 3.242667 18.901333 10.368 19.754667 16.128z" p-id="5233" fill="#f97f09"></path></svg>