<?xml version="1.0" standalone="no"?><!DOCTYPE svg PUBLIC "-//W3C//DTD SVG 1.1//EN" "http://www.w3.org/Graphics/SVG/1.1/DTD/svg11.dtd"><svg t="1638499947489" class="icon" viewBox="0 0 1024 1024" version="1.1" xmlns="http://www.w3.org/2000/svg" p-id="9100" xmlns:xlink="http://www.w3.org/1999/xlink" width="200" height="200"><defs><style type="text/css"></style></defs><path d="M896 170.666667H128c-46.933333 0-85.333333 38.4-85.333333 85.333333v512c0 46.933333 38.4 85.333333 85.333333 85.333333h768c46.933333 0 85.333333-38.4 85.333333-85.333333V256c0-46.933333-38.4-85.333333-85.333333-85.333333z m-507.733333 160h241.066666c64 0 115.2 34.133333 136.533334 89.6h-38.4c-19.2-44.8-53.333333-55.466667-98.133334-55.466667H388.266667c-44.8 0-78.933333 10.666667-98.133334 55.466667h-38.4c21.333333-55.466667 72.533333-89.6 136.533334-89.6z m362.666666 234.666666l-10.666666 21.333334h-76.8c-2.133333 0-4.266667-2.133333-6.4-4.266667-2.133333-2.133333-2.133333-4.266667-2.133334-8.533333v-108.8h17.066667v100.266666h78.933333zM486.4 490.666667l-44.8 96h-19.2l53.333333-115.2c2.133333-4.266667 6.4-8.533333 10.666667-6.4 4.266667 0 8.533333 2.133333 10.666667 6.4l53.333333 115.2h-19.2l-8.533333-21.333334h-44.8l-10.666667-21.333333H512L486.4 490.666667z m59.733333 66.133333c-8.533333-19.2-8.533333-42.666667 0-59.733333 8.533333-19.2 23.466667-29.866667 38.4-29.866667h59.733334l-10.666667 21.333333h-49.066667c-10.666667 0-19.2 6.4-25.6 19.2-4.266667 12.8-4.266667 27.733333 0 40.533334 4.266667 12.8 14.933333 19.2 25.6 19.2h61.866667l-10.666667 21.333333h-51.2c-14.933333-2.133333-29.866667-14.933333-38.4-32z m-128 29.866667h-25.6L341.333333 526.933333h46.933334c4.266667 0 6.4-2.133333 10.666666-6.4 2.133333-4.266667 4.266667-8.533333 4.266667-12.8 0-4.266667-2.133333-10.666667-4.266667-12.8-2.133333-4.266667-6.4-6.4-10.666666-6.4h-55.466667v100.266667h-17.066667v-121.6h74.666667c17.066667 0 29.866667 19.2 29.866667 40.533333s-12.8 40.533333-29.866667 40.533334h-8.533333l36.266666 38.4zM170.666667 524.8c0-34.133333 19.2-59.733333 44.8-59.733333h51.2c23.466667 0 44.8 27.733333 44.8 59.733333 0 17.066667-4.266667 32-12.8 42.666667-8.533333 10.666667-19.2 17.066667-32 17.066666h-51.2c-25.6 2.133333-44.8-25.6-44.8-59.733333z m458.666666 189.866667H388.266667c-64 0-113.066667-34.133333-136.533334-89.6h38.4c19.2 44.8 53.333333 55.466667 98.133334 55.466666h241.066666c44.8 0 78.933333-10.666667 98.133334-55.466666h38.4c-21.333333 55.466667-72.533333 89.6-136.533334 89.6z m213.333334-128h-51.2c-23.466667 0-42.666667-27.733333-42.666667-59.733334 0-34.133333 19.2-59.733333 42.666667-59.733333h59.733333l-10.666667 21.333333h-49.066666c-12.8 0-23.466667 10.666667-27.733334 27.733334h83.2l-10.666666 21.333333h-72.533334c4.266667 17.066667 14.933333 27.733333 27.733334 27.733333H853.333333l-10.666666 21.333334z m-558.933334-34.133334c6.4-6.4 8.533333-17.066667 8.533334-27.733333s-2.133333-21.333333-8.533334-27.733333c-6.4-6.4-12.8-10.666667-19.2-10.666667h-49.066666c-14.933333 0-27.733333 17.066667-27.733334 38.4s12.8 38.4 27.733334 38.4h49.066666c8.533333 2.133333 14.933333-2.133333 19.2-10.666667z" p-id="9101" fill="#ed1b24"></path></svg>