<?xml version="1.0" standalone="no"?><!DOCTYPE svg PUBLIC "-//W3C//DTD SVG 1.1//EN" "http://www.w3.org/Graphics/SVG/1.1/DTD/svg11.dtd"><svg t="1638499840778" class="icon" viewBox="0 0 1024 1024" version="1.1" xmlns="http://www.w3.org/2000/svg" p-id="8128" xmlns:xlink="http://www.w3.org/1999/xlink" width="200" height="200"><defs><style type="text/css"></style></defs><path d="M725.333 548.267c32-53.334 12.8-123.734-40.533-153.6-53.333-32-123.733-12.8-153.6 40.533l-29.867 51.2-44.8 78.933c-19.2 32-59.733 42.667-91.733 25.6-32-19.2-42.667-59.733-25.6-91.733l211.2-364.8 25.6 14.933V42.667L484.267 96l64 36.267L512 110.933l-213.333 364.8c-32 53.334-12.8 123.734 40.533 153.6 53.333 32 123.733 12.8 153.6-40.533l74.667-128c19.2-32 59.733-42.667 91.733-25.6 32 19.2 42.667 59.733 25.6 91.733L640 605.867 473.6 891.733 448 876.8v104.533L539.733 928l-25.6-14.933 211.2-364.8z" fill="#00C1DE" p-id="8129"></path><path d="M494.933 791.467C347.733 782.933 230.4 661.333 230.4 512c0-108.8 61.867-202.667 151.467-249.6l44.8-76.8C281.6 224 174.933 356.267 174.933 512c0 170.667 125.867 309.333 288 332.8l32-53.333zM561.067 179.2L531.2 232.533C676.267 241.067 793.6 362.667 793.6 512c0 108.8-61.867 202.667-151.467 249.6l-44.8 76.8C742.4 800 849.067 669.867 849.067 512c0-170.667-125.867-309.333-288-332.8z" fill="#00C1DE" p-id="8130"></path></svg>