<svg  class="icon" viewBox="0 0 1024 1024" version="1.1" xmlns="http://www.w3.org/2000/svg" ><path d="M507.392 1002.624a10.88 10.88 0 0 0-8.15 12.715c1.28 5.632 6.87 9.642 12.374 8.32a10.837 10.837 0 0 0 8.192-12.672c-1.28-5.675-6.827-9.686-12.373-8.363z m152.875-638.805c35.669-16.47 51.456-59.435 35.328-95.915a70.272 70.272 0 0 0-93.782-36.139c-35.626 16.555-51.498 59.478-35.328 95.958a70.23 70.23 0 0 0 93.782 36.096zM771.968 581.46c37.547-11.52 58.752-51.925 47.488-90.24-11.307-38.357-50.773-60.074-88.32-48.512-37.461 11.52-58.71 51.926-47.403 90.283 11.264 38.315 50.774 60.032 88.278 48.47zM220.715 457.557a73.856 73.856 0 0 0-5.931 102.187 69.973 69.973 0 0 0 99.925 6.059 73.856 73.856 0 0 0 5.888-102.23 69.973 69.973 0 0 0-99.925-6.016z m622.762-92.16c17.92-16.384 19.542-44.8 3.584-63.146a43.221 43.221 0 0 0-61.781-3.67 45.525 45.525 0 0 0-3.584 63.147c16.043 18.347 43.776 20.01 61.781 3.67zM509.696 197.035c24.15 0 43.776-20.054 43.776-44.715 0-24.747-19.627-44.8-43.776-44.8-24.192 0-43.776 20.053-43.776 44.8 0 24.661 19.627 44.757 43.776 44.757z m-304.64 179.712c24.107 0 43.69-20.054 43.69-44.8 0-24.662-19.583-44.715-43.733-44.715-24.192 0-43.776 20.053-43.776 44.757s19.627 44.758 43.776 44.758z m-29.44 281.856a45.568 45.568 0 0 0-3.627 63.146c16 18.347 43.776 20.054 61.739 3.67a45.568 45.568 0 0 0 3.627-63.147 43.179 43.179 0 0 0-61.739-3.67z m334.08 258.176c24.15 0 43.776-20.054 43.776-44.758s-19.627-44.757-43.776-44.757c-24.192 0-43.776 20.053-43.776 44.757 0 24.747 19.627 44.758 43.776 44.758zM814.72 736.427c24.15 0 43.733-20.054 43.733-44.758s-19.584-44.757-43.776-44.757c-24.149 0-43.733 20.053-43.733 44.8 0 24.661 19.584 44.715 43.776 44.715z m-86.272-586.454a26.795 26.795 0 0 0 28.416-26.069 27.008 27.008 0 1 0-53.888-2.987 27.008 27.008 0 0 0 25.43 29.056z m-453.59-4.693a26.539 26.539 0 0 0 37.206-8.021 27.904 27.904 0 0 0-7.808-38.059 26.539 26.539 0 0 0-37.248 8.021 27.904 27.904 0 0 0 7.85 38.059zM57.686 487.296a27.904 27.904 0 0 0 3.414 50.859 26.752 26.752 0 0 0 20.736-1.451 27.904 27.904 0 0 0 5.717-45.525 26.795 26.795 0 0 0-29.867-3.84zM291.2 874.368a26.71 26.71 0 0 0-28.459 26.027 26.965 26.965 0 1 0 53.888 3.029 27.008 27.008 0 0 0-25.429-29.013z m453.547 4.693a26.581 26.581 0 0 0-37.206 7.979 27.904 27.904 0 0 0 7.851 38.101 26.453 26.453 0 0 0 37.205-8.021 27.861 27.861 0 0 0-7.808-38.101zM964.565 488.96a26.496 26.496 0 0 0-37.248 8.021 27.861 27.861 0 0 0 7.851 38.059 26.453 26.453 0 0 0 37.248-8.021 27.861 27.861 0 0 0-7.85-38.059z m-23.509-219.733a11.093 11.093 0 0 0 0.981-15.062 10.539 10.539 0 0 0-14.72-0.981 11.093 11.093 0 0 0-0.938 15.019 10.539 10.539 0 0 0 14.677 0.981zM511.616 21.333a10.88 10.88 0 0 0 6.656-4.693c1.536-2.39 2.133-5.248 1.536-8.021-1.28-5.632-6.827-9.643-12.373-8.32a10.88 10.88 0 0 0-8.192 12.672c1.28 5.674 6.826 9.685 12.373 8.362zM82.219 271.531c5.546 2.005 11.434-1.366 13.397-6.699a11.008 11.008 0 0 0-6.528-13.653c-5.59-2.006-11.477 1.322-13.397 6.656a11.008 11.008 0 0 0 6.528 13.696z m-3.926 482.901a11.093 11.093 0 0 0-0.981 15.061 10.539 10.539 0 0 0 14.677 0.982 11.093 11.093 0 0 0 0.982-15.019 10.539 10.539 0 0 0-14.678-1.024z m859.179-2.304c-5.547-2.005-11.392 1.365-13.355 6.699a11.008 11.008 0 0 0 6.528 13.653c5.547 2.005 11.435-1.323 13.355-6.656a11.008 11.008 0 0 0-6.528-13.696z" fill="#3859FF" p-id="5226"></path><path d="M652.373 657.621a69.76 69.76 0 0 0-81.621 30.038l-0.64 1.322c-16.341 28.416-48.683 43.435-80.64 33.067a71.083 71.083 0 0 1-40.533-33.707 55.85 55.85 0 0 1 49.621-73.13h7.21c55.851 2.304 103.169-42.112 105.473-99.542 2.261-57.429-41.131-105.514-97.28-107.904h-15.36c-30.379-1.28-51.627-25.386-50.347-56.405 0-7.381 1.323-14.72 4.267-21.077l0.64-1.963a83.558 83.558 0 0 0 3.626-9.387c11.734-38.4-9.13-79.146-46.378-91.178a70.699 70.699 0 0 0-88.832 47.445c-11.776 37.419 7.808 77.483 44.074 90.496 5.888 2.005 9.472 2.688 15.019 3.712h2.944c28.757 3.285 51.285 27.008 50.304 57.088a55.723 55.723 0 0 1-9.472 29.397 103.168 103.168 0 0 0-15.659 51.414 104.888 104.888 0 0 0 15.659 60.16c5.547 8.32 9.13 18.346 9.472 29.354 1.28 30.08-18.304 53.76-47.019 56.747h-0.682c-4.224 0-9.131 1.024-13.056 1.707-39.168 9.002-62.336 48.085-53.547 87.168a70.57 70.57 0 0 0 109.824 42.581 69.547 69.547 0 0 0 19.2-20.907 70.485 70.485 0 0 1 82.56-32c17.323 5.632 29.739 16.342 38.57 31.36l0.94 1.707c7.551 12.33 21.93 25.045 38.869 30.037 38.57 11.691 76.458-9.685 88.533-47.104 12.373-39.082-9.813-79.53-45.739-91.178v0.682z" fill="#3859FF" ></path></svg>