<svg  viewBox="0 0 1024 1024" version="1.1" xmlns="http://www.w3.org/2000/svg" ><path d="M512 122.88c229.76 0 416 178.773333 416 399.36 0 220.586667-186.24 399.36-416 399.36s-416-178.773333-416-399.36c0-220.586667 186.24-399.36 416-399.36zM274.346667 272.938667l-4.053334 3.669333C202.368 338.218667 160 425.472 160 522.24c0 186.624 157.610667 337.92 352 337.92a361.557333 361.557333 0 0 0 178.176-46.421333L274.346667 272.938667zM512 184.32c-68.266667 0-132.010667 18.645333-185.984 50.944l416.853333 542.037333c74.24-61.909333 121.130667-153.216 121.130667-255.061333 0-186.624-157.610667-337.92-352-337.92z" fill="#515151" ></path></svg>