<svg  class="icon" viewBox="0 0 1024 1024" version="1.1" xmlns="http://www.w3.org/2000/svg" ><path d="M646.208 188.16c45.056 0 67.584 22.528 67.584 67.648 0 45.056-22.528 67.584-67.584 67.584H382.208c-45.12 0-67.648-22.528-67.648-67.584 0-45.12 22.528-67.648 67.648-67.648h264zM382.208 367.04h264c45.056 0 67.584 22.592 67.584 67.648 0 45.12-22.528 67.648-67.584 67.648H382.208c-45.12 0-67.648-22.528-67.648-67.648 0-45.056 22.528-67.648 67.648-67.648zM537.28 681.216a679.808 679.808 0 0 0 28.544-43.52 61.12 61.12 0 0 0 3.712-7.04 54.144 54.144 0 0 0 3.776-15.36 30.4 30.4 0 0 0-8.128-24.32 31.68 31.68 0 0 0-37.952-5.824l-0.256 0.064-21.44 11.392a62.976 62.976 0 0 0-48.128-15.104c-20.672 1.792-40.448 11.776-55.36 22.912a356.288 356.288 0 0 0-16.192 13.12c-17.28 14.72-34.048 28.8-62.464 33.152a67.648 67.648 0 0 1 56.576-104.704h264a67.648 67.648 0 1 1 0 135.232H537.344z" fill="#95CCEC" p-id="5289"></path><path d="M273.088 266.688l-48-50.176v33.92a101.44 101.44 0 0 0 4.352 202.816 16.384 16.384 0 1 0 0-32.768 68.736 68.736 0 0 1-4.352-137.28v33.664l48-50.176z m525.824 390.528v-33.92a101.44 101.44 0 0 0-4.352-202.816 16.384 16.384 0 0 0 0 32.768 68.736 68.736 0 0 1 4.352 137.28v-33.664l-48 50.176 48 50.176z m-262.912-54.528l-34.88 18.56c-21.824-32.768-61.12-20.736-87.296-1.088-4.608 3.456-9.216 7.36-14.016 11.456-22.592 19.2-49.856 42.496-103.808 39.808-39.232-1.92-45.824-39.296-34.88-64.384 10.88-25.088 16.32-49.088 9.792-56.704-4.544-5.312-21.76 7.296-32.896 15.488a45.696 45.696 0 0 1-9.6 6.336c-1.152 0-5.952-2.56-12.48-5.952-13.12-6.912-33.024-17.28-43.2-18.048-8.96-0.64-10.88 34.816 8.704 53.44 21.824 20.736 25.088 26.24 33.856 80.704 10.752 67.328 88.32 97.088 88.32 97.088s3.264-15.616 5.504-21.76l6.528 1.088c-1.088 12.736-6.464 30.144-11.136 45.184-4.928 15.808-8.96 28.928-6.336 31.168 5.248 4.352 38.208-9.856 55.68-26.24 22.528-21.12 33.024-47.232 38.144-61.056h5.44s-4.352 20.736-11.968 30.528c21.76-7.616 56.704-24 86.144-50.176 37.12-32.896 77.952-100.416 79.68-104.704 2.176-5.44 4.352-14.208 0-18.56-5.504-5.44-10.88-4.352-15.296-2.176z m-79.616 45.824c0 6.016-4.416 10.88-9.856 10.88-5.376 0-9.792-4.864-9.792-10.88 0-6.016 4.416-10.88 9.792-10.88 5.44 0 9.856 4.864 9.856 10.88z m11.008 141.632a43.392 43.392 0 0 0-1.216-16.192c-3.264-9.792-9.792-22.912-9.792-22.912-0.192 0-1.024 0.768-2.304 1.92-2.88 2.56-8.064 7.36-14.08 11.2-8.32 5.312-18.56 8.704-18.56 8.704l24 14.208 12.928 7.488c3.84 2.24 8.704 0 9.024-4.48z m-15.36-145.984c0 2.368-1.472 4.352-3.328 4.352-1.792 0-3.2-1.92-3.2-4.352 0-2.432 1.408-4.352 3.2-4.352 1.856 0 3.264 1.92 3.264 4.352z" fill="#4396DA" p-id="5290"></path></svg>