<svg t="1724423120100" class="icon" viewBox="0 0 1024 1024" version="1.1" xmlns="http://www.w3.org/2000/svg" ><path d="M695.4496 558.250667H337.851733c-48.503467 0-88.183467 39.68-88.183466 88.183466 0 18.3296 5.666133 35.396267 15.342933 49.544534a112.093867 112.093867 0 0 0 20.48-6.894934l0.5632-0.256 0.580267-0.221866c22.766933-8.635733 49.4592-28.125867 65.416533-39.7824 3.925333-2.8672 7.304533-5.341867 9.949867-7.150934 2.577067-1.809067 5.376-3.925333 8.328533-6.161066 13.824-10.478933 32.750933-24.849067 59.392-28.228267 5.2224-0.648533 10.3936-0.989867 15.394133-0.989867 23.637333 0 43.8272 7.338667 57.975467 20.616534 4.181333-2.2016 8.482133-4.5568 12.561067-6.792534 6.178133-3.3792 11.997867-6.5536 17.152-9.147733a39.799467 39.799467 0 0 1 17.92-4.113067c14.967467 0 28.398933 7.543467 35.054933 19.694934 4.369067 7.970133 9.4208 24.866133-5.717333 48.5376-2.935467 4.5568-6.007467 9.6256-9.2672 15.018666-7.799467 12.868267-16.861867 27.784533-29.115734 44.509867h153.787734c48.503467 0 88.183467-39.68 88.183466-88.183467 0-48.503467-39.697067-88.183467-88.200533-88.183466zM132.096 437.725867h22.545067a22.016 22.016 0 0 0 22.545066-22.562134 22.016 22.016 0 0 0-22.545066-22.545066H132.096a86.613333 86.613333 0 0 1-86.9888-86.9888 86.5792 86.5792 0 0 1 83.7632-86.903467v48.247467l64.426667-64.426667-64.426667-67.6864v38.741333C59.374933 175.342933 0 232.6528 0 305.629867c0 74.103467 57.992533 132.096 132.096 132.096zM891.904 399.0528h-22.545067a22.016 22.016 0 0 0-22.545066 22.562133 22.016 22.016 0 0 0 22.545066 22.545067h22.545067a86.613333 86.613333 0 0 1 86.9888 86.9888 86.5792 86.5792 0 0 1-83.7632 86.903467v-48.247467l-64.426667 64.426667 64.426667 67.652266v-38.741333c69.495467-1.706667 128.8704-59.016533 128.8704-131.976533 0-74.103467-57.992533-132.113067-132.096-132.113067zM695.4496 326.519467H337.851733c-48.503467 0-88.183467 39.68-88.183466 88.183466s39.68 88.183467 88.183466 88.183467h357.597867c48.503467 0 88.183467-39.68 88.183467-88.183467s-39.68-88.183467-88.183467-88.183466zM695.4496 94.788267H337.851733c-48.503467 0-88.183467 39.68-88.183466 88.183466 0 48.503467 39.68 88.183467 88.183466 88.183467h357.597867c48.503467 0 88.183467-39.68 88.183467-88.183467 0.017067-48.4864-39.68-88.183467-88.183467-88.183466z" fill="#707070" p-id="4579"></path><path d="M454.161067 859.579733c5.341867 30.208-9.437867 21.9136-20.821334 14.557867-7.253333-4.829867-26.9824-15.872-40.209066-23.125333a376.2688 376.2688 0 0 0 47.633066-29.678934c6.144 11.946667 11.144533 24.951467 13.397334 38.2464z m-26.1632-180.1728a4.778667 4.778667 0 1 0 0 9.5232 4.778667 4.778667 0 0 0 0-9.5232z m133.905066-15.957333c-19.387733 30.139733-40.840533 75.195733-106.376533 132.1472-15.018667 12.834133-43.895467 33.774933-74.154667 48.3328-10.410667 5.0688-23.005867 9.437867-36.8128 12.5952 8.226133-13.806933 13.9264-27.835733 16.110934-41.301333l-7.0144-1.092267c-15.991467 52.343467-55.3984 96.068267-104.925867 112.298667-29.3376 9.608533-23.6544-7.714133-18.176-21.179734 4.1472-10.018133 15.872-54.3744 21.4528-76.049066l-8.8576-2.184534s-0.853333 3.908267-2.423467 9.949867c-1.211733 4.898133-2.816 11.042133-4.488533 17.834667-28.296533-8.106667-55.4496-23.005867-77.2608-47.342934-31.232-34.986667-45.1584-70.997333-50.517333-132.1472-1.501867-16.452267-18.176-31.232-37.563734-52.701866-22.493867-24.968533-22.272-61.781333-9.659733-64.426667 10.1888-2.013867 56.951467 20.48 74.615467 31.761067 17.783467-14.3872 46.711467-35.3792 55.3472-28.928 6.5024 4.949333 8.8064 27.4944-8.635734 61.781333-35.498667 69.905067 13.4656 90.7776 24.7296 93.5424 21.4528 5.290667 52.5824 7.816533 86.9888-7.543467 31.232-11.844267 66.389333-39.9872 80.0768-49.425066 15.3088-10.7008 32.221867-27.392 58.043734-30.6688 29.7984-3.7376 53.9136 5.461333 64.546133 25.1904 13.226667-5.5808 32.512-17.083733 45.568-23.637334 12.202667-6.161067 38.6048 3.1744 19.387733 33.194667z m-124.757333 24.763733a12.765867 12.765867 0 1 0-25.531733 0 12.765867 12.765867 0 0 0 25.531733 0z" fill="#707070" p-id="4580"></path></svg>