<svg  viewBox="0 0 1024 1024" version="1.1" xmlns="http://www.w3.org/2000/svg" ><path d="M560.725333 469.248v84.181333c0 36.522667-3.882667 68.053333-11.690666 94.549334-7.808 26.282667-19.029333 47.914667-33.706667 64.853333a133.12 133.12 0 0 1-51.797333 37.034667c-20.053333 8.021333-42.325333 12.032-66.816 12.032-19.626667 0-37.888-2.432-54.784-7.338667a137.813333 137.813333 0 0 1-45.781334-23.722667 150.698667 150.698667 0 0 1-34.730666-40.405333 207.36 207.36 0 0 1-22.058667-58.794667 357.461333 357.461333 0 0 1-7.68-78.208v-84.181333c0-36.522667 3.882667-67.84 11.690667-93.866667 8.021333-26.282667 19.242667-47.786667 33.706666-64.469333a132.778667 132.778667 0 0 1 52.138667-36.778667c20.053333-7.978667 42.325333-11.989333 66.816-11.989333 19.626667 0 37.76 2.56 54.442667 7.68 16.938667 4.864 32.213333 12.586667 45.781333 23.04 13.610667 10.453333 25.173333 23.936 34.730667 40.405333 9.6 16.256 16.938667 35.754667 22.058666 58.453334 5.12 22.528 7.68 48.341333 7.68 77.525333z m-96.554666 96.853333v-109.866666c0-17.621333-0.981333-32.981333-2.986667-46.08a135.253333 135.253333 0 0 0-8.362667-33.450667 70.570667 70.570667 0 0 0-14.037333-22.698667 51.114667 51.114667 0 0 0-19.029333-12.714666 67.114667 67.114667 0 0 0-23.722667-4.010667c-10.922667 0-20.608 2.133333-29.056 6.4-8.234667 4.181333-15.274667 10.965333-21.034667 20.352-5.802667 9.130667-10.24 21.333333-13.397333 36.736a301.013333 301.013333 0 0 0-4.309333 55.466667v109.909333c0 17.578667 0.853333 33.066667 2.645333 46.421333 2.005333 13.397333 4.906667 24.832 8.704 34.432 4.010667 9.344 8.661333 17.066667 14.037333 23.04 5.546667 5.802667 11.904 10.026667 19.029334 12.714667 7.338667 2.645333 15.36 4.010667 24.064 4.010667 10.666667 0 20.138667-2.133333 28.373333-6.4a55.893333 55.893333 0 0 0 21.376-20.693334c6.016-9.557333 10.496-22.058667 13.397333-37.418666 2.858667-15.36 4.309333-34.048 4.309334-56.106667zM938.666667 469.248v84.181333c0 36.522667-3.925333 68.053333-11.690667 94.549334-7.808 26.282667-19.072 47.914667-33.749333 64.853333a133.12 133.12 0 0 1-51.797334 37.034667c-20.053333 8.021333-42.325333 12.032-66.816 12.032-19.626667 0-37.845333-2.432-54.784-7.338667a137.813333 137.813333 0 0 1-45.781333-23.722667 150.741333 150.741333 0 0 1-34.730667-40.405333 207.36 207.36 0 0 1-22.058666-58.794667 357.376 357.376 0 0 1-7.68-78.208v-84.181333c0-36.522667 3.882667-67.84 11.690666-93.866667 8.021333-26.282667 19.285333-47.786667 33.749334-64.469333a132.778667 132.778667 0 0 1 52.096-36.778667c20.053333-7.978667 42.325333-11.989333 66.858666-11.989333 19.584 0 37.717333 2.56 54.442667 7.68 16.896 4.864 32.170667 12.586667 45.738667 23.04 13.610667 10.453333 25.173333 23.936 34.773333 40.405333 9.557333 16.256 16.896 35.754667 22.058667 58.453334 5.12 22.528 7.68 48.341333 7.68 77.525333z m-96.554667 96.853333v-109.866666c0-17.621333-1.024-32.981333-2.986667-46.08a135.253333 135.253333 0 0 0-8.362666-33.450667 70.485333 70.485333 0 0 0-14.08-22.698667 51.114667 51.114667 0 0 0-19.029334-12.714666 67.072 67.072 0 0 0-23.68-4.010667c-10.922667 0-20.608 2.133333-29.098666 6.4-8.234667 4.181333-15.232 10.965333-21.034667 20.352-5.802667 9.130667-10.24 21.333333-13.354667 36.736a300.842667 300.842667 0 0 0-4.352 55.466667v109.909333c0 17.578667 0.853333 33.066667 2.688 46.421333 2.005333 13.397333 4.864 24.832 8.661334 34.432 4.010667 9.344 8.704 17.066667 14.08 23.04 5.546667 5.802667 11.861333 10.026667 18.986666 12.714667 7.381333 2.645333 15.36 4.010667 24.064 4.010667 10.666667 0 20.181333-2.133333 28.416-6.4 8.448-4.437333 15.573333-11.306667 21.333334-20.693334 6.058667-9.557333 10.496-22.058667 13.397333-37.418666s4.352-34.048 4.352-56.106667zM134.101333 761.898667a48.768 48.768 0 1 0 0-97.493334 48.768 48.768 0 0 0 0 97.493334z"  fill="#515151"></path></svg>