<svg  class="icon" viewBox="0 0 1024 1024" version="1.1" xmlns="http://www.w3.org/2000/svg" ><path d="M272.426667 208.085333c17.066667 4.266667 29.056 19.626667 29.056 37.248v533.333334a38.4 38.4 0 1 1-76.8 0V398.762667a38.4 38.4 0 0 1-66.56-38.186667l71.082666-133.333333a38.4 38.4 0 0 1 43.221334-19.2zM366.933333 245.333333a38.4 38.4 0 0 1 38.4-38.4H512c30.037333 0 49.365333 21.76 59.008 39.850667 10.282667 19.285333 14.933333 42.752 14.933333 65.194667v133.333333c0 22.442667-4.650667 45.952-14.933333 65.237333-9.642667 18.048-29.013333 39.850667-59.008 39.850667h-62.805333a67.157333 67.157333 0 0 0-5.461334 28.245333v133.333334c0 12.373333 2.56 22.4 5.461334 28.288h98.346666a38.4 38.4 0 1 1 0 76.8h-106.666666c-30.037333 0-49.365333-21.76-59.008-39.850667-10.282667-19.285333-14.933333-42.794667-14.933334-65.237333v-133.333334c0-22.442667 4.650667-45.909333 14.933334-65.194666 9.642667-18.090667 29.013333-39.850667 59.008-39.850667h62.805333c2.858667-5.888 5.461333-15.957333 5.461333-28.288V311.978667c0-12.330667-2.56-22.4-5.461333-28.245334H405.333333a38.4 38.4 0 0 1-38.4-38.4zM651.392 245.333333a38.4 38.4 0 0 1 38.4-38.4h88.874667c34.730667 0 58.624 25.258667 71.594666 49.621334 13.610667 25.514667 20.138667 57.472 20.138667 88.746666v66.688c0 31.274667-6.528 63.232-20.138667 88.746667a122.88 122.88 0 0 1-6.784 11.264c2.517333 3.669333 4.778667 7.466667 6.784 11.221333 13.610667 25.514667 20.138667 57.472 20.138667 88.746667v66.688c0 31.274667-6.528 63.232-20.138667 88.746667-12.970667 24.362667-36.864 49.664-71.594666 49.664h-88.917334a38.4 38.4 0 1 1 0-76.8h86.314667a33.322667 33.322667 0 0 0 6.4-8.96c6.4-11.989333 11.093333-30.890667 11.093333-52.650667v-66.688c0-21.76-4.693333-40.661333-11.093333-52.608a33.322667 33.322667 0 0 0-6.4-8.96h-50.773333a38.4 38.4 0 1 1 0-76.8h50.773333a33.322667 33.322667 0 0 0 6.4-8.96c6.4-11.989333 11.093333-30.890667 11.093333-52.650667V345.301333c0-21.76-4.693333-40.661333-11.093333-52.608a33.28 33.28 0 0 0-6.4-8.96h-86.314667a38.4 38.4 0 0 1-38.4-38.4z"  fill="#515151"></path></svg>