<svg   viewBox="0 0 1024 1024" version="1.1" xmlns="http://www.w3.org/2000/svg" ><path d="M1023.085714 365.6c-0.342857-93.828571-76.457143-169.828571-170.4-169.828571H585.028571l24.685715 97.371428 229.714285 49.942857a48.662857 48.662857 0 0 1 37.6 45.371429c0.114286 0.571429 0.114286 246.971429 0 247.542857a48.662857 48.662857 0 0 1-37.6 45.371429l-229.714285 49.942857-24.685715 97.485714h267.657143c93.828571 0 170.057143-76 170.4-169.828571V365.6zM184.571429 681.6a48.662857 48.662857 0 0 1-37.6-45.371429c-0.114286-0.685714-0.114286-246.971429 0-247.542857 0.914286-22.171429 16.685714-40.571429 37.6-45.371428l229.714285-49.942857 24.685715-97.371429H171.2c-93.828571 0-170.057143 75.885714-170.4 169.828571V659.428571c0.342857 93.828571 76.571429 169.828571 170.4 169.828572H438.857143l-24.685714-97.485714-229.6-50.171429z m229.6-181.485714h195.428571v24.342857h-195.428571z" p-id="4963"></path></svg>