<svg  class="icon" viewBox="0 0 1024 1024" version="1.1" xmlns="http://www.w3.org/2000/svg" ><path d="M106.6496 378.0096l384 221.8496a42.6496 42.6496 0 0 0 42.7008 0l384-221.8496a42.7008 42.7008 0 0 0 0-73.7792l-384-221.44a42.6496 42.6496 0 0 0-42.7008 0l-384 221.44a42.6496 42.6496 0 0 0 0 73.7792zM512 170.6496l298.6496 170.7008L512 512 213.3504 341.3504 512 170.6496z m362.6496 476.6208L512 853.2992l-362.6496-207.7696a42.752 42.752 0 0 0-58.4704 15.7696 42.6496 42.6496 0 0 0 15.7696 58.0608l384 221.8496a42.7008 42.7008 0 0 0 42.7008 0l384-221.8496a42.7008 42.7008 0 1 0-42.7008-73.8304v1.7408z" fill="#8a8a8a" ></path><path d="M469.3504 597.2992a42.6496 42.6496 0 0 1 85.2992 0v256a42.6496 42.6496 0 1 1-85.2992 0v-256zM853.3504 341.3504a42.6496 42.6496 0 1 1 85.2992 0v341.2992a42.6496 42.6496 0 0 1-85.2992 0V341.3504zM85.3504 341.3504a42.6496 42.6496 0 1 1 85.2992 0v341.2992a42.6496 42.6496 0 0 1-85.2992 0V341.3504z" fill="#8a8a8a" ></path></svg>