<svg  class="icon" viewBox="0 0 1024 1024" version="1.1" xmlns="http://www.w3.org/2000/svg" ><path d="M512 170.666667a341.333333 341.333333 0 1 0 0 682.666666 341.333333 341.333333 0 0 0 0-682.666666z m0-85.333334c235.648 0 426.666667 191.018667 426.666667 426.666667s-191.018667 426.666667-426.666667 426.666667S85.333333 747.648 85.333333 512 276.352 85.333333 512 85.333333z m191.573333 385.706667l-0.256 0.597333c-17.92 38.314667-64.682667 113.493333-64.682666 113.493334l-0.213334-0.512-13.653333 23.808h65.834667l-125.781334 167.210666 28.586667-113.749333h-51.84l18.005333-75.221333c-14.549333 3.498667-31.786667 8.32-52.181333 14.890666 0 0-27.562667 16.128-79.445333-31.104 0 0-34.986667-30.805333-14.677334-38.485333 8.618667-3.285333 41.856-7.466667 68.053334-10.965333a3422.037333 3422.037333 0 0 1 57.088-7.338667s-109.013333 1.664-134.869334-2.432c-25.856-4.053333-58.666667-47.232-65.664-85.162667 0 0-10.794667-20.821333 23.253334-10.965333 34.048 9.856 174.976 38.4 174.976 38.4S352.853333 397.312 340.608 383.573333c-12.202667-13.653333-35.882667-74.837333-32.810667-112.384 0 0 1.322667-9.386667 10.965334-6.826666 0 0 135.509333 61.866667 228.138666 95.786666 92.672 33.92 173.226667 51.157333 162.816 95.061334-0.853333 3.712-3.072 9.216-6.144 15.786666z" p-id="11492"></path></svg>