<svg  class="icon" viewBox="0 0 1024 1024" version="1.1" xmlns="http://www.w3.org/2000/svg" p-id="15327" ><path d="M876 816.533333h-72.533333v65.066667c0 24-19.2 43.2-43.2 43.2s-43.2-19.2-43.2-43.2v-65.066667H268c-24 0-43.2-19.2-43.2-43.2s19.2-43.2 43.2-43.2h448.533333V381.866667c0-24 19.2-43.2 43.2-43.2s43.2 19.2 43.2 43.2v348.266666H875.466667c24 0 43.2 19.2 43.2 43.2 1.066667 24-18.666667 43.2-42.666667 43.2z m-361.6-137.066666c-24 0-43.2-19.2-43.2-43.2V446.933333h-80c-24 0-43.2-19.2-43.2-43.2s19.2-43.2 43.2-43.2h245.866667c24 0 43.2 19.2 43.2 43.2s-19.2 43.2-43.2 43.2h-79.466667v189.333334c0 23.466667-19.2 43.2-43.2 43.2z m245.866667-377.066667H297.333333v362.666667c0 24-19.2 43.2-43.2 43.2s-43.2-19.2-43.2-43.2v-362.666667h-58.666666c-24 0-43.2-19.2-43.2-43.2s19.2-43.2 43.2-43.2h58.133333V157.866667c0-24 19.2-43.2 43.2-43.2s43.2 19.2 43.2 43.2v57.6h463.466667c24 0 43.2 19.2 43.2 43.2 0.533333 24-19.2 43.733333-43.2 43.733333z m0 0" p-id="15328" fill="#8a8a8a"></path></svg>