<svg viewBox="0 0 1024 1024" version="1.1" xmlns="http://www.w3.org/2000/svg" ><path d="M317.793103 0H0v317.793103h70.62069V70.62069h247.172413zM1024 317.793103V0H706.206897v70.62069h247.172413v247.172413zM706.206897 1024h317.793103V706.206897h-70.62069v247.172413H706.206897zM0 706.206897v317.793103h317.793103v-70.62069H70.62069V706.206897z" fill="#7383BF" p-id="15030"></path><path d="M512 70.62069c-77.682759 0-141.241379 63.558621-141.241379 141.241379v211.862069a35.310345 35.310345 0 0 0 70.620689 0V211.862069c0-38.94731 31.673379-70.62069 70.62069-70.62069s70.62069 31.673379 70.62069 70.62069v211.862069a35.310345 35.310345 0 0 0 70.620689 0V211.862069c0-77.682759-63.558621-141.241379-141.241379-141.241379zM617.931034 564.965517a35.310345 35.310345 0 0 0-35.310344 35.310345v211.862069c0 38.94731-31.673379 70.62069-70.62069 70.62069s-70.62069-31.673379-70.62069-70.62069V600.275862a35.310345 35.310345 0 0 0-70.620689 0v211.862069c0 77.682759 63.558621 141.241379 141.241379 141.241379s141.241379-63.558621 141.241379-141.241379V600.275862a35.310345 35.310345 0 0 0-35.310345-35.310345z" fill="#26B99A" p-id="15031"></path><path d="M741.517241 459.034483a17.637517 17.637517 0 0 1-12.482207-30.13738l74.893242-74.893241a17.637517 17.637517 0 1 1 24.964414 24.964414l-74.893242 74.893241A17.602207 17.602207 0 0 1 741.517241 459.034483zM865.103448 529.655172h-105.931034a17.655172 17.655172 0 1 1 0-35.310344h105.931034a17.655172 17.655172 0 1 1 0 35.310344zM816.410483 675.169103a17.602207 17.602207 0 0 1-12.482207-5.172965l-74.893242-74.893241a17.637517 17.637517 0 1 1 24.964414-24.964414l74.893242 74.893241a17.637517 17.637517 0 0 1-12.482207 30.137379zM207.589517 675.169103a17.637517 17.637517 0 0 1-12.482207-30.137379l74.893242-74.893241a17.637517 17.637517 0 1 1 24.964414 24.964414l-74.893242 74.893241a17.531586 17.531586 0 0 1-12.482207 5.172965zM264.827586 529.655172H158.896552a17.655172 17.655172 0 1 1 0-35.310344h105.931034a17.655172 17.655172 0 1 1 0 35.310344zM282.482759 459.034483a17.602207 17.602207 0 0 1-12.482207-5.172966l-74.893242-74.893241a17.637517 17.637517 0 1 1 24.964414-24.964414l74.893242 74.893241A17.637517 17.637517 0 0 1 282.482759 459.034483z" fill="#7383BF" ></path></svg>