<svg t="1710738764358" class="icon" viewBox="0 0 1024 1024" version="1.1" xmlns="http://www.w3.org/2000/svg" p-id="4411"
     width="200" height="200">
    <path d="M0 0m170.666667 0l682.666666 0q170.666667 0 170.666667 170.666667l0 682.666666q0 170.666667-170.666667 170.666667l-682.666666 0q-170.666667 0-170.666667-170.666667l0-682.666666q0-170.666667 170.666667-170.666667Z"
          fill="#FB648F" p-id="4412"></path>
    <path d="M330.666667 152.746667c12.117333-6.058667 24.32-4.053333 32.426666 6.101333l99.242667 99.370667h97.28l99.285333-99.413334a23.296 23.296 0 0 1 34.474667 0 23.338667 23.338667 0 0 1 0 34.517334l-58.794667 58.794666h129.706667c70.912 0 129.706667 56.746667 131.712 127.744v322.432c0 70.997333-58.752 129.792-129.706667 129.792h-16.213333a43.605333 43.605333 0 0 1-40.533333 40.533334c-24.32 2.048-44.544-16.213333-46.592-40.533334H363.093333c0 22.314667-20.266667 42.581333-42.538666 42.581334-22.314667 0-42.538667-18.261333-42.538667-42.581334H257.706667c-70.954667 0-129.706667-58.794667-129.706667-127.744V381.866667c0-70.997333 58.752-129.792 129.706667-129.792h129.706666L326.528 191.274667a23.338667 23.338667 0 0 1 0-34.474667c2.048-2.005333 2.048-4.053333 4.053333-4.053333z m427.52 174.421333H263.765333c-26.325333 0-48.64 22.272-48.64 48.64l2.048 328.533333c2.005333 26.368 22.272 48.64 48.64 48.64h494.421334c26.325333 0 46.592-20.266667 48.64-48.64l-2.048-328.533333c-2.005333-26.368-22.272-48.64-48.64-48.64z m-247.210667 271.701333c18.261333 20.309333 18.261333 42.581333 44.586667 42.581334 18.261333 0 30.421333-22.272 30.421333-22.272 2.005333-4.096 8.106667-8.106667 12.117333-8.106667 8.106667-2.048 14.208 4.010667 16.213334 12.16v4.053333c0 2.005333 0 6.058667-2.005334 8.106667-10.154667 22.314667-32.426667 36.48-58.752 38.528-16.213333 0-32.426667-8.106667-42.581333-20.266667-12.16 12.16-26.325333 20.266667-42.538667 20.266667a74.112 74.112 0 0 1-58.752-38.528c0-2.048-2.048-4.053333-2.048-8.106667 0-8.106667 6.101333-14.208 14.208-16.213333h2.005334c6.101333 0 10.154667 2.005333 12.16 8.106667 0 0 16.213333 22.272 30.378666 22.272 28.373333 0 28.373333-24.32 44.586667-42.581334z m-85.077333-160.170666l12.117333 60.8-162.090667 30.421333-12.16-60.8 162.133334-30.421333z m168.149333 0l162.133333 30.421333-12.16 60.8-162.133333-30.421333 12.16-60.8z"
          fill="#FC95B2" p-id="4413"></path>
    <path d="M127.658667 335.573333c6.741333-2.645333 7.381333-3.626667 7.381333 4.352 0 33.578667 0 66.986667 0.64 100.608 0.426667 17.450667 1.066667 34.901333 2.56 52.352 1.664 20.906667 4.181333 42.154667 6.272 63.402667 0 0.938667 0.64 1.706667 0.64 2.261333 8.021333-0.341333 15.786667-0.938667 23.594667-0.938666 33.024-0.768 65.450667 3.242667 96.426666 14.250666 15.146667 5.504 29.866667 11.733333 42.922667 20.693334 10.965333 7.381333 13.482667 16.512 7.594667 29.952-2.730667 8.192-9.045333 14.634667-16.853334 19.925333-18.346667 13.098667-37.248 24.490667-59.349333 31.146667a312.661333 312.661333 0 0 1-47.616 10.453333c-21.034667 2.816-42.496 4.138667-64 6.058667-4.394667 0.554667-8.618667 0-13.226667 0-2.133333 0-2.773333-0.938667-2.773333-2.858667-0.213333-8.533333-1.024-17.450667-1.664-26.368-1.066667-11.392-2.304-22.613333-3.797333-33.962667l-6.314667-47.274666c-2.133333-16.682667-4.608-33.194667-6.741333-49.706667-2.133333-16.341333-3.797333-32.426667-6.314667-48.64-2.944-18.346667-5.674667-36.608-8.832-55.381333a462.506667 462.506667 0 0 0-14.08-64.725334c-0.426667-0.938667 0.597333-2.816 1.237333-3.413333a4006.4 4006.4 0 0 0 62.293334-22.186667z m56.106666 265.002667l9.130667 57.557333c18.645333-12.074667 36.48-23.978667 54.528-35.669333-2.432-2.645333-51.925333-19.626667-63.658667-21.888zM441.173333 606.976c-1.152-10.922667-2.218667-22.442667-3.754666-33.408-1.536-15.104-3.285333-30.165333-4.821334-45.482667-1.536-13.952-2.176-27.733333-3.285333-41.685333-1.536-19.285333-3.285333-38.528-4.821333-57.770667l-3.285334-42.666666c-0.426667-5.290667-2.858667-6.613333-9.216-6.229334a918.613333 918.613333 0 0 1-22.741333 1.322667c-6.570667 0.554667-13.141333 1.322667-19.498667 1.877333 19.712 90.24 28.458667 180.650667 38.741334 270.293334 12.074667 0.981333 23.04 1.536 34.389333 2.474666 2.218667 0.384 3.285333 0 3.285333-1.877333l-1.066666-10.410667c-0.896-12.458667-2.432-24.533333-3.968-36.437333zM376.618667 616.234667c-1.365333-11.221333-2.56-22.272-3.882667-33.493334-1.365333-12.714667-2.56-25.6-4.266667-38.357333-0.981333-7.850667-2.346667-15.36-3.541333-22.826667-0.384-2.816-2.304-4.138667-5.418667-3.754666-5.461333 0.554667-11.306667 0.554667-16.981333 1.322666-7.765333 0.938667-15.573333 2.261333-23.765333 3.2 9.642667 48.384 19.541333 96.725333 29.610666 145.024a2700.8 2700.8 0 0 1 34.133334-4.138666c-0.426667-3.754667-1.024-7.466667-1.408-10.837334-1.536-12.373333-3.114667-24.32-4.48-36.138666zM496.725333 662.826667c-0.426667-18.773333-1.024-36.949333-1.450666-55.68-0.426667-23.125333 0-46.592 0-69.674667 0-5.12-0.426667-9.856-0.597334-14.976 0-2.261333-1.450667-4.181333-4.138666-4.181333a923.434667 923.434667 0 0 0-32.426667-0.554667 64.426667 64.426667 0 0 0-11.946667 1.28c0.426667 1.365333 0.426667 2.304 0.426667 3.242667 1.450667 15.914667 3.072 31.616 4.522667 47.146666 1.450667 15.189333 3.114667 30.72 4.522666 45.866667 1.706667 16.469333 3.114667 32.938667 4.778667 49.408 0 0.938667 1.621333 2.474667 2.688 2.474667 10.922667 0.341333 22.485333 0 34.005333 0-0.426667-2.133333-0.426667-3.413333-0.426666-4.352zM356.992 493.226667c-1.792-18.048-3.2-35.114667-4.821333-52.608-0.341333-2.261333-1.237333-3.413333-2.986667-3.413334-5.717333 0-11.605333 0-17.664 0.384 2.304 19.370667 4.437333 37.973333 6.784 57.173334 6.570667-0.597333 12.458667-0.768 18.688-1.536zM509.866667 502.357333v-49.194666c0-3.498667-1.621333-4.437333-5.12-4.437334h-20.352v56.533334c8.874667 0.426667 17.28 0.597333 25.472 0.981333v-3.84zM331.52 503.594667v-3.754667c-0.938667-9.813333-2.261333-19.2-3.242667-29.013333-0.554667-6.229333-1.28-12.245333-1.877333-18.688-0.426667-1.493333 0.384-3.754667-2.304-3.413334-6.058667 0.597333-11.946667 1.92-18.048 2.474667 3.413333 18.688 6.656 36.778667 10.069333 55.04l15.402667-2.645333zM471.637333 504.874667v-29.226667c0-7.68-0.469333-15.786667 0-23.466667 0-2.901333-1.194667-3.456-4.266666-3.456h-21.205334c1.92 20.010667 3.584 38.826667 5.461334 57.514667 6.442667-0.384 12.885333-0.768 20.053333-1.322667zM573.653333 335.573333c6.741333-2.645333 7.381333-3.626667 7.381334 4.352 0 33.621333 0 67.029333 0.64 100.693334 0.426667 17.408 1.024 34.901333 2.517333 52.352 1.706667 20.906667 4.224 42.154667 6.314667 63.445333 0 0.938667 0.64 1.706667 0.64 2.261333 7.978667-0.384 15.786667-0.938667 23.552-0.938666 33.024-0.768 65.450667 3.242667 96.426666 14.250666 15.146667 5.504 29.866667 11.776 42.922667 20.693334 10.922667 7.381333 13.44 16.512 7.338667 29.824-2.730667 8.106667-9.045333 14.592-16.810667 19.925333-18.346667 13.098667-37.248 24.490667-59.392 31.146667-15.488 4.693333-31.402667 8.192-47.530667 10.453333-21.077333 2.816-42.538667 4.138667-64 6.058667-4.394667 0.554667-8.618667 0-13.226666 0-2.133333 0-2.773333-0.938667-2.773334-2.858667-0.213333-8.533333-1.024-17.450667-1.706666-26.368a939.093333 939.093333 0 0 0-3.754667-34.005333l-6.314667-47.274667c-2.133333-16.725333-4.608-33.28-6.741333-49.749333-2.090667-16.341333-3.754667-32.469333-6.314667-48.64-2.944-18.389333-5.674667-36.650667-8.832-55.466667a463.061333 463.061333 0 0 0-14.08-64.725333c-0.213333-0.938667 0.853333-2.858667 1.450667-3.242667 20.864-7.168 41.472-14.592 62.293333-22.186667z m48.298667 265.002667c3.114667 19.2 6.144 38.4 9.130667 57.557333 18.688-12.074667 36.522667-23.978667 54.613333-35.669333-2.474667-2.645333-51.968-19.626667-63.744-21.888zM886.997333 606.976c-1.109333-10.922667-2.176-22.442667-3.712-33.408-1.536-15.104-3.285333-30.165333-4.821333-45.482667-1.536-13.952-2.218667-27.733333-3.285333-41.685333-1.536-19.285333-3.285333-38.528-4.821334-57.770667l-3.285333-42.666666c-0.426667-5.290667-2.858667-6.613333-9.216-6.229334-7.68 0.554667-15.104 0.938667-22.741333 1.322667-6.613333 0.554667-13.184 1.322667-19.498667 1.877333 19.712 90.24 28.458667 180.650667 38.741333 270.293334 12.074667 0.981333 22.997333 1.536 34.389334 2.474666 2.176 0.384 3.285333 0 3.285333-1.877333l-1.109333-10.410667c-0.853333-12.458667-2.389333-24.533333-3.925334-36.437333zM822.485333 616.234667c-1.365333-11.221333-2.56-22.272-3.882666-33.493334-1.365333-12.714667-2.56-25.6-4.266667-38.357333-0.981333-7.850667-2.346667-15.36-3.541333-22.826667-0.384-2.816-2.346667-4.138667-5.418667-3.754666-5.461333 0.554667-11.306667 0.554667-16.981333 1.322666-7.765333 0.938667-15.573333 2.261333-23.765334 3.2 9.642667 48.384 19.541333 96.725333 29.610667 145.024 11.349333-1.450667 22.741333-2.816 34.133333-4.138666-0.426667-3.754667-1.024-7.466667-1.408-10.837334-1.536-12.373333-3.114667-24.32-4.48-36.138666zM955.306667 662.826667c-0.426667-18.773333-1.024-36.949333-1.408-55.68-0.426667-23.125333 0-46.592 0-69.674667 0-5.12-0.426667-9.856-0.64-14.976 0-2.261333-1.450667-4.181333-4.138667-4.181333a923.434667 923.434667 0 0 0-32.384-0.554667 64.426667 64.426667 0 0 0-11.946667 1.28c0.426667 1.365333 0.426667 2.304 0.426667 3.242667 1.408 15.914667 3.072 31.616 4.522667 47.146666 1.450667 15.189333 3.072 30.72 4.522666 45.866667 1.664 16.469333 3.114667 32.938667 4.736 49.408 0 0.938667 1.664 2.474667 2.688 2.474667 10.922667 0.341333 22.485333 0 34.048 0-0.426667-2.133333-0.426667-3.413333-0.426666-4.352zM802.858667 493.226667c-1.792-18.048-3.2-35.114667-4.821334-52.608-0.341333-2.261333-1.237333-3.413333-2.986666-3.413334-5.717333 0-11.605333 0-17.664 0.384l6.741333 57.173334c6.613333-0.597333 12.501333-0.768 18.730667-1.536zM960 502.357333v-49.194666c0-3.498667-1.621333-4.437333-5.12-4.437334h-20.352v56.533334c8.874667 0.426667 17.28 0.597333 25.472 0.981333v-3.84zM777.386667 503.594667v-3.754667c-0.938667-9.813333-2.304-19.2-3.242667-29.013333-0.554667-6.229333-1.28-12.245333-1.92-18.688-0.341333-1.493333 0.426667-3.754667-2.261333-3.413334-6.101333 0.597333-11.946667 1.92-18.048 2.474667 3.413333 18.688 6.656 36.778667 10.069333 55.04l15.36-2.645333zM925.994667 504.874667v-29.226667c0-7.68-0.512-15.786667 0-23.466667 0-2.901333-1.194667-3.456-4.266667-3.456h-21.248c1.92 20.010667 3.584 38.826667 5.504 57.514667 6.4-0.384 12.842667-0.768 20.010667-1.322667z"
          fill="#FFFFFF" p-id="4414"></path>
</svg>
