<svg   viewBox="0 0 1024 1024" version="1.1" xmlns="http://www.w3.org/2000/svg" ><path d="M1023.903168 10.186742L772.275139 282.130156a8.172634 8.172634 0 0 0-2.033475 7.088114c4.512378 21.490686-5.766355 43.3687-25.188463 53.615962-19.422109 10.246052-43.283972 6.377608-58.474515-9.479868L486.058667 533.83565l19.792491 264.835934 225.192851 225.231584L1023.903168 10.186742z" fill="#3388FF" p-id="14714"></path><path d="M1020.882005 17.042459L771.965277 286.042175a7.959603 7.959603 0 0 0-1.975376 7.088113c4.451858 21.26313-5.734884 42.900274-24.958487 53.018024-19.223603 10.11896-42.82644 6.26383-57.833003-9.443555L490.106251 533.738818a3.970118 3.970118 0 0 0-1.161986 3.098629l19.501995 260.207357 501.919773-757.227423 10.515972-22.813655v0.038733z" fill="#005DE0" p-id="14715"></path><path d="M1013.716426 0L741.773012 251.628028a8.153267 8.153267 0 0 1-7.088114 2.033476c-21.490686-4.512378-43.3687 5.766355-53.615962 25.188463-10.246052 19.422109-6.377608 43.283972 9.479868 58.474515L490.086884 537.844501 225.212217 518.052009 0 292.820426 1013.716426 0z" fill="#46EBD5" p-id="14716"></path><path d="M1006.860709 3.021163L737.860993 251.937891a7.940236 7.940236 0 0 1-7.088114 1.975376c-21.26313-4.451858-42.900274 5.734884-53.018023 24.958487-10.11896 19.223603-6.26383 42.82644 9.443555 57.833003L490.16435 533.796917a3.970118 3.970118 0 0 1-3.098629 1.161986l-260.207357-19.501995L984.066421 13.556501l22.813655-10.515971-0.019367-0.019367z" fill="#00D0B6" ></path></svg>