<svg  viewBox="0 0 1024 1024" version="1.1" xmlns="http://www.w3.org/2000/svg" ><path d="M919.253333 104.661333a42.666667 42.666667 0 0 1 10.794667 42.325334L688.64 963.328a42.666667 42.666667 0 0 1-71.082667 18.090667l-189.44-189.44a42.666667 42.666667 0 0 1-12.501333-30.378667l0.682667-155.306667-162.005334-4.608a42.666667 42.666667 0 0 1-28.970666-12.501333L44.373333 408.192A42.666667 42.666667 0 0 1 62.293333 337.066667l814.634667-243.114667a42.666667 42.666667 0 0 1 42.325333 10.666667zM155.306667 398.421333l118.4 118.442667 186.709333 5.290667a42.666667 42.666667 0 0 1 41.429333 42.837333l-0.768 179.2 126.122667 126.122667 198.698667-672L155.306667 398.378667z" p-id="15033"></path><path d="M587.434667 317.653333a85.333333 85.333333 0 1 0 120.661333 120.704 85.333333 85.333333 0 0 0-120.661333-120.704z" p-id="15034"></path><path d="M919.296 106.496a42.666667 42.666667 0 0 1 0 60.330667l-241.365333 241.365333a42.666667 42.666667 0 1 1-60.330667-60.330667l241.365333-241.365333a42.666667 42.666667 0 0 1 60.330667 0z" ></path></svg>