<svg  class="icon" viewBox="0 0 1024 1024" version="1.1" xmlns="http://www.w3.org/2000/svg" ><path d="M339.996444 584.988444c0-5.489778 4.494222-9.984 10.012445-9.984h44.003555c5.489778 0 9.984 4.494222 9.984 9.984v171.008h354.986667v-192.995555a247.011556 247.011556 0 0 0-493.994667 0v192.995555h75.008v-171.008z" fill="#E6F1F0" ></path><path d="M216.917333 310.499556l39.594667-39.594667a8.021333 8.021333 0 0 0 0-11.292445L188.615111 191.687111a8.021333 8.021333 0 0 0-11.292444 0L137.671111 231.310222a8.021333 8.021333 0 0 0 0 11.292445l67.925333 67.896889a8.021333 8.021333 0 0 0 11.292445 0z m669.582223-79.189334l-39.594667-39.623111a8.049778 8.049778 0 0 0-11.292445 0L767.715556 259.612444a8.021333 8.021333 0 0 0 0 11.292445l39.594666 39.594667a8.021333 8.021333 0 0 0 11.292445 0l67.896889-67.896889a8.021333 8.021333 0 0 0 0-11.292445z m-402.488889-51.313778h56.007111a8.021333 8.021333 0 0 0 7.992889-7.992888V76.003556a8.021333 8.021333 0 0 0-7.992889-7.992889h-56.007111a8.021333 8.021333 0 0 0-7.992889 7.964444v96.028445c0 4.408889 3.584 7.992889 7.992889 7.992888zM832.028444 892.017778H192c-17.720889 0-32.028444 14.307556-32.028444 32v24.007111c0 4.408889 3.612444 7.992889 8.021333 7.992889h687.985778a8.021333 8.021333 0 0 0 7.992889-7.964445v-24.035555c0-17.692444-14.279111-32-32-32zM192.995556 795.989333c0 17.720889 14.279111 32 32 32h574.008888c17.692444 0 31.971556-14.279111 31.971556-32v-232.988444c0-176.213333-142.791111-319.004444-319.004444-319.004445-176.184889 0-318.976 142.791111-318.976 319.004445v232.988444z m71.964444-232.988444a247.011556 247.011556 0 0 1 494.023111 0v192.995555h-354.986667v-171.008a10.040889 10.040889 0 0 0-10.012444-9.984h-44.003556a10.040889 10.040889 0 0 0-9.984 9.984v171.008H265.016889v-192.995555z" fill="#047466" ></path></svg>