<svg  class="icon" viewBox="0 0 1024 1024" version="1.1" xmlns="http://www.w3.org/2000/svg" ><path d="M147.428571 836.571429c0 20.228571 16.342857 36.571429 36.571429 36.571428h656c20.228571 0 36.571429-16.342857 36.571429-36.571428V570.285714c0-201.371429-163.2-364.571429-364.571429-364.571428S147.428571 368.914286 147.428571 570.285714v266.285715z m82.285715-266.285715c0-155.885714 126.4-282.285714 282.285714-282.285714s282.285714 126.4 282.285714 282.285714v220.571429H388.571429V595.428571c0-6.285714-5.142857-11.428571-11.428572-11.428571h-50.285714c-6.285714 0-11.428571 5.142857-11.428572 11.428571v195.428572h-85.714285V570.285714z m-54.971429-288.571428l45.257143-45.257143c3.542857-3.542857 3.542857-9.371429 0-12.914286l-77.6-77.6a9.177143 9.177143 0 0 0-12.914286 0l-45.257143 45.257143a9.177143 9.177143 0 0 0 0 12.914286l77.6 77.6c3.542857 3.542857 9.257143 3.542857 12.914286 0z m765.257143-90.514286l-45.257143-45.257143a9.177143 9.177143 0 0 0-12.914286 0l-77.6 77.6a9.177143 9.177143 0 0 0 0 12.914286l45.257143 45.257143c3.542857 3.542857 9.371429 3.542857 12.914286 0l77.6-77.6c3.542857-3.657143 3.542857-9.371429 0-12.914286zM877.714286 946.285714H146.285714c-20.228571 0-36.571429 16.342857-36.571428 36.571429v27.428571c0 5.028571 4.114286 9.142857 9.142857 9.142857h786.285714c5.028571 0 9.142857-4.114286 9.142857-9.142857v-27.428571c0-20.228571-16.342857-36.571429-36.571428-36.571429zM480 132.571429h64c5.028571 0 9.142857-4.114286 9.142857-9.142858V13.714286c0-5.028571-4.114286-9.142857-9.142857-9.142857h-64c-5.028571 0-9.142857 4.114286-9.142857 9.142857v109.714285c0 5.028571 4.114286 9.142857 9.142857 9.142858z" ></path></svg>