<svg  class="icon" viewBox="0 0 1024 1024" version="1.1" xmlns="http://www.w3.org/2000/svg" p-id="4900" width="200" height="200"><path d="M504.122624 274.176c-92.9792 38.7584-197.12 52.864-297.1648 43.5712-1.4592-0.128-2.2016-0.9216-2.2016-2.3808V247.6288c0-1.8688 0.9216-2.7392 2.7648-2.5344 94.9504 9.6256 186.3168-3.6864 274.1248-39.936 2.0992-0.8448 3.5072-0.2048 4.224 1.9712l20.48 62.3104a3.7888 3.7888 0 0 1-0.1792 2.7648 3.8912 3.8912 0 0 1-2.048 1.9712z" fill="#FFA006" p-id="4901"></path><path d="M777.505024 473.1904a642.7648 642.7648 0 0 0-147.4816 11.6736c-45.056 8.8832-104.0896 30.0544-145.024 41.4208-86.2208 24.0128-178.8928 32.512-277.9904 25.4976-1.5104-0.128-2.2528-0.9216-2.2528-2.432L204.807424 338.5856c0-2.304 1.152-3.3792 3.4048-3.2 92.2624 8.0128 178.2272-1.536 257.9456-28.672 117.8624-40.064 234.752-56.4224 350.592-49.0496 1.9712 0.128 2.944 1.152 2.944 3.1232l0.0512 210.8416c0 1.792-0.9216 2.688-2.7648 2.6624a2546.944 2546.944 0 0 1-39.4752-1.1008z" fill="#0181FE" p-id="4902"></path><path d="M818.132224 565.2736a560.2048 560.2048 0 0 0-275.5072 39.8848c-2.0992 0.8704-3.4816 0.256-4.1728-1.92l-20.6848-63.616A2.7392 2.7392 0 0 1 517.895424 537.6a2.6368 2.6368 0 0 1 1.4336-1.3312 642.944 642.944 0 0 1 298.112-44.032 2.5344 2.5344 0 0 1 1.6384 0.8192 2.6368 2.6368 0 0 1 0.6656 1.7664l0.128 68.8384a1.664 1.664 0 0 1-0.512 1.2032 1.536 1.536 0 0 1-0.5888 0.3328c-0.2048 0.0768-0.4352 0.1024-0.64 0.0768z" fill="#07C847" p-id="4903"></path><path d="M173.012224 744.2432c3.9936-26.9312 38.8352-46.9248 60.6464-22.656a1.8688 1.8688 0 0 0 1.8688 0.512 1.8432 1.8432 0 0 0 1.28-1.4336l5.12-31.4368a3.9168 3.9168 0 0 0-1.9712-4.2752c-32.1536-20.0448-76.8 8.448-90.7008 34.688-28.0832 53.0432 10.4192 112.3328 70.8096 84.9408a4.9664 4.9664 0 0 0 2.9952-3.9168l5.0432-29.8752c0.6144-3.6608-0.512-4.352-3.4048-2.048-25.1392 20.1216-56.704 9.5488-51.6864-24.4992zM950.023424 726.6816l1.4336-8.832a4.4032 4.4032 0 0 1 3.6608-3.712l62.464-10.8544c1.792-0.3072 2.816-1.3568 3.1232-3.1744l3.2512-18.56c0.3072-1.792-0.4608-2.7904-2.304-2.944-17.3056-1.28-34.2272 2.048-51.328 5.376-13.952 2.7136-28.032 5.4528-42.5472 5.7856-1.9968 0.0768-3.1744 1.1008-3.5328 3.072l-5.6576 33.6128c-0.4608 2.6368 0.64 3.9168 3.3024 3.8912l24.32-0.3584a3.9168 3.9168 0 0 0 3.84-3.3024zM856.250624 757.4016c-21.6064-9.6768-42.112-18.8416-24.0128-50.944 16.2304-28.8512 41.9072-35.1488 77.056-18.9696a2.9184 2.9184 0 0 1 1.664 3.1744 2.9952 2.9952 0 0 1-0.4608 1.2032l-13.9264 20.992a2.6368 2.6368 0 0 1-1.92 1.1776 2.6624 2.6624 0 0 1-2.1248-0.7168c-9.7536-9.088-19.6608-9.4208-29.696-0.9984a8.7296 8.7296 0 0 0 4.8896 15.4368c76.5696 6.1952 20.736 121.6-55.2448 71.6032a4.0704 4.0704 0 0 1-1.152-5.632l14.08-20.736a2.944 2.944 0 0 1 4.5824-0.384c11.2128 11.392 42.7008 18.0992 39.168-6.2976a5.632 5.632 0 0 0-3.2256-4.4544c-3.1744-1.536-6.4256-3.0208-9.6768-4.4544zM339.514624 730.9312l-56.8064-0.0512a2.1248 2.1248 0 0 1-2.048-1.6128 2.1504 2.1504 0 0 1-0.0256-0.9216l3.1744-16.5376a2.1248 2.1248 0 0 1 2.0736-1.7408H345.607424a2.1504 2.1504 0 0 0 2.0992-1.792l4.096-23.04a2.1504 2.1504 0 0 0-2.0736-2.5088l-90.8032-0.0512a2.1504 2.1504 0 0 0-2.0736 1.792l-20.736 120.6272a2.1504 2.1504 0 0 0 2.1248 2.4832l90.5472-0.3584a2.1504 2.1504 0 0 0 2.0992-1.7408l4.5056-23.5008a2.1504 2.1504 0 0 0-2.0736-2.56H274.439424a2.1248 2.1248 0 0 1-2.048-2.4832l2.9184-16.5888a2.1504 2.1504 0 0 1 2.0992-1.7152l57.5488-0.256a2.1248 2.1248 0 0 0 2.0736-1.7152l4.5824-23.1936a2.1248 2.1248 0 0 0-2.0992-2.5344zM554.631424 751.4368l11.52-67.328a1.9712 1.9712 0 0 1 1.9712-1.6128l27.3152 0.1024a1.9712 1.9712 0 0 1 1.92 2.304l-20.3008 120.448a1.9712 1.9712 0 0 1-1.8944 1.6896l-28.544 0.7424a1.9456 1.9456 0 0 1-1.8688-1.1008l-33.6384-68.992a1.9712 1.9712 0 0 0-3.6864 0.512l-11.1104 67.456a1.9712 1.9712 0 0 1-1.9456 1.664l-27.7504-0.0512a1.9456 1.9456 0 0 1-1.8944-2.304l20.6336-120.8576a1.9712 1.9712 0 0 1 1.9456-1.6896l28.8 0.3072a1.9712 1.9712 0 0 1 1.7152 1.0752l33.1264 68.1472a1.9712 1.9712 0 0 0 2.048 1.0752 1.9712 1.9712 0 0 0 1.6384-1.5872zM794.426624 745.8048l-48.9984 9.5744a1.792 1.792 0 0 1-2.0992-1.6384 1.792 1.792 0 0 1 0.2048-0.9472l15.0784-28.7744a1.792 1.792 0 0 1 3.4048 0.7424l1.024 16.7424a1.7408 1.7408 0 0 0 0.6656 1.28 1.792 1.792 0 0 0 1.3824 0.4096l28.0832-3.9936a1.792 1.792 0 0 0 1.5104-2.1248l-10.1888-52.0704a1.792 1.792 0 0 0-1.7152-1.4592l-32.3328-0.1792a1.792 1.792 0 0 0-1.6128 0.9472l-65.0752 120.96a1.792 1.792 0 0 0 0.0768 1.7408 1.8176 1.8176 0 0 0 1.536 0.8448l29.5424-0.2816a1.792 1.792 0 0 0 1.5616-0.9728l10.5728-20.864a1.792 1.792 0 0 1 1.28-0.9984l71.2704-13.5168a1.7664 1.7664 0 0 0 1.152-0.768 1.8176 1.8176 0 0 0 0.256-1.3824l-4.48-21.888a1.792 1.792 0 0 0-2.0992-1.3824z" fill="#151515" p-id="4904"></path><path d="M134.356224 719.0272a53.1968 53.1968 0 0 0-11.1104-21.4016c-10.624-12.3392-26.624-19.2-44.4416-19.0208-17.8432 0.1536-36.096 7.3216-50.688 19.8912a84.5056 84.5056 0 0 0-18.0736 21.6832 74.8288 74.8288 0 0 0-9.216 25.472c-1.3824 8.704-1.024 17.3568 1.0496 25.3696 2.0992 8.0384 5.888 15.3088 11.136 21.4272 10.5984 12.3392 26.5984 19.2 44.4416 19.0208 17.8432-0.1792 36.096-7.3216 50.688-19.8912 7.2448-6.2464 13.3888-13.6192 18.048-21.7088 4.6848-8.0896 7.808-16.7424 9.216-25.472 1.408-8.704 1.0496-17.3312-1.024-25.344z m-48.4608 51.84c1.408-1.0752 2.7648-2.2272 4.0704-3.4816 14.72-14.2592 16.9216-35.84 4.9152-48.2304-11.9808-12.3904-33.6384-10.8544-48.3584 3.4048-5.888 5.7088-9.7792 12.5696-11.52 19.584a32.5632 32.5632 0 0 0-0.6912 13.824c0.512 3.2512 1.536 6.3744 3.1488 9.216a26.5216 26.5216 0 0 0 11.3408 10.88c4.7104 2.3552 10.1888 3.4304 15.9488 3.0208 3.4304-0.256 6.8352-0.9984 10.1376-2.2016 3.84-1.3824 7.552-3.3792 11.008-6.016zM422.996224 785.2544l-41.1648-0.0512a2.3552 2.3552 0 0 0-2.0736 1.3312l-9.9328 19.5328a2.3808 2.3808 0 0 1-2.0992 1.28l-28.3136 0.1024a2.3552 2.3552 0 0 1-2.0736-3.5328l64.768-120.0896a2.3808 2.3808 0 0 1 2.1504-1.28l31.0272 0.1792a2.3552 2.3552 0 0 1 2.304 1.8944l23.6032 119.7056a2.4064 2.4064 0 0 1-0.512 1.9456 2.3552 2.3552 0 0 1-1.792 0.8704l-28.7488 0.3584a2.3552 2.3552 0 0 1-2.3552-2.0736l-2.432-18.176a2.3808 2.3808 0 0 0-2.3552-1.9968z m-29.2352-26.368c0-0.256 0.0512-0.5632 0.1792-0.8448l0.0256-0.0768 17.3568-33.2288a1.8432 1.8432 0 0 1 3.4048 0.5888l5.4272 33.1776a1.8688 1.8688 0 0 1-1.8432 2.1248l-22.656 0.0512a1.8432 1.8432 0 0 1-1.8944-1.792z" fill="#151515" p-id="4905"></path><path d="M937.197824 763.52a76.16 76.16 0 0 1-21.0944 0.9216c-2.1248-0.256-3.0208-1.408-2.7136-3.5328l2.5344-19.456c0.3328-2.4064 1.7408-3.6608 4.1472-3.7888 2.944-0.1024 5.8368-0.1024 8.704-0.128 8.576-0.0256 16.9472-0.0768 25.6-2.4576a260.096 260.096 0 0 1 58.5216-9.2416 3.328 3.328 0 0 1 3.3536 3.84l-3.584 18.9696c-0.3328 2.0224-1.536 3.1488-3.5328 3.4304-36.736 5.632-60.7232 9.472-71.936 11.4432z" fill="#151515" p-id="4906"></path><path d="M678.202624 742.2976c28.544 7.9872 13.8752 46.2336-2.432 56.9344-15.9488 10.4704-47.5136 9.3184-70.8608 8.4736l-10.4448-0.3328c-2.2784-0.0256-3.2256-1.1776-2.816-3.456l20.224-118.4256c0.2816-1.792 1.3568-2.7392 3.1488-2.7648a680.8064 680.8064 0 0 1 54.784 0.7936c32.8448 1.792 26.0352 39.296 7.6544 55.2704-1.9712 1.6384-1.7152 2.816 0.768 3.5072z m-39.808-28.16a12.8512 12.8512 0 0 1 0.9216-3.1744c1.536-3.4816 4.6336-4.8128 9.2416-3.968 10.3936 1.8688 14.4128 6.1952 12.032 12.928a29.824 29.824 0 0 1-0.9728 2.4064c-3.9424 8.6272-10.9312 11.5712-20.992 8.7552-1.9456-0.512-2.7392-1.792-2.3808-3.7376l2.1504-13.184z m-11.264 65.6128a1.6896 1.6896 0 0 0 0.256 1.28 1.792 1.792 0 0 0 1.1264 0.768c10.752 1.9456 20.6848 0.384 29.824-4.7104a10.496 10.496 0 0 0-2.1504-19.3024 49.0496 49.0496 0 0 0-21.3248-1.6128 4.352 4.352 0 0 0-3.9936 3.84l-3.7632 19.7376z" fill="#151515" p-id="4907"></path><path d="M945.671424 782.208c4.5056-0.896 9.2928-2.048 14.2592-3.2512 14.592-3.5072 30.8224-7.424 46.5664-6.0672 2.0736 0.2048 2.944 1.3056 2.5856 3.3536l-3.5072 20.5824c-0.3584 1.8944-1.4848 2.8416-3.4304 2.8928-15.104 0.1024-29.3888 2.8416-43.776 5.632-15.9232 3.0464-31.9488 6.1184-49.3312 5.632-2.304-0.0768-3.2768-1.2544-2.944-3.5328l5.376-33.1776a3.7632 3.7632 0 0 1 3.584-3.1744l25.7792-0.9216c1.8432-0.0768 2.6624 0.8192 2.432 2.6624l-0.8192 6.3488c-0.3072 2.5088 0.768 3.5072 3.2512 3.0208zM777.095424 807.8336l28.032-0.2816a2.4064 2.4064 0 0 0 1.8432-0.8704 2.4576 2.4576 0 0 0 0.512-1.9712l-4.352-22.7072a2.432 2.432 0 0 0-2.56-1.9712l-27.4688 2.56a2.432 2.432 0 0 0-2.2016 2.816l3.84 20.4032a2.432 2.432 0 0 0 2.3552 2.0224z" fill="#151515" p-id="4908"></path></svg>