<svg  class="icon" viewBox="0 0 1024 1024" version="1.1" xmlns="http://www.w3.org/2000/svg" p-id="5067" width="200" height="200"><path d="M962 297.6c-66.3-4-139.6 0.6-212 4-101.8 4.7-153.5 29.2-242.2 50.7-148.5 36-213.4 71.4-445.7 63.6v316.6c10.2 0.2 20.4 0.4 30.5 0.4 182.7 0 346.3-32.5 488.7-78.8 148-48.2 274.1-61.9 380.8-41V297.6z" fill="#2c2c2c" p-id="5068"></path><path d="M733.5 646.3c-67.7 10.4-134 30.4-215.2 65.6l37 98.4c144.4-63.2 243.2-77.8 406.7-60.8V644c-90.7-8.8-161-8-228.5 2.3zM477.3 213.7c-101.8 41.5-194.1 75.4-415.3 66v105.1c29.7 1.2 57.8 1.8 84.3 1.8 72.9 0 131.5-9.6 185.3-18.6 63.7-10.6 121.5-32 175.3-53.7l-29.6-100.6z" fill="#2c2c2c" p-id="5069"></path></svg>