<svg   viewBox="0 0 1024 1024" version="1.1" xmlns="http://www.w3.org/2000/svg" ><path d="M860.2 839.7H286.7c-22.5 0-41-18.4-41-41 0-22.5 18.4-41 41-41h573.4c22.5 0 41 18.4 41 41 0 22.5-18.4 41-40.9 41z" p-id="5827" fill="#515151"></path><path d="M102.4 839.7c-22.6 0-41-18.3-41-41V143.4c0-67.8 55.1-122.9 122.9-122.9h655.4c67.8 0 122.9 55.1 122.9 122.9v491.5c0 22.6-18.3 41-41 41s-41-18.3-41-41V143.4c0-22.6-18.4-41-41-41H184.3c-22.6 0-41 18.4-41 41v655.4c0.1 22.5-18.3 40.9-40.9 40.9z" p-id="5828" fill="#515151"></path><path d="M512 430.1c-22.5 0-41-18.4-41-41V102.4c0-22.5 18.4-41 41-41 22.5 0 41 18.4 41 41v286.7c0 22.5-18.5 41-41 41z m231.5 0c-22.5 0-41-18.4-41-41V102.4c0-22.5 18.4-41 41-41 22.5 0 41 18.4 41 41v286.7c0 22.5-18.5 41-41 41z"  fill="#515151"></path><path d="M656.8 302.3L540.9 418.1c-15.9 15.9-42 15.9-57.9 0-15.9-15.9-15.9-42 0-57.9l115.9-115.9c15.9-15.9 42-15.9 57.9 0 15.9 16 15.9 42.1 0 58z" p-id="5830" fill="#515151"></path><path d="M714.6 418.1L598.7 302.3c-15.9-15.9-15.9-42 0-57.9 15.9-15.9 42-15.9 57.9 0l115.9 115.9c15.9 15.9 15.9 42 0 57.9-15.9 15.9-42 15.9-57.9-0.1z m207 585.4H266.2c-112.9 0-204.8-91.9-204.8-204.8s91.9-204.8 204.8-204.8h655.4c22.6 0 41 18.3 41 41s-18.3 41-41 41H266.2c-67.8 0-122.9 55.1-122.9 122.9s55.1 122.9 122.9 122.9h655.4c22.6 0 41 18.3 41 41s-18.4 40.8-41 40.8z" p-id="5831" fill="#515151"></path></svg>