<svg  viewBox="0 0 1024 1024" version="1.1" xmlns="http://www.w3.org/2000/svg" ><path d="M341.333333 256H85.333333c-25.6 0-42.666667 17.066667-42.666666 42.666667s17.066667 42.666667 42.666666 42.666666h85.333334v448c0 25.6 17.066667 42.666667 42.666666 42.666667s42.666667-17.066667 42.666667-42.666667V341.333333h85.333333c25.6 0 42.666667-17.066667 42.666667-42.666666s-17.066667-42.666667-42.666667-42.666667zM512 85.333333c-25.6 0-42.666667 17.066667-42.666667 42.666667v768c0 25.6 17.066667 42.666667 42.666667 42.666667s42.666667-17.066667 42.666667-42.666667V128c0-25.6-17.066667-42.666667-42.666667-42.666667zM938.666667 469.333333h-170.666667V341.333333h170.666667c25.6 0 42.666667-17.066667 42.666666-42.666666s-17.066667-42.666667-42.666666-42.666667h-213.333334c-25.6 0-42.666667 17.066667-42.666666 42.666667v490.666666c0 25.6 17.066667 42.666667 42.666666 42.666667s42.666667-17.066667 42.666667-42.666667V554.666667h170.666667c25.6 0 42.666667-17.066667 42.666666-42.666667s-17.066667-42.666667-42.666666-42.666667z" fill="#515151" ></path></svg>