<svg  class="icon" viewBox="0 0 1024 1024" version="1.1" xmlns="http://www.w3.org/2000/svg" ><path d="M192 469.333333H106.666667v-85.333333H42.666667v256h64v-106.666667h85.333333v106.666667h64V384H192v85.333333z m106.666667-21.333333h64v192h64v-192h64v-64h-192v64z m234.666666 0h64v192h64v-192h64v-64h-192v64z m384-64h-149.333333v256h64v-85.333333h85.333333c36.266667 0 64-27.733333 64-64v-42.666667c0-36.266667-27.733333-64-64-64z m0 106.666667h-85.333333v-42.666667h85.333333v42.666667z" fill="#4e6ef2" ></path></svg>