<svg  class="icon" viewBox="0 0 1038 1024" version="1.1" xmlns="http://www.w3.org/2000/svg" p-id="12542" ><path d="M197.282498 1024c-108.816873 0-197.282498-88.465626-197.282498-197.282498s88.465626-197.282498 197.282498-197.282499 197.282498 88.465626 197.282499 197.282499-88.465626 197.282498-197.282499 197.282498z m0-332.265261c-74.344352 0-134.982762 60.63841-134.982762 134.982763s60.63841 134.982762 134.982762 134.982762 134.982762-60.63841 134.982763-134.982762-60.63841-134.982762-134.982763-134.982763zM841.046441 1024c-108.816873 0-197.282498-88.465626-197.282499-197.282498s88.465626-197.282498 197.282499-197.282499 197.282498 88.465626 197.282498 197.282499-88.465626 197.282498-197.282498 197.282498z m0-332.265261c-74.344352 0-134.982762 60.63841-134.982762 134.982763s60.63841 134.982762 134.982762 134.982762 134.982762-60.63841 134.982762-134.982762-60.63841-134.982762-134.982762-134.982763z" p-id="12543" fill="#707070"></path><path d="M992.946662-12.826581m22.026283 22.026283l0 0q22.026283 22.026283 0 44.052566l-675.472679 675.472679q-22.026283 22.026283-44.052566 0l0 0q-22.026283-22.026283 0-44.052566l675.472679-675.472679q22.026283-22.026283 44.052566 0Z" p-id="12544" fill="#707070"></path><path d="M766.911192 706.715868m-22.026283 22.026283l0 0q-22.026283 22.026283-44.052566 0l-675.47268-675.472679q-22.026283-22.026283 0-44.052566l0 0q22.026283-22.026283 44.052566 0l675.47268 675.472679q22.026283 22.026283 0 44.052566Z" p-id="12545" fill="#707070"></path></svg>