<svg t="1711279873446" class="icon" viewBox="0 0 1024 1024" version="1.1" xmlns="http://www.w3.org/2000/svg" p-id="6308" width="200" height="200"><path d="M875.52 1024H46.08c-25.088 0-46.08-20.992-46.08-46.08V148.48c0-25.6 20.992-46.08 46.08-46.08h829.44c25.088 0 46.08 20.48 46.08 46.08v829.44c0 25.088-20.992 46.08-46.08 46.08z m-48.128-849.92H94.208c-12.8 0-22.528 9.728-22.528 22.528v733.184c0 12.8 9.728 22.528 22.528 22.528h733.184c12.8 0 22.528-9.728 22.528-22.528V196.608c0-12.8-9.728-22.528-22.528-22.528z" fill="#515151" p-id="6309"></path><path d="M977.92 0H148.48c-25.6 0-46.08 20.48-46.08 46.08v56.32h71.68v-8.192c0-12.8 9.728-22.528 22.528-22.528h733.184c12.8 0 22.528 9.728 22.528 22.528v733.184c0 12.8-9.728 22.528-22.528 22.528H921.6v71.68h56.32c25.6 0 46.08-20.48 46.08-46.08V46.08c0-25.6-20.48-46.08-46.08-46.08z" fill="#515151" p-id="6310"></path><path d="M700.928 571.904L483.328 354.816v101.888l116.224 115.2-115.712 115.712v101.376z" fill="#515151" p-id="6311"></path><path d="M483.328 686.592v1.024h0.512v-1.024zM483.328 457.728V456.192z" fill="#515151" p-id="6312"></path><path d="M470.528 571.904L252.928 354.816v101.888l116.224 115.2-115.712 115.712v101.376z" fill="#515151" p-id="6313"></path><path d="M252.928 686.592v1.024h0.512v-1.024zM252.928 457.728V456.192z" fill="#515151" p-id="6314"></path></svg>
