<svg  class="icon" viewBox="0 0 1024 1024" version="1.1" xmlns="http://www.w3.org/2000/svg" p-id="4767" ><path d="M160 640a32 32 0 0 1 0-64h433.152A128 128 0 1 1 576 640H160zM704 576a64 64 0 1 0 0 128 64 64 0 0 0 0-128z m0-448a128 128 0 1 1-128 128H160a32 32 0 0 1 0-64h433.152A128 128 0 0 1 704 128z m0 64a64 64 0 1 0 0 128 64 64 0 0 0 0-128z" fill="#515151" p-id="4768"></path><path d="M608 768a32 32 0 1 1 0 64h-256a32 32 0 1 1 0-64h256z m0-384a32 32 0 0 1 0 64h-256a32 32 0 0 1 0-64h256z" fill="#515151" opacity=".6" p-id="4769"></path></svg>