<svg   viewBox="0 0 1024 1024" version="1.1" xmlns="http://www.w3.org/2000/svg" ><path d="M224 256A96 96 0 0 1 320 352V448c0 21.824-7.296 41.984-19.584 58.112L295.488 512l4.928 5.888c10.56 13.824 17.408 30.592 19.2 48.896L320 576v96A96 96 0 0 1 224 768h-128a32 32 0 0 1-32-32v-448a32 32 0 0 1 32-32h128zM128 704h96a32 32 0 0 0 32-32V576a32 32 0 0 0-32-32H128V704z m0-224h96A32 32 0 0 0 256 448V352a32 32 0 0 0-32-32H128v160zM384 256a32 32 0 0 1 32 32V704h64a32 32 0 0 1 31.488 26.24L512 736a32 32 0 0 1-32 32H384a32 32 0 0 1-32-32v-448A32 32 0 0 1 384 256z m256 128a96 96 0 0 1 96 96v192a96 96 0 0 1-192 0v-192A96 96 0 0 1 640 384z m0 64a32 32 0 0 0-32 32v192a32 32 0 1 0 64 0v-192A32 32 0 0 0 640 448z m160-192a32 32 0 0 1 32 32V448h32a96 96 0 0 1 95.552 86.784L960 544v128a96 96 0 0 1-96 96h-64a32 32 0 0 1-32-32v-448a32 32 0 0 1 32-32z m32 448h32a32 32 0 0 0 32-32v-128a32 32 0 0 0-32-32H832v192z" fill="#707070" ></path></svg>