<svg  class="icon" viewBox="0 0 1024 1024" version="1.1" xmlns="http://www.w3.org/2000/svg" p-id="4510" width="200" height="200"><path d="M961.804439 8.294066A101.576706 101.576706 0 0 0 921.562861 0H102.395873A102.703061 102.703061 0 0 0 0 102.395873v819.166988a101.576706 101.576706 0 0 0 8.294066 40.241578A102.805457 102.805457 0 0 0 102.395873 1023.958734h243.1902a38.398453 38.398453 0 0 0 0-76.796905H127.994842a51.197937 51.197937 0 0 1-51.197937-51.197936V127.994842a51.197937 51.197937 0 0 1 51.197937-51.197937h767.969051a51.197937 51.197937 0 0 1 51.197936 51.197937v217.591231a38.398453 38.398453 0 0 0 76.796905 0V102.395873a102.805457 102.805457 0 0 0-62.154295-94.101807z" fill="#00C080" p-id="4511"></path><path d="M1022.57639 916.443067l-38.859234-67.274089-12.338703-21.400737-8.140471-14.028235-49.866791-86.473315-24.011832-41.521527a191.992263 191.992263 0 1 0-345.17649 0l-15.359381 26.776521-8.550055 14.745006-49.86679 86.473315-8.140472 14.028235-12.338703 21.400737L410.965838 916.443067a10.239587 10.239587 0 0 0 11.570734 15.000996l115.963326-31.077148 31.077148 116.014525a10.239587 10.239587 0 0 0 18.789643 2.457501l38.808036-67.274089 12.338703-21.400738 8.140472-14.028234 49.917988-86.473315 19.199226-33.227461 10.700369 18.482455 8.498857 14.745006 49.917989 86.473315 8.140472 14.028234 12.338702 21.400738 38.808036 67.274089a10.239587 10.239587 0 0 0 18.789643-2.457501l31.077148-116.014525 115.963326 31.077148a10.239587 10.239587 0 0 0 11.570734-15.000996zM716.771114 460.781431a140.794326 140.794326 0 0 1 113.864211 223.581389 9.625212 9.625212 0 0 1-0.614375 0.921563 140.640732 140.640732 0 0 1-87.036492 54.577001c-3.839845 0.767969-7.730888 1.331146-11.724328 1.740729a141.920681 141.920681 0 0 1-29.490011 0c-3.993439-0.409583-7.884482-0.972761-11.724328-1.740729a140.538336 140.538336 0 0 1-86.729305-54.577001 9.625212 9.625212 0 0 1-0.614375-0.921563A140.794326 140.794326 0 0 1 716.771114 460.781431z m-80.63675 372.874573l-3.379064 5.836564-39.320015 68.144454-18.738445-69.936381-69.936382 18.738445 39.320016-67.99086 3.379063-5.836565 17.048913-29.592408 8.550056-14.745005 3.22547-5.631773a192.401846 192.401846 0 0 0 87.292482 53.604239l-1.843126 3.22547z m222.711025 4.044637l-18.738445 69.936381-39.320016-67.99086-3.379064-5.887762-17.10011-29.592408-8.498858-14.745006-1.843126-3.22547a192.401846 192.401846 0 0 0 87.292482-53.604239l3.225471 5.631773 25.598968 44.337413 3.379064 5.887763 39.320015 68.093255z" fill="#00C080" p-id="4512"></path><path d="M204.791747 378.864732m38.398452 0l230.390716 0q38.398453 0 38.398452 38.398452l0 0q0 38.398453-38.398452 38.398453l-230.390716 0q-38.398453 0-38.398452-38.398453l0 0q0-38.398453 38.398452-38.398452Z" fill="#00C080" p-id="4513"></path><path d="M204.791747 757.729464m38.398452 0l76.796906 0q38.398453 0 38.398452 38.398452l0 0q0 38.398453-38.398452 38.398453l-76.796906 0q-38.398453 0-38.398452-38.398453l0 0q0-38.398453 38.398452-38.398452Z" fill="#00C080" p-id="4514"></path><path d="M204.791747 189.432366m38.398452 0l537.578336 0q38.398453 0 38.398453 38.398452l0 0q0 38.398453-38.398453 38.398453l-537.578336 0q-38.398453 0-38.398452-38.398453l0 0q0-38.398453 38.398452-38.398452Z" fill="#00C080" p-id="4515"></path><path d="M204.791747 568.297098m38.398452 0l153.593811 0q38.398453 0 38.398452 38.398452l0 0q0 38.398453-38.398452 38.398453l-153.593811 0q-38.398453 0-38.398452-38.398453l0 0q0-38.398453 38.398452-38.398452Z" fill="#00C080" p-id="4516"></path></svg>