<svg  viewBox="0 0 1024 1024" version="1.1" xmlns="http://www.w3.org/2000/svg" ><path d="M384 725.333333h149.333333a42.666667 42.666667 0 0 1 0 85.333334H384v42.666666a42.666667 42.666667 0 0 1-42.666667 42.666667H170.666667a42.666667 42.666667 0 0 1-42.666667-42.666667v-170.666666a42.666667 42.666667 0 0 1 42.666667-42.666667h42.666666V384H170.666667a42.666667 42.666667 0 0 1-42.666667-42.666667V170.666667a42.666667 42.666667 0 0 1 42.666667-42.666667h170.666666a42.666667 42.666667 0 0 1 42.666667 42.666667v42.666666h256V170.666667a42.666667 42.666667 0 0 1 42.666667-42.666667h170.666666a42.666667 42.666667 0 0 1 42.666667 42.666667v170.666666a42.666667 42.666667 0 0 1-42.666667 42.666667h-42.666666v256h42.666666a42.666667 42.666667 0 0 1 42.666667 42.666667v170.666666a42.666667 42.666667 0 0 1-42.666667 42.666667h-170.666666a42.666667 42.666667 0 0 1-42.666667-42.666667v-170.666666a42.666667 42.666667 0 0 1 42.666667-42.666667h42.666666V384h-42.666666a42.666667 42.666667 0 0 1-42.666667-42.666667V298.666667H384v42.666666a42.666667 42.666667 0 0 1-42.666667 42.666667H298.666667v256h42.666666a42.666667 42.666667 0 0 1 42.666667 42.666667v42.666666zM213.333333 213.333333v85.333334h85.333334V213.333333H213.333333z m512 0v85.333334h85.333334V213.333333h-85.333334z m0 512v85.333334h85.333334v-85.333334h-85.333334zM213.333333 725.333333v85.333334h85.333334v-85.333334H213.333333z"  fill="#515151"></path></svg>