<svg  class="icon" viewBox="0 0 1024 1024" version="1.1" xmlns="http://www.w3.org/2000/svg" ><path d="M683.52 784.9984V596.992h65.9456c41.4208 0 75.52 14.6432 75.52 61.1328 0 44.7488-34.6112 64.4608-74.24 64.4608h-22.016v62.464h-45.2096z m45.2096-98.048h19.712c22.016 0 32.5632-10.3424 32.5632-28.8256 0-18.944-12.0832-25.4976-33.792-25.4976h-18.4832v54.3232zM574.5152 784.9984v-150.5792h-50.7904v-37.376h147.0976v37.376h-51.0464v150.5792h-45.2608zM414.8736 784.9984v-150.5792H364.032v-37.376h147.0464v37.376h-51.0464v150.5792h-45.2096zM199.0656 784.9984V596.992h45.2096v71.5264h61.952V596.992h44.6976v188.0064h-44.6976v-77.312H244.224v77.312h-45.2096z" p-id="6488"></path><path d="M848.0768 112.0256c34.9696 0 63.3344 28.0064 63.8976 62.8224v673.28c0 34.9184-28.0064 63.2832-62.8224 63.8464H175.872a63.8976 63.8976 0 0 1-63.8464-62.8224V175.872c0-34.9184 28.0064-63.2832 62.8224-63.8464h673.28z m0 278.6304H175.9232v457.4208h672.1536V390.656z m0-214.7328H175.9232v158.8224h672.1536V175.9232zM313.4464 225.792c0 30.9248-25.088 55.9616-55.9616 55.9616h-19.968c0-30.9248 25.088-55.9616 55.9616-55.9616h19.968z" p-id="6489"></path><path d="M347.4944 281.8048c30.9248 0 55.9616-25.088 55.9616-55.9616h-19.968c-30.8736 0-55.9104 25.088-55.9104 55.9616h19.968zM437.504 281.8048c30.8736 0 55.9104-25.088 55.9104-55.9616h-19.968c-30.8736 0-55.9104 25.088-55.9104 55.9616h19.968z" ></path></svg>