<svg t="1742126732540" class="icon" viewBox="0 0 1024 1024" version="1.1" xmlns="http://www.w3.org/2000/svg" p-id="9328" width="200" height="200"><path d="M0 0m192 0l640 0q192 0 192 192l0 640q0 192-192 192l-640 0q-192 0-192-192l0-640q0-192 192-192Z" fill="#3E71F9" p-id="9329"></path><path d="M894.624 340.48l-125.184 35.168c1.184 2.336 2.304 4.704 3.392 7.072l121.792-42.24zM284.48 649.568L252.992 713.6H128l57.344 11.776a79.104 79.104 0 0 1 47.2 29.824l50.304-58.88c9.28-10.336 18.688-20.48 28.32-30.496a273.024 273.024 0 0 1-20.32-29.536c-2.144 4.352-4.288 8.768-6.4 13.248z m106.88-147.648a87.328 87.328 0 0 0-54.72-53.984l-31.808-10.624h200.544c49.536-18.656 108.768-32.48 180.992-43.392l48.896-8.672 34.176-9.6A272.64 272.64 0 1 0 290.88 636.288c27.776-56.128 59.392-99.84 100.48-134.4v0.032z" fill="#FFFFFF" p-id="9330"></path><path d="M707.584 405.376a1073.728 1073.728 0 0 0-396.416 260.48A272.64 272.64 0 0 0 772.8 382.72l-65.28 22.656 0.064-0.032z" fill="#FFFFFF" p-id="9331"></path></svg>