

<svg  class="icon" viewBox="0 0 1372 1024" version="1.1" xmlns="http://www.w3.org/2000/svg" p-id="9818" width="200" height="200"><path d="M693.097529 25.76645c-18.642393 1.19844-25.56671 1.864239-37.085045 3.262419C480.307932 50.60078 328.838492 167.781534 263.124057 332.96645 220.379714 440.226788 217.250455 560.603381 254.335501 670.127438c10.519636 31.026268 26.49883 65.980754 41.346163 90.415605l1.13186 1.864239 7.590117-14.847334c48.936281-95.142783 101.7342-164.585696 169.778934-223.375813l2.463459-2.130559-2.330299-5.859038c-15.446554-38.350065-45.474122-69.309753-82.892068-85.488686-3.994798-1.664499-20.972692-7.656697-37.750845-13.249415-16.711573-5.592718-30.693368-10.453056-31.092848-10.719376-0.3329-0.3329 78.364629-0.59922 179.16671-0.59922h179.83251l8.255917-3.062678c78.431209-28.962289 186.024447-54.728739 304.536801-72.838492 5.126658-0.79896 29.494928-4.993498 54.129518-9.387776L1093.243173 312.925878l30.160728-8.455657c16.511834-4.594018 30.227308-8.522237 30.360468-8.588817 0.39948-0.3329-9.387776-18.708973-15.579714-29.228608-56.260078-95.875163-145.144343-171.043953-248.343303-209.926658C842.636151 38.949285 796.296489 29.095449 745.029909 25.96619c-9.787256-0.59922-44.209103-0.73238-51.93238-0.19974zM1257.895449 267.185436c-56.060338 15.846034-102.20026 28.962289-102.4 29.162028-0.3329 0.3329 4.327698 10.652796 5.326398 11.784656 0.06658 0.13316 196.011443-67.711834 200.072821-69.309753 4.993498-1.930819-14.581014 3.462159-102.999219 28.363069z" p-id="9819"></path><path d="M1099.56827 330.236671c-60.854096 21.172432-69.110013 24.168531-93.611443 33.955787-95.875163 38.350065-189.819506 84.956047-277.571912 137.687386-137.421066 82.625748-259.861638 178.70065-375.710793 294.949285l-19.241612 19.241612 7.390377 8.788557c28.096749 33.889207 61.253576 64.382835 96.940442 89.283745 102.46658 71.573472 228.302731 100.935241 352.540962 82.226268 84.556567-12.783355 163.986476-47.538101 231.03251-101.201561 90.016125-72.039532 151.203121-171.976073 174.040052-284.296489 11.917815-58.856697 12.849935-120.176853 2.663199-180.431729-6.458257-38.150325-21.039272-85.954746-35.287386-115.915735l-2.596619-5.392978-60.587777 21.105852zM287.958388 782.114954c-4.727178 9.853836-19.907412 40.746944-33.622887 68.777114l-25.034071 50.93368-109.790377 0.3329-109.723797 0.332899 48.203901 9.853837c26.49883 5.459558 51.79922 10.785956 56.126918 11.851235 20.040572 4.993498 39.947984 15.113654 55.594279 28.229909 5.859038 4.926918 15.846034 14.980494 20.240312 20.306892 2.396879 2.996099 2.396879 2.996099 3.661898 1.664499 0.73238-0.73238 20.706372-24.101951 44.408843-51.932379 49.402341-57.924577 56.992458-66.446814 86.354226-97.406502l8.389077-8.855137-7.323797-9.787256c-7.390377-9.787256-22.770351-32.491027-26.29909-38.749545-0.9987-1.864239-1.997399-3.328999-2.197139-3.328999-0.19974 0-4.261118 7.989597-8.988296 17.776853z" p-id="9820"></path></svg>