<svg  viewBox="0 0 1024 1024" version="1.1" xmlns="http://www.w3.org/2000/svg" ><path d="M512.361649 0.000735a511.23238 511.23238 0 1 1-161.735869 996.366471 399.193532 399.193532 0 0 0-8.674924-2.793619l-4.263946-1.249778c-114.097304 21.099179-181.070657 31.612011-200.920059 31.612011-29.700587 0-63.003473-3.822848-66.385223-35.287826l-0.220549-3.234717 52.564158-143.356793-2.426038-2.79362a505.277559 505.277559 0 0 1-7.351631-8.821956l-1.98494-2.573071A511.23238 511.23238 0 0 1 512.361649 0.000735z m0 91.160217a420.145679 420.145679 0 0 0-310.532869 703.109934 45.580109 45.580109 0 0 1 11.321511 28.230261l-54.255033 131.07957 152.766881-50.432185a45.580109 45.580109 0 0 1 29.406521-4.410978l3.675815 0.80868c13.527 3.675815 24.995543 7.131082 34.62618 10.365798A420.145679 420.145679 0 1 0 512.361649 91.160952zM401.646095 256.719669c105.716445 0 186.437347 30.582783 186.437347 126.595076 0 47.270984-26.46587 95.938777-70.281586 111.230169v3.528782c55.651842 13.232935 96.67394 52.196576 96.67394 121.669484 0 103.657989-86.234625 151.590619-199.596766 151.590619H231.308818v-514.61413z m417.793157 230.914712v279.361956H714.457969v-279.361956h104.981283z m-413.602728 54.916679h-71.60488v149.532163h71.60488c70.281587 0 108.510065-24.995543 108.510065-78.588929 0-50.064603-37.566831-70.943234-108.510065-70.943234z m-10.439315-207.242461h-61.165565v130.785505h59.768755c65.429511 0 93.88032-26.46587 93.880321-67.487967 0-45.212527-30.582783-63.224022-92.483511-63.224022z m424.042043 5.293174v73.516304H714.457969v-73.516304h104.981283z"  fill="#515151"></path></svg>