<svg t="1709340827085" class="icon" viewBox="0 0 1024 1024" version="1.1" xmlns="http://www.w3.org/2000/svg" p-id="4354" width="200" height="200"><path d="M945.493333 410.965333h-316.757333c-15.701333 0-28.672-12.970667-28.672-28.672V52.224c0-24.576-19.797333-44.373333-44.373333-44.373333h-113.322667c-24.576 0-44.373333 19.797333-44.373333 44.373333v328.021333c0 17.066667-13.653333 31.061333-31.061334 31.061334l-103.765333 0.341333c-17.066667 0-31.402667-13.653333-31.061333-31.061333l0.682666-328.362667c0-24.576-19.797333-44.373333-44.373333-44.373333h-112.64c-24.576 0-44.373333 19.797333-44.373333 44.373333v924.330667c0 21.845333 17.408 39.253333 39.253333 39.594666H945.493333c21.845333 0 39.253333-17.408 39.594667-39.253333V450.56c0-21.504-17.408-39.253333-38.912-39.594667h-0.682667z m-148.48 347.136c0 28.330667-23.210667 51.2-51.541333 51.541334h-89.429333c-28.330667 0-51.2-22.869333-51.541334-51.541334v-89.429333c0-28.330667 22.869333-51.2 51.541334-51.541333h89.429333c28.330667 0 51.2 22.869333 51.541333 51.541333v89.429333z" fill="#FF6600" p-id="4355"></path></svg>
