<svg  class="icon" viewBox="0 0 1024 1024" version="1.1" xmlns="http://www.w3.org/2000/svg" ><path d="M949.4 195.15l-1.26-1.1c-82.44-82.46-216.6-82.44-299.06 0l-39.89 39.9c-16.66 16.67-16.66 43.68 0.01 60.34 16.67 16.65 43.68 16.66 60.34-0.01l39.88-39.89c49.19-49.18 129.21-49.18 179.69 1.24l1.26 1.1c23.72 23.73 36.78 55.44 36.78 89.3s-13.06 65.57-36.78 89.29L676.6 649.08c-49.19 49.19-129.2 49.17-178.45-0.06l-2.49-2.49c-49.24-49.24-49.24-129.36-0.33-178.28l9.81-9.6c16.84-16.48 17.14-43.49 0.65-60.33-16.47-16.83-43.49-17.11-60.33-0.65l-10.15 9.93c-82.49 82.51-82.49 216.76 0.07 299.33l2.5 2.49c41.22 41.23 95.38 61.84 149.52 61.84 54.16 0 108.31-20.61 149.53-61.84L950.7 495.67c39.84-39.83 61.78-92.98 61.78-149.64s-21.94-109.8-63.08-150.88z" fill="#2F3CF4" p-id="6114"></path><path d="M354.48 729.79l-39.9 39.9c-23.73 23.72-55.4 36.78-89.2 36.78-33.79 0-65.47-13.06-90.56-38.09l-1.19-1.03c-49.24-49.24-49.24-129.36 0-178.6L347.4 374.98c49.2-49.17 129.21-49.17 178.39 0l2.56 2.56c23.72 23.73 36.78 55.44 36.78 89.3s-13.06 65.57-36.46 88.97l-9.81 9.6c-16.84 16.48-17.14 43.49-0.65 60.33 16.49 16.86 43.51 17.14 60.33 0.65l10.14-9.92c39.84-39.83 61.78-92.98 61.78-149.64s-21.94-109.8-61.78-149.64l-2.56-2.56c-82.45-82.47-216.62-82.45-299.05 0L73.3 528.41c-82.51 82.51-82.51 216.76 1.38 300.58l1.18 1.03c39.83 39.84 92.94 61.78 149.53 61.78s109.7-21.94 149.53-61.78l39.9-39.9c16.67-16.66 16.67-43.68 0-60.33-16.65-16.67-43.7-16.67-60.34 0z" fill="#2F3CF4" ></path></svg>