<svg  class="icon" viewBox="0 0 1609 1024" version="1.1"  width="200" height="200"><path d="M1186.450286 417.938286h-34.084572v211.602285h162.304l21.504-34.084571h-149.723428V417.938286z m-451.803429 10.752L608.182857 629.540571h42.203429l38.546285-61.001142h81.554286l21.504-34.084572H710.436571l44.836572-69.924571 103.936 165.010285h42.130286l-128.146286-201.728c-8.045714-12.580571-29.622857-12.580571-38.546286 0.877715z m227.693714 24.137143h145.261715l21.504-34.011429h-167.643429c-58.294857 0-96.841143 47.542857-96.841143 105.764571 0 58.294857 38.546286 105.837714 96.841143 105.837715h141.604572l22.454857-34.084572h-163.181715c-39.497143 0-62.756571-32.256-62.756571-70.802285 0-38.546286 23.332571-72.630857 62.756571-72.630858z m-715.410285 142.628571H97.206857c-39.497143 0-61.878857-32.329143-61.878857-70.875429 0-38.546286 23.405714-70.802286 61.878857-70.802285h149.723429c39.497143 0 62.756571 32.256 62.756571 70.802285 0 38.546286-23.332571 70.875429-62.756571 70.875429z m0-177.517714H97.206857c-58.294857 0-96.841143 47.542857-96.841143 105.764571 0 58.294857 38.546286 105.837714 96.841143 105.837714h149.723429c58.294857 0 96.841143-47.542857 96.841143-105.837714 0-58.221714-38.546286-105.764571-96.841143-105.764571z m1195.008 34.962285H1587.2l21.504-34.084571h-167.643429c-58.294857 0-96.841143 47.542857-96.841142 105.764571 0 58.294857 38.546286 105.837714 96.841142 105.837715h141.677715l22.381714-34.084572h-163.108571c-33.206857 0-54.710857-23.332571-61.001143-54.710857h182.857143l22.454857-34.011428h-204.434286c5.412571-32.329143 26.916571-54.710857 60.050286-54.710858zM528.384 543.451429c35.035429 0 62.829714-27.794286 62.829714-62.756572a62.390857 62.390857 0 0 0-62.756571-62.756571H352.694857v211.602285h38.546286V452.900571h137.216c15.213714 0 28.672 12.580571 28.672 28.672a28.891429 28.891429 0 0 1-28.672 28.672H418.157714L542.793143 630.491429h50.176L504.246857 545.206857l24.137143-1.755428z m-326.217143-199.021715c42.934857-107.593143 134.436571-181.101714 263.533714-181.101714h700.123429c129.097143 0 220.525714 73.508571 263.606857 181.101714h169.398857C1545.069714 146.285714 1386.349714 1.974857 1165.897143 1.974857H465.700571c-219.648 0-379.245714 143.36-433.005714 342.454857h169.398857z m1228.141714 329.874286c-43.008 107.593143-134.509714 181.101714-263.606857 181.101714H465.700571c-129.097143 0-220.598857-73.508571-263.606857-181.101714H32.694857c53.76 198.217143 212.406857 342.454857 433.005714 342.454857h700.123429c219.648 0 379.245714-143.36 433.005714-342.454857h-168.521143z" fill="#515151"></path></svg>