<svg t="1709276843488" class="icon" viewBox="0 0 1024 1024" version="1.1" xmlns="http://www.w3.org/2000/svg" p-id="4436" width="200" height="200"><path d="M777.792 815.872s-4.176 27.2 4.176 39.728l35.552 25.072-2.112 8.368v12.528l8.352 2.064 12.544-2.064 2.112 4.176 6.24 8.368h8.368l8.352-18.832v-8.368l8.352-2.064s56.448-18.832 43.904-39.712l-4.16-2.08s-25.088 10.432-35.568 8.368c0 0-48.032 2.064-71.04-14.656l-25.072-20.896z" fill="#D77083" p-id="4437"></path><path d="M790.32 799.152s-22.944 0-8.352 23.008c0 0 23.008 25.088 66.864 31.328 0 0 64.8 0 68.976-20.896 0 0-2.112-25.072-20.896-22.96-18.832 6.24-106.592-10.48-106.592-10.48z" fill="#733D48" p-id="4438"></path><path d="M890.608 732.32s29.264 31.36 16.72 79.392c0 0-2.064 20.896-18.784 27.2 0 0-31.36 6.24-39.728 2.048 0 0-39.68-2.064-52.208-22.944 0 0-16.704-16.72-2.112-35.552 0 0 29.248-12.544 35.552-31.312 0 0 10.416-8.368 22.96-6.304a75.008 75.008 0 0 1 23.008 8.352s18.768-14.592 14.592-20.896z" fill="#D59D52" p-id="4439"></path><path d="M813.328 757.376s14.592 31.376 50.144 33.44c0 0 33.44 0 48.032-20.896l-12.544-31.312-22.944-6.304s-60.64-18.768-62.688 25.072z" fill="#DBAE62" p-id="4440"></path><path d="M890.624 732.304s14.656 18.832-4.176 23.008c0 0-18.784 4.176-29.264 0 0 0-64.736 18.784-48.016 73.12 0 0-12.544 0-18.848-31.328l6.304-64.8s87.76-16.72 94 0z" fill="#B88F4D" p-id="4441"></path><path d="M882.272 763.68s8.352 16.72 2.112 25.072c0 0-2.112 4.176 8.352 6.24 0 0 12.544-14.592-2.112-37.6 0 0-8.352-2.08-8.352 6.288z" fill="#FFFFFF" p-id="4442"></path><path d="M882.272 761.824a4.464 4.464 0 1 0 8.912 0 4.464 4.464 0 0 0-8.912 0z m2.224 31.2a4.448 4.448 0 1 0 8.896 0 4.448 4.448 0 0 0-8.896 0z" fill="#FFFFFF" p-id="4443"></path><path d="M913.648 815.888s18.768-48.032-16.72-85.632h-6.304v10.4s20.896 23.04 14.656 50.16c0 0-2.112 23.008-6.288 33.44 0 0-14.608 14.64-31.312 14.64 0 0-35.552 0-64.8-16.704 0 0-14.608-16.72-8.368-35.552h-4.16c0-2.064-2.08-4.176-10.432 0 0 0 4.176 6.288-4.176 8.352 0 0-16.72 8.368-12.544 41.792 2.064 29.248 39.68 48.08 39.68 48.08s2.112 2.08 2.112 6.24c0 4.192-2.112 14.656 10.416 16.72 0 0 8.368 2.112 12.544-2.064 0 0 6.288 18.784 18.832 14.608 12.528-4.192 16.704-16.72 10.416-27.136 0 0 29.248-4.176 48.08-27.2 4.192 0 29.264-27.136 8.368-50.144z m-8.368 39.728c-4.16 6.24-12.528 25.072-41.776 31.312 0 0-16.72 0-23.024-2.064 0 0-16.704 6.24 2.128 4.176 0 0 14.592 0 12.528 10.432 0 0-2.112 10.464-6.288 10.464 0 0-4.192 4.192-10.432-8.352 0 0 2.08-4.176-6.288-4.176 0 0-14.608 6.24-14.608-8.368 0 0 4.192-8.352 8.368-10.464 0 0-41.792-12.544-48.096-48.032 0 0-4.16-8.352 2.128-6.288a127.04 127.04 0 0 0 64.736 31.36c31.376 4.176 58.512-8.352 58.512-8.352 2.112 2.064 4.176 4.16 2.112 8.352z m6.24-18.832s-2.048 4.176-4.16 6.304c-2.08 0-2.08 2.048-4.192 2.048-37.6 16.72-83.584 0-83.584 0-35.488-18.768-37.6-31.312-37.6-33.44 0-2.048 0-4.16 2.112-4.16 0 0 4.176-8.368 8.352-4.176 0 6.288 4.192 14.64 8.368 18.832 12.528 10.4 29.248 18.768 56.384 20.896 27.2 2.048 41.792-6.304 48.08-18.832 4.192 2.112 8.368 8.352 6.24 12.528z" fill="#000000" p-id="4444"></path><path d="M136.336 565.152s12.544 102.416 91.936 169.28l94-81.52 140.032-4.176 179.68-102.352s108.656-68.976 104.48-146.272c0 0-119.12 54.336-146.256 37.616l-45.968 22.96-50.144 35.552-73.168 6.24-10.416 12.528-135.84 41.792s-18.784-58.496 43.904-156.688l20.896-33.424-89.872 41.792-2.08-20.896-10.464 2.064-16.72 52.256-18.768 6.24-52.272 89.872-6.24-14.64h-8.352v41.776H136.32z" fill="#947BB0" p-id="4445"></path><path d="M725.6 481.584l18.768-6.24 23.008-33.44h8.368l14.592 2.064 6.288 12.544 12.544 12.528 22.96 6.304 20.896 8.352 18.832 16.72 8.352 12.528 10.416 18.784 8.368 29.248 6.288 20.896 4.176 14.656 4.176 12.528-2.112 18.784-6.24 14.656-8.352 10.416-20.896 6.304-6.304 6.24-27.136 4.16h-18.832l-12.528 8.368 2.112 10.48h12.544l22.944-6.304 23.024 2.128 14.592 12.528 6.304 6.24 2.064 14.656v20.896l-14.608 12.544-14.656-2.128-10.416-4.16-18.832 2.096-6.24 8.368-12.544 12.528-23.008 12.544-20.896 4.176-31.312 4.176-2.112 8.368v8.352L736 822.192l-12.544 16.704-12.528 18.784 25.072 2.112 23.008 4.192 10.416 12.528 4.176 12.544-4.176 10.4-14.592 12.544-33.44 2.128H420.528s-167.152 0-236.144-121.2c-68.912-121.184-43.84-198.512-43.84-198.512l4.176-18.784s27.136 96.112 73.104 144.144l12.544 14.656s8.352-2.112 14.64-35.552c0 0 14.608-68.928 185.936-68.928l71.04-37.6 71.04-20.896 52.272-12.544 41.792-20.896 58.496-56.432z" fill="#D77083" p-id="4446"></path><path d="M817.52 558.912s12.528-18.832 37.6-6.288c0 0 25.088 14.656 8.368 48.08 0 0-10.48-2.112-18.832 0-2.064 0-50.144 2.064-27.136-41.792z" fill="#000000" p-id="4447"></path><path d="M825.888 579.808s-6.304-6.304-2.112-14.656l-6.24-6.24s-10.48 12.528 8.352 27.136c0 0 8.352 6.288 27.136 6.288 0 0 6.304 2.064 6.304 4.176v-16.704s-4.192 10.4-10.48 10.4c0 0-14.608-2.048-22.96-10.4z" fill="#FFFFFF" p-id="4448"></path><path d="M830.048 569.376a12.528 12.528 0 1 0 25.04 0 12.528 12.528 0 0 0-25.04 0z" fill="#D19B52" p-id="4449"></path><path d="M825.856 561.024a6.272 6.272 0 1 0 12.544 0 6.272 6.272 0 0 0-12.544 0z" fill="#FFFFFF" p-id="4450"></path><path d="M362.016 230.832l2.064-20.896 54.32-39.68 25.072-12.528s33.44-29.264 81.52-29.264l58.496 6.24 41.792 14.656 31.312 18.784 25.072 12.528 31.376 20.896-6.288 37.6-6.24 27.2 8.352 37.616-12.544 18.784s-6.288 16.704-39.728 43.904l-18.768 35.488-33.44 41.792-58.496 37.6-50.144 14.656-39.728 4.176-144.16 43.856-27.184 12.544s-16.72-89.824 43.904-156.688l37.6-33.44s25.088-20.88 29.28-54.32l22.944 39.68 16.72-35.504c0-2.112 2.112-91.92-73.12-85.68z" fill="#E7DFAB" p-id="4451"></path><path d="M731.808 186.96l-18.768 22.96-6.304 20.896-4.176 48.096-6.24 43.84s-25.072 39.728-35.552 35.552l-8.352 18.784-4.176 14.64 33.44-29.248 43.888-18.832 25.072-10.416 10.432-20.896-10.432-39.728-2.112-25.072-12.544-4.176s-6.24-33.44 4.192-45.968l-8.368-10.432z" fill="#D19456" p-id="4452"></path><path d="M631.52 410.592s41.792-50.144 94.048-73.152v12.528l52.208-29.248h12.544l-4.176 27.136-14.608 18.832-16.704 27.136-27.2 18.832-56.384 20.896-54.32 12.528 14.592-35.536v0.048z" fill="#D77083" p-id="4453"></path><path d="M430.944 247.52s68.96-18.768 91.936 0c23.008 18.848 85.696-4.16 85.696-4.16l56.384 33.44-4.176 79.392s-6.24-52.224-66.88-58.512c-60.56-6.24-58.496-16.72-96.096-35.488-37.616-18.832-29.264 2.048-66.88-14.656z" fill="#D89E52" p-id="4454"></path><path d="M430.944 247.568s8.352 25.072 50.144 27.2c41.792 2.048 175.52 71.04 123.296 127.408 0 0-8.352 62.688-60.608 77.344 0 0 41.776-54.32 14.64-112.832 0 0-6.288-48.08-64.8-62.688 2.128 0-35.488-16.704-62.672-56.432z" fill="#D89E52" p-id="4455"></path><path d="M470.688 329.056s20.896 64.752 56.384 75.232c0 0 41.792 37.6 4.176 64.736l-75.216 31.36-129.552 33.44-45.968 16.72s52.272-66.864 87.76-83.584c0 0 62.688-16.704 89.872-83.568l12.544-54.336z" fill="#D89E52" p-id="4456"></path><path d="M410.048 329.056s-14.544 62.688-77.28 123.264c-31.36 29.248-37.6 66.864-43.904 94.048 0 0 16.704-58.512 62.672-96.112 27.2-23.024 56.448-58.512 58.512-121.2z" fill="#814879" p-id="4457"></path><path d="M464.368 510.864s39.728 2.064 54.336 14.592c0 0-12.544-10.464-22.96-14.656 0 0 62.688 8.368 87.76 18.848 0 0 29.248 6.24 45.968 0 0 0-45.968-2.128-64.8-14.656 0 0-37.6-14.608-60.576-12.544l-39.728 8.368v0.048z" fill="#785085" p-id="4458"></path><path d="M598.112 462.784s18.832-4.176 43.904 0c0 0 39.68 20.896 85.632-10.464 0 0-35.488 43.904-64.752 37.6 0 0-81.504-14.592-98.224-8.352 2.112 2.112 27.2-6.24 33.44-18.784z" fill="#E1CAC9" p-id="4459"></path><path d="M416.336 232.96s29.264-25.088 41.792-29.264c0 0 56.384-14.656 33.44 0l-10.48 12.544s20.896-10.48 43.904-8.368l-10.464 8.368s35.536-6.304 39.728 0c0 0 14.592 16.72 29.248 8.352 0 0-6.304 16.72-41.792-2.112 0 0-25.072 0 0 10.48-2.112 0-68.976-16.72-125.36 0z" fill="#FFFFFF" p-id="4460"></path><path d="M389.152 684.288s-29.248 4.16-29.248 48.016c0 0 6.304 35.552 33.44 45.968 0 0-12.544-54.32 6.288-91.936l-10.48-2.048z" fill="#A04F5D" p-id="4461"></path><path d="M658.72 696.8s-4.176 73.12 25.072 104.48c0 0 25.072 25.072 58.512 20.896 0 0 18.768-31.36-18.832-33.44 0 0-37.6-8.352-48.032-45.952-2.128 2.064-6.304-41.792-16.72-45.968z" fill="#9A505E" p-id="4462"></path><path d="M690.048 629.952s-14.592 58.512 48.096 75.216c0 0 50.144 6.24 64.736-20.896 0 0-52.208 10.432-79.392-16.704-2.08 0-31.312-20.896-33.44-37.616z m89.872-175.52s-39.712 25.072-10.464 52.208c0 0 6.288-29.248 12.528-37.6 8.368-8.368-2.064-14.608-2.064-14.608z" fill="#A04F5E" p-id="4463"></path><path d="M775.728 473.216s-10.48 23.024-6.304 31.36c0 0 6.304 14.608 10.48 12.544 0 0-10.48-20.88 2.064-39.728 0 0 10.48-14.592 0-35.488 0 2.064 4.176 16.72-6.24 31.312z m20.896 41.792s25.072-14.592 8.352-37.6c0 0 4.176 20.88-8.352 37.6z m-106.592 112.832c8.352 60.624 73.152 56.448 73.152 56.448-64.8-12.544-73.152-54.336-73.152-56.448z" fill="#000000" p-id="4464"></path><path d="M911.52 588.16s-8.352-29.248-8.352-43.904c0 0-14.608-77.28-94-81.472 0 0-8.368-25.072-33.44-25.072 0 0-14.656 2.08-37.6 31.312-4.192 4.192-4.192-2.048-4.192-2.048 4.192-4.192 4.192-8.368 4.192-8.368 14.592-16.704 22.944-52.256 27.136-66.864 8.352-6.288 14.64-14.656 20.896-23.008l8.352-27.136s-4.176 0-8.352 6.24c-4.192 6.304 14.64-33.44 8.352-43.84 0 0-25.072 12.528-27.136 18.768 0 0-6.304-37.6-14.656-56.384 0 0 0-27.2 8.352-31.36 0 0-8.352-10.432-20.896 8.352 0 0-14.592-14.608 6.304-54.336 0 0 4.176-8.352-16.72-2.064 0 0-16.704 16.72-18.832 20.896 0 0-8.352-10.464-12.528-23.008 0 0-2.08-2.064-4.176 0 0 0-4.192 6.288-6.24-6.24 0 0-8.368-14.656-12.544-14.656 0 0 2.064 10.48 0 10.48 0 0-2.128 0-8.368-4.176 0 0-31.36-20.896-79.392-31.376 0 0-10.48-4.176-14.656-6.24 0 0-2.064 0-4.176 2.064 0 0-8.352 0-14.592-2.064-23.024-10.48-33.44 0-33.44 0-119.12 0-156.736 77.28-156.736 77.28-12.544 12.544-2.064 20.896-2.064 20.896H380.8c79.392 50.144 29.248 98.24 29.248 98.24l-8.352-27.2c-18.784-18.784-12.544 0-12.544 0 6.304 29.248-14.592 48.08-14.592 48.08-62.688 18.784-108.656 45.968-108.656 45.968-12.544-2.112 6.24-20.88-8.352-18.832-14.656 2.128-23.024 39.728-23.024 39.728-39.68 29.264-73.104 85.648-85.632 106.544 0-4.176-2.112-31.312-2.112-45.968 0 0-14.608 35.552-6.24 73.152 0 0-6.304 16.72-10.48 37.6 0 0 0 4.192-2.064 8.368v27.136c0 33.44 2.064 83.584 22.96 125.376 0 0 31.36 98.24 160.912 152.56 0 0 52.208 18.768 98.176 18.768h313.424s43.904 0 50.144-22.96c6.288-25.072-8.352-50.144-50.144-43.904 0 0-12.544 2.112 4.16-10.416 0 0 14.672-12.544 14.672-39.728 0 0-6.304-10.416 14.592-8.352 0 0 14.656 0 23.008-2.08 0 0 39.68-8.352 54.336-41.776 0 0 14.592-6.304 22.96 0 0 0 16.704 8.352 20.88 2.064 0 0 2.128-2.064 12.544-8.368 0 0 4.176 2.128 8.352-29.248 0 0 0-12.528-8.352-18.768 0 0-4.176-6.304-6.24-10.48 0 0-10.48-14.608-45.968-8.368 0 0-18.832 12.544-23.008 6.304-4.176-6.304 6.288-6.304 6.288-6.304s41.792-2.048 58.512-14.592c0 0 27.136-2.112 29.248-31.36 2.064-4.192 18.784-18.784 2.064-43.856z m-179.68-137.92c-37.632 77.296-110.72 100.32-110.72 100.32-37.616 0-45.968 2.048-45.968 2.048 27.12 4.176 20.88 8.352 20.88 8.352-58.496 6.304-79.392 16.72-79.392 16.72-77.344-12.528-119.12-4.176-119.12-4.176-94 16.72-133.728 60.624-133.728 60.624 83.568-48.096 140.016-52.272 140.016-52.272 91.936-6.24 98.176 0 98.176 0-25.072 4.176-56.384 27.2-56.384 27.2-14.656 10.416-79.408 20.896-79.408 20.896-23.008 2.064-64.8 14.592-64.8 14.592-64.736 20.896-64.736 79.392-64.736 79.392-20.896-22.944-18.832-62.672-18.832-62.672l-2.08-2.08c2.08-8.336 6.24-16.704 14.608-35.52 18.832-43.872 31.36-45.984 64.8-66.88 33.44-20.896 156.688-43.84 156.688-43.84 121.184-14.656 154.624-58.512 154.624-58.512 2.112-2.112 6.288-6.288 12.528-10.48h2.128s71.04-2.048 127.424-39.68c-2.064 18.784-16.72 45.984-16.72 45.984z m52.256-125.36s-4.192 35.504-31.376 58.512c0 0-39.68 39.68-125.376 54.32l-4.16 2.08c6.288-8.368 14.64-14.608 14.64-14.608 68.928-10.48 110.72-60.64 110.72-60.64-60.576 43.92-106.544 52.272-106.544 52.272 6.24-8.352 10.432-18.832 16.72-29.248 8.368-6.288 35.488-29.248 58.512-35.552 0 0-10.48 18.832-23.008 27.2 0 0 18.816-2.128 50.144-31.36-2.08-4.192 23.008-22.976 39.728-22.976z m-75.232-77.328c4.176-35.504 22.96-52.208 22.96-52.208 8.368 6.24 0 12.528 0 12.528-6.24 20.896-2.064 48.032-2.064 48.032L708.864 304c0-2.128-4.16-20.896 0-56.448z m-311.36 75.216c27.2 35.552-16.704 94.048-16.704 94.048C456 358.32 439.296 304 439.296 304c0-54.336-43.84-71.04-43.84-71.04-23.024-4.192-18.832-12.544-18.832-12.544 62.672-71.04 121.184-58.512 121.184-58.512 0-10.464-43.84-4.16-43.84-4.16 14.592-20.912 64.736-16.736 64.736-16.736 8.352 2.08 27.2 10.432 27.2 10.432l-8.368-16.72c6.24 2.112 10.416 4.176 14.592 6.288 4.176 2.08 8.368 2.08 8.368 2.08 6.288 0 14.656 2.112 27.2 2.112 0 0 12.528 2.048 22.944 22.944 0 0-2.064-12.528-4.176-16.704 0 0 14.64 8.352 20.88 18.832 0 0 2.128-2.128 0-10.48 0 0 27.2 12.544 37.616 29.248 0 0 2.128 2.128 2.128-4.176 0 0 2.048-12.544 6.24 0 0 0-2.08 12.544 2.112 10.48 0 0 4.176-4.176 4.176-10.48 0 0 4.176-2.064 4.176 4.176 0 0 4.176 4.176 8.368 0 0 0 4.16 4.176 6.24 12.544 2.112 8.352 6.288 14.656 6.288 14.656s-8.352 20.88-6.288 43.84c0 0 0 58.512-8.368 68.992 0 0 25.072-10.48 35.552-54.336 0 0 14.608-37.6 16.72-14.656 0 0-4.176 10.48 0 23.024 0 0-6.304 25.072-12.544 29.248 0 0 12.544-8.352 18.784-18.832 0 0 6.288 20.896-4.176 27.2 0 0-29.264 18.768-56.4 25.056 0 0-18.832 10.416-25.072 22.96l-4.16 6.304c10.4-25.088 16.704-50.16 16.704-50.16 10.416-8.352 14.592-25.072 14.592-25.072-4.16 0-12.528 10.432-12.528 10.432-8.368 8.352-4.176-14.608-4.176-14.608 4.16-6.288 8.352-16.72 8.352-16.72 0-8.352-8.352 2.08-8.352 2.08-8.368 4.16-4.192-10.432-4.192-10.432 6.304-12.544 2.128-16.72 2.128-16.72-4.176 0-10.48 18.784-10.48 18.784-2.064 12.528-12.528-12.544-12.528-12.544-10.432-8.352-8.368-29.248-8.368-29.248-2.064-12.544-4.176 0-4.176 0-2.064 14.656-4.176 6.288-4.176 6.288 0-10.464-2.08-18.832-2.08-18.832v16.72c-4.16 6.304-8.352-8.352-8.352-8.352-2.112-14.608-6.288-12.544-6.288-12.544-2.064 8.368 2.112 12.544 0 14.656-2.064 2.064-8.352-6.288-8.352-14.656 0-8.352-6.24-4.16-6.24-4.16 0 14.64-4.192 8.336-4.192 8.336-108.64-48.016-154.608-10.4-154.608-10.4 100.288-41.808 190.112 56.384 190.112 56.384-14.608-6.24-39.68-2.08-39.68-2.08-29.248 12.544-45.968 4.192-45.968 4.192 10.416 12.528 52.208 6.24 52.208 6.24 16.72-6.24 31.36 2.112 31.36 2.112 18.8 16.72-4.16 16.72-4.16 16.72 20.896 8.352 27.136 39.68 27.136 39.68-6.24 85.68-96.128 129.536-96.128 129.536 43.92-66.864 16.72-106.528 16.72-106.528-14.592-33.44-75.216-48.096-75.216-48.096 60.624 27.2 64.8 62.688 64.8 62.688 6.24 62.688-29.248 100.288-29.248 100.288l-20.896 8.368c14.592-18.784 12.528-52.208 12.528-52.208-10.464 43.84-52.256 64.736-52.256 64.736 14.656-22.944 12.528-43.84 12.528-43.84-4.16 20.896-37.6 45.968-37.6 45.968-14.608 18.768-110.72 41.776-119.072 41.776-4.176 0-25.072 6.24-37.6 12.544-23.04-66.864 66.848-162.976 66.848-162.976 31.312-20.896 39.68-60.624 39.68-60.624z m-179.68 131.664c-10.432 119.072 29.248 117.008 29.248 117.008-45.968-31.36-4.176-162.976-4.176-162.976 12.528-31.36 14.656 0 14.656 0-18.832 35.488-12.544 68.928-12.544 68.928 10.416-83.584 87.76-94 87.76-94-56.448 81.456-52.272 167.152-52.272 167.152h2.128c-6.304 0-8.368 2.08-8.368 2.08-16.704-45.984 0-106.56 0-106.56-29.248 31.328-12.528 127.44-12.528 127.44-2.128 6.288-10.48 2.112-10.48 2.112-8.352 0-22.96 31.312-22.96 31.312-4.16 0-10.464-14.592-10.464-14.592-4.192 10.416 0 14.592 0 14.592 4.16 25.088 2.112 20.896 2.112 20.896-4.176 2.128-8.352-12.528-8.352-12.528-6.304 12.528 2.048 27.2 2.048 27.2l-2.048 12.528s-37.616-52.272-54.336-106.592c16.72-45.968 60.576-94 60.576-94z m-71.04 75.216s-4.192 27.136 64.8 137.92c0 12.528 0 25.056 2.048 37.6 0 0-50.144-45.968-62.672-129.552 0 0-6.24-39.728-4.176-45.968z m762.672 94s-14.656-16.72-18.832-8.352l14.656 12.528s0 25.072-29.248 27.2c0 0-10.48 14.592-43.92 14.592 0 0-20.88 2.128-27.12 8.368 0 0-8.368 6.288-37.616 4.16 0 0 8.352 4.192 25.072 4.192 0 0 10.416-2.064 12.544 2.112 0 0 16.704 6.24 16.704 8.368 0 2.048 43.84-25.088 60.576 0 0 0 4.16 8.352 8.352 8.352 0 0 2.112 10.416 0 12.528-2.064 2.08-8.352-6.288-8.352 0 0 0 14.64 2.08 8.352 18.784 0 0-12.544 18.832-29.248 4.176 0 0-22.96 4.176-29.248 0 0 0-18.784 60.64-112.832 43.904 0 0-37.616-8.352-54.336-62.672 0 0-22.96-98.24-114.88-73.168 0 0 58.496-4.16 85.632 33.44 0 0 20.896 16.704 33.44 66.864 0 0 14.64 35.536 52.256 41.776 0 0 27.136 2.128 8.352 37.616 0 0-10.464 16.72-33.44 29.248 0 0-8.352 4.192-6.288 10.48 0 0-2.064 12.544 10.48 2.064 0 0 48.032-27.136 62.688 10.48 0 0 4.16 8.352 0 10.4 0 0-4.192 0-6.304-4.16 0 0-4.176-10.432-10.416-8.368 0 0 12.528 8.368 8.352 25.072 0 0-10.464 12.544-14.656 0 0 0 4.192-22.944-12.528-18.768 0 0 16.72 12.528 4.176 25.072 0 0-6.24 4.176-18.768 2.064 0 0-6.304-8.368-37.616 0H403.808s-142.08-2.08-225.664-127.44c0 0-37.6-68.96-39.728-114.944l31.36 41.792-27.184-66.864v-45.968c0-8.352 2.128-16.72 2.128-20.896 2.064-8.352 10.4 64.8 73.104 144.208 8.352 33.44 25.072 54.32 25.072 54.32-16.72 0-39.68-23.008-39.68-23.008 25.072 39.728 62.688 50.144 62.688 50.144 50.144 41.792 100.288 52.256 100.288 52.256-35.536-8.352-75.2-41.776-75.2-41.776-37.632-29.264-56.464-77.344-56.464-77.344 0-16.72 18.848-45.968 18.848-45.968 25.072-37.6 89.808-48.032 89.808-48.032 37.6-2.112 83.584-10.464 83.584-10.464-10.416 4.16-25.072 35.536-25.072 35.536-2.08 4.176-18.784 6.24-18.784 6.24-73.152 8.368-87.76 37.616-87.76 37.616 12.544-10.416 35.504-18.784 35.504-18.784 12.528-6.288 58.496-8.352 58.496-8.352-18.768 71.04 8.368 127.424 8.368 127.424-25.088-77.28 10.464-133.728 10.464-133.728 45.968-68.912 121.2-83.568 121.2-83.568 27.12-8.368 93.984-25.072 93.984-25.072 45.968-16.72 68.992-48.032 68.992-48.032 10.4-16.72 33.44-27.2 41.776-31.36 0 6.288 4.192 12.528 10.432 16.704 0 0 8.352 2.112 4.16-12.544 0 0-8.352-8.352 4.192-27.12 0 0 14.656-16.72 25.072-18.832 0 0 18.832 14.64 20.896 29.248 0 0 79.392 12.528 89.872 81.52 0 0 2.064 12.528 2.064 16.704 0 0 0 8.368 8.352 20.896 4.192-4.176 16.72 16.72 10.48 27.136z" fill="#000000" p-id="4465"></path></svg>

