<svg t="1709277035224" class="icon" viewBox="0 0 1024 1024" version="1.1" xmlns="http://www.w3.org/2000/svg" p-id="4624" width="200" height="200"><path d="M822.639177 340.918857c-22.235429 0-43.739429 19.748571-42.715428 42.715429 1.097143 23.113143 18.724571 42.715429 42.715428 42.715428 22.235429 0 43.739429-19.748571 42.715429-42.715428-1.097143-23.113143-18.870857-42.715429-42.715429-42.715429z" p-id="4625"></path><path d="M1020.563749 450.56c13.677714-134.948571-92.16-203.629714-133.412572-228.571429-14.116571-39.277714-46.153143-84.260571-78.628571-96.841142a37.814857 37.814857 0 0 0-51.053715 28.964571c-25.819429 154.038857-103.936 193.609143-233.252571 257.316571 39.058286-85.284571 37.741714-155.867429 25.6-206.336A268.288 268.288 0 0 0 385.025463 19.382857 333.750857 333.750857 0 0 0 275.018606 0C112.05632 0 12.070034 127.122286 7.900891 132.461714a37.961143 37.961143 0 0 0 9.947429 55.369143c65.536 40.448 56.978286 89.526857 29.184 206.336C28.08832 474.185143 4.390034 573.659429 12.655177 695.881143 28.746606 938.057143 241.007177 1024 417.866606 1024l13.165714-0.219429c17.042286-0.731429 57.051429-1.462857 104.594286-2.194285 159.305143-2.413714 239.104-4.534857 261.193143-9.216a37.814857 37.814857 0 0 0 10.752-69.997715c-24.064-13.677714-33.792-28.013714-34.889143-36.790857l4.900571-9.069714c68.461714-89.965714 19.968-155.062857-6.217143-190.025143-4.827429-6.582857-9.874286-13.312-13.312-19.309714 67.657143 58.368 137.874286 47.616 155.355429-6.509714 9.216-28.525714-0.073143-58.953143-20.699429-73.581715-34.377143-29.403429-38.765714-50.468571-38.326857-63.341714 78.116571-0.731429 162.669714-30.427429 166.180572-93.257143z m-75.044572-7.753143c-4.900571 8.923429-44.324571 25.234286-93.988571 25.234286l-7.826286-0.146286a38.619429 38.619429 0 0 0-14.043429 2.048 77.970286 77.970286 0 0 0-50.395428 60.708572c-3.949714 20.918857-3.291429 59.465143 36.132571 105.618285a237.714286 237.714286 0 0 1-16.237714-13.897143c-30.427429-25.892571-83.382857-16.310857-106.569143 18.212572a76.068571 76.068571 0 0 0-6.144 72.411428c5.851429 14.043429 15.213714 26.697143 24.283429 38.765715 25.307429 33.865143 40.521143 54.272 10.752 94.354285-18.358857 17.334857-27.062857 42.422857-23.917715 68.608 0.950857 7.241143 3.072 16.822857 7.899429 27.648-54.052571 1.609143-124.342857 2.779429-171.008 3.510858-48.420571 0.731429-89.307429 1.462857-106.788571 2.194285l-9.728 0.146286c-52.150857 0-313.344-12.434286-329.654858-257.462857-7.533714-110.738286 13.750857-200.118857 32.475429-279.113143 24.210286-102.180571 45.568-192.146286-26.477714-260.461714 33.426286-30.500571 96.914286-75.483429 180.736-75.483429 27.940571 0 56.539429 5.12 84.187428 14.774857 45.275429 17.188571 99.766857 60.854857 117.028572 132.315429 14.336 59.611429 7.021714 157.696-110.592 287.451428-90.477714 111.542857-99.401143 239.542857-24.502857 351.305143a37.741714 37.741714 0 0 0 68.022857-30.793143l-4.388572-15.725714c-22.235429-77.677714-59.318857-207.872 128.877715-323.876571l21.065142-10.459429c117.321143-57.782857 213.430857-105.179429 258.925715-239.177143 1.901714 4.608 3.510857 9.216 4.608 13.824 2.194286 9.362286 7.826286 17.554286 15.798857 22.893715l9.728 5.997714c51.638857 31.012571 109.714286 76.946286 101.668571 158.573714z" p-id="4626"></path></svg>
