<svg  viewBox="0 0 1024 1024" version="1.1" xmlns="http://www.w3.org/2000/svg" ><path d="M93.867 263.902h186.94c12.757 44.63 53.82 77.431 102.485 77.431 48.674 0 89.736-32.802 102.494-77.431h444.347a21.333 21.333 0 1 0 0-42.667H489.028C482.398 168.747 437.555 128 383.292 128s-99.098 40.747-105.728 93.235H93.867a21.333 21.333 0 1 0 0 42.667z m289.425-93.235c35.294 0 64 28.697 64 63.983 0 35.302-28.706 64.017-64 64.017s-64-28.715-64-64.017c0-35.286 28.714-63.983 64-63.983z m546.841 332.168H723.038c-8.465-50.398-52.284-88.968-105.071-88.968s-96.606 38.57-105.071 88.968H93.866a21.333 21.333 0 1 0 0 42.667h420.506c11.29 46.788 53.393 81.698 103.595 81.698s92.296-34.91 103.595-81.698h208.571a21.333 21.333 0 1 0 0-42.667z m-312.166 81.698c-35.294 0-64-28.714-64-64.017 0-35.285 28.706-63.983 64-63.983s64 28.698 64 63.983c0 35.303-28.706 64.017-64 64.017z m312.166 191.369H489.028c-6.63-52.489-51.473-93.235-105.736-93.235s-99.098 40.746-105.728 93.235H93.867a21.333 21.333 0 1 0 0 42.667h186.94C293.563 863.198 334.634 896 383.3 896c48.674 0 89.737-32.802 102.494-77.431h444.34a21.333 21.333 0 1 0 0-42.667z m-546.841 77.431c-35.294 0-64-28.714-64-64.017 0-35.285 28.706-63.983 64-63.983s64 28.698 64 63.983c0.008 35.303-28.698 64.017-64 64.017z"  fill="#515151"></path></svg>