<svg  viewBox="0 0 1024 1024" version="1.1" xmlns="http://www.w3.org/2000/svg" p-id="5423" width="200" height="200"><path d="M507.612538 65.942092a1940.720703 1940.720703 0 0 1 311.509804 21.93731c95.792921 16.818604 101.64287 21.93731 117.730231 116.267744a2220.78703 2220.78703 0 0 1 0 614.975927c-16.818604 95.792921-21.93731 101.64287-116.267744 117.730231a1839.809077 1839.809077 0 0 1-302.73488 21.206067 1944.376922 1944.376922 0 0 1-312.241047-21.93731c-96.524165-16.818604-101.64287-21.93731-117.730231-116.998988a2210.549618 2210.549618 0 0 1 0-613.51344c16.818604-96.524165 21.93731-102.374114 116.267743-118.461475A1843.465295 1843.465295 0 0 1 507.612538 65.942092m0-65.811931a1967.045476 1967.045476 0 0 0-314.434779 21.937311C73.253797 43.273538 44.735294 73.254528 22.797984 193.909734a2266.855381 2266.855381 0 0 0 0 636.913238c21.206066 123.58018 48.993326 146.248734 171.842263 170.379775a1984.595324 1984.595324 0 0 0 322.478459 22.668554 1963.389257 1963.389257 0 0 0 313.703535-21.93731c123.58018-21.206066 146.248734-48.993326 170.379775-171.842263a2293.911397 2293.911397 0 0 0 0-636.913237C980.727193 73.254528 950.746203 44.736025 830.090997 22.798715A1981.670349 1981.670349 0 0 0 507.612538 0.130161z" fill="#444444" p-id="5424"></path><path d="M794.260057 789.873326a89.942972 89.942972 0 0 1-90.674215-87.74924 146.248734 146.248734 0 0 1 19.012335-65.080687L658.248734 392.808013a87.017997 87.017997 0 0 1-38.755914 0l-140.398785 219.373101A122.117693 122.117693 0 1 1 322.607889 804.4982a124.311424 124.311424 0 0 1-43.143376-93.59919 100.180383 100.180383 0 0 1 29.98099-81.899291L248.752278 466.663624h-8.774924A98.717896 98.717896 0 0 1 141.259459 365.751997a108.224063 108.224063 0 0 1 97.255408-96.524165 104.567845 104.567845 0 0 1 103.105358 110.417795 94.330434 94.330434 0 0 1-39.487159 59.230737l57.037007 153.561171a112.611525 112.611525 0 0 1 41.680889-7.312437 125.042668 125.042668 0 0 1 33.637209 0l138.936297-219.373101a104.567845 104.567845 0 0 1-33.637208-64.349443 92.867946 92.867946 0 0 1 97.986651-107.49282 98.717896 98.717896 0 0 1 97.255409 104.567845 113.342769 113.342769 0 0 1-31.443478 67.274418l83.361778 240.579168a92.136703 92.136703 0 0 1 90.674216 69.468149 89.211728 89.211728 0 0 1-85.55551 114.074012z" fill="#444444" p-id="5425"></path></svg>