<svg t="1709277964530" class="icon" viewBox="0 0 1024 1024" version="1.1" xmlns="http://www.w3.org/2000/svg" p-id="5638" width="200" height="200"><path d="M512.576 137.472c-6.784 0-26.688 7.04-26.688 7.04L219.776 272.704s-12.48 6.528-15.488 10.304c-3.072 3.84-6.016 15.872-6.016 15.872L130.56 595.52l-2.048 8.96s-1.664 7.232 1.088 12.672l3.84 7.68 5.312 8.32 193.92 241.28s5.76 7.68 9.6 9.6c3.84 3.84 17.408 1.92 17.408 1.92h305.664s15.36 0.704 19.392-1.92c5.76-3.84 12.16-13.44 12.16-13.44l184.32-231.232s12.8-15.936 14.272-22.4c1.92-15.424-3.2-31.36-3.2-31.36l-63.232-277.12s-3.328-18.944-7.04-24c-3.648-5.12-19.584-13.248-19.584-13.248L540.992 145.344s-21.12-7.744-28.416-7.872z" fill="#316CE4" p-id="5639"></path><path d="M777.792 570.368c-14.08-3.2-16.64-0.64-35.52-4.16a38.592 38.592 0 0 1-24.448-13.44h-0.192a206.4 206.4 0 0 0-32.128-140.608l0.32-0.256a52.48 52.48 0 0 1 16.256-22.656c15.424-11.392 18.88-10.176 30.144-19.2 8.704-6.976 11.52-17.92 6.208-24.576-5.376-6.656-16.64-6.4-25.344 0.576-11.264 8.96-10.88 12.608-25.408 25.152a38.4 38.4 0 0 1-25.792 10.752l-0.256 0.192A206.72 206.72 0 0 0 531.2 319.36v-0.896a52.672 52.672 0 0 1-7.68-26.88c0.704-19.2 3.84-21.12 3.84-35.52 0-11.136-6.848-20.16-15.36-20.16s-15.36 9.024-15.36 20.16c0 14.4 3.136 16.384 3.84 35.52 0.256 6.784 0 17.28-7.68 26.88v0.896A206.912 206.912 0 0 0 361.28 383.36a52.352 52.352 0 0 1-24.512-10.496c-14.592-12.608-14.08-16.192-25.408-25.152-8.704-6.976-20.032-7.232-25.344-0.64-5.248 6.72-2.496 17.728 6.208 24.768 11.264 8.96 14.72 7.68 30.144 19.2 5.312 3.84 12.992 10.368 16 21.632a206.336 206.336 0 0 0-31.808 141.44 52.16 52.16 0 0 1-23.168 12.288c-18.88 3.52-21.44 0.96-35.456 4.096-10.88 2.368-18.176 11.072-16.256 19.328 1.92 8.32 12.224 12.992 23.04 10.496 14.08-3.2 15.232-6.656 33.792-11.648a39.36 39.36 0 0 1 26.048 0.64 208 208 0 0 0 90.432 114.112l-1.088 1.92a52.672 52.672 0 0 1-4.736 27.52c-8.96 17.024-12.608 17.28-18.88 30.336-4.8 10.048-2.56 21.12 5.12 24.832 7.68 3.712 17.728-1.408 22.592-11.52 6.208-12.928 4.288-16 11.968-33.664a38.656 38.656 0 0 1 18.56-20.864l0.896-1.984a208 208 0 0 0 147.712-1.024 51.84 51.84 0 0 1 15.616 18.752c7.68 17.664 5.76 20.736 11.904 33.664 4.864 10.048 14.976 15.168 22.592 11.52 7.68-3.648 9.92-14.784 5.12-24.832-6.272-12.928-9.92-13.44-18.88-30.336a39.872 39.872 0 0 1-5.376-23.872A207.936 207.936 0 0 0 709.12 590.08h0.128a52.48 52.48 0 0 1 27.904-1.536c18.56 4.992 19.712 8.448 33.792 11.648 10.88 2.496 21.12-2.24 23.04-10.496 1.92-8.32-5.376-16.896-16.192-19.328zM628.48 408.768c-29.248 22.272-62.08 44.608-79.36 51.968a77.056 77.056 0 0 0-8.96-4.352c-3.84-14.72-7.488-56.32-8.768-94.528a164.672 164.672 0 0 1 97.088 46.912zM524.16 500.48l15.68 18.816-4.8 24.064-21.824 11.136-22.336-10.112-6.016-23.744 14.848-19.52 24.448-0.64z m-31.232-138.752c-0.896 37.056-3.968 76.8-9.024 94.592-3.584 1.472-7.04 3.2-10.304 5.184-15.552-7.68-49.28-30.208-78.592-52.16 26.24-26.496 60.8-43.264 97.92-47.552v-0.064zM346.88 525.76c0-30.464 8.32-60.416 24.32-86.4 28.096 23.424 57.216 50.432 68.736 65.92a75.84 75.84 0 0 0-1.92 9.152c-15.744 7.424-54.528 19.712-90.112 28.992a168.64 168.64 0 0 1-1.024-17.664z m76.288 139.2a165.44 165.44 0 0 1-66.816-84.032c35.2-7.296 74.048-13.184 93.888-12.8 1.728 2.56 3.648 5.056 5.76 7.36-1.92 13.312-16.96 53.376-32.832 89.472zM512 690.88a165.12 165.12 0 0 1-54.144-9.088c17.28-33.6 37.632-68.48 49.6-81.28a70.912 70.912 0 0 0 11.776-0.192c11.2 14.976 31.36 49.408 47.744 81.152a165.12 165.12 0 0 1-54.976 9.408z m89.344-26.24c-14.848-32.512-29.312-68.864-33.664-88.768 2.176-2.432 4.16-4.992 6.016-7.68 16.064-0.256 56.96 5.44 93.952 12.608-12.16 34.56-35.52 64-66.304 83.84z m74.88-121.28c-35.712-8.96-73.728-20.8-90.24-29.696a73.92 73.92 0 0 0-2.048-8.96c9.472-12.544 39.68-41.216 68.544-65.792a164.288 164.288 0 0 1 23.68 104.448z" fill="#F2F2F2" p-id="5640"></path></svg>
