<svg t="1709278002439" class="icon" viewBox="0 0 1024 1024" version="1.1" xmlns="http://www.w3.org/2000/svg" p-id="5797" width="200" height="200"><path d="M478.54 447.21c5.91-20.75 9.54-67.1 10.55-110.28a192.032 192.032 0 0 0-114.27 55.44c34.3 25.67 73.57 51.93 91.74 60.89 3.83-2.33 7.83-4.35 11.98-6.05zM427.31 504.33c-13.49-18.08-47.45-49.6-80.2-76.88a191.852 191.852 0 0 0-28.41 100.81c0.04 6.88 0.45 13.75 1.21 20.59 41.53-10.82 86.78-25.18 105.15-33.85 0.54-3.6 1.28-7.16 2.25-10.67zM329.75 592.57a193.039 193.039 0 0 0 77.96 98.05c18.53-42.09 36.07-88.84 38.28-104.37a82.7 82.7 0 0 1-6.72-8.65c-23.12-0.42-68.41 6.46-109.52 14.97zM486.72 549.94l26.05 11.81 25.47-12.97 5.62-28.12-18.32-21.93-28.5 0.74-17.31 22.76z" p-id="5798"></path><path d="M955.11 598.11L881.3 274.72s-3.88-22.13-8.18-28.02c-4.3-5.89-22.92-15.41-22.92-15.41L545.18 84.42s-24.69-9.07-33.18-9.23c-7.91 0-31.12 8.24-31.12 8.24L170.39 232.96s-14.56 7.64-18.08 12.05c-3.52 4.41-7.01 18.5-7.01 18.5L66.31 609.64l-2.37 10.44s-1.97 8.42 1.23 14.81l4.48 8.96 6.25 9.68 226.26 281.45s6.72 8.96 11.2 11.2c4.48 4.48 20.3 2.24 20.3 2.24H690.3s17.92 0.92 22.58-2.24c6.72-4.48 14.25-15.68 14.25-15.68l215.06-269.71s14.85-18.59 16.64-26.12c2.24-18.06-3.72-36.56-3.72-36.56z m-141.64 16.95c-16.38-3.72-17.76-7.75-39.4-13.57a61.124 61.124 0 0 0-32.57 1.77h-0.11a242.649 242.649 0 0 1-106.23 132.8 46.571 46.571 0 0 0 6.27 27.87c10.48 19.71 14.72 20.25 22.02 35.39 5.62 11.69 2.98 24.71-5.94 28.96-8.91 4.26-20.72-1.75-26.37-13.44-7.21-15.14-4.97-18.73-13.93-39.29a60.475 60.475 0 0 0-18.19-21.87 242.632 242.632 0 0 1-172.36 1.14l-1.03 2.35c-12.93 6.21-18.53 17.09-21.69 24.35-8.94 20.57-6.65 24.15-13.93 39.29-5.64 11.74-17.45 17.76-26.37 13.44-8.91-4.32-11.56-17.27-5.94-28.97 7.28-15.23 11.52-15.59 22.02-35.39a61.356 61.356 0 0 0 5.53-32.14l1.21-2.24A242.645 242.645 0 0 1 281 602.43c-12.1-4.99-23.19-2.73-30.42-0.78-21.64 5.8-23.03 9.83-39.4 13.58-12.61 2.89-24.64-2.58-26.88-12.23-2.24-9.65 6.27-19.8 18.95-22.54 16.38-3.72 19.38-0.69 41.4-4.84a60.877 60.877 0 0 0 27.02-14.34 245.398 245.398 0 0 1-2.24-32.84 240.75 240.75 0 0 1 39.29-132.17c-3.47-13.15-12.43-20.74-18.59-25.22-18.03-13.44-22.07-11.92-35.19-22.4-10.15-8.2-13.37-21.08-7.21-28.83 6.16-7.75 19.4-7.44 29.55 0.65 13.15 10.48 12.63 14.7 29.61 29.34a61.215 61.215 0 0 0 28.61 12.28 241.409 241.409 0 0 1 153.47-74.73v-1.03c8.96-11.2 9.27-23.45 8.96-31.36-0.85-22.38-4.48-24.64-4.48-41.44 0-12.99 8.02-23.52 17.92-23.52s17.92 10.53 17.92 23.52c0 16.8-3.63 19.04-4.48 41.44 0.11 11.07 3.2 21.91 8.96 31.36v1.03a241.201 241.201 0 0 1 152.17 73.34l0.32-0.29c14.43 0.02 24.12-7.37 30.11-12.54 16.98-14.63 16.49-18.86 29.61-29.35 10.15-8.11 23.34-8.38 29.57-0.65s2.94 20.56-7.21 28.67c-13.15 10.55-17.16 9.12-35.19 22.4a61.177 61.177 0 0 0-18.95 26.48l-0.38 0.27a240.746 240.746 0 0 1 39.49 132.68c0 10.49-0.68 20.96-2.02 31.36h0.2c8.92 11.2 20.79 14.22 28.59 15.68 22.02 4.15 25.02 1.12 41.4 4.86 12.66 2.87 21.12 12.9 18.88 22.56-2.25 9.66-14.24 15.12-26.89 12.23z" p-id="5799"></path><path d="M595.27 503.64a85.94 85.94 0 0 1 2.4 10.51c19.28 10.37 63.61 24.14 105.24 34.62 0.73-6.81 1.09-13.66 1.1-20.51 0.08-35.81-9.88-70.92-28.74-101.37-33.74 28.72-68.95 62.14-80 76.75zM554.66 452.38c20.16-8.62 58.49-34.65 92.63-60.64a192.08 192.08 0 0 0-113.31-54.77c1.46 44.56 5.76 93.1 10.24 110.33 3.59 1.47 7.07 3.17 10.44 5.08zM576.3 586.68c5.13 23.21 21.95 65.68 39.29 103.56a193.233 193.233 0 0 0 77.4-97.76c-43.12-8.4-90.88-15.08-109.66-14.76a85.529 85.529 0 0 1-7.03 8.96zM511.36 615.62c-1.77 0-3.54-0.07-5.29-0.18-14 14.87-37.73 55.6-57.89 94.83a192.705 192.705 0 0 0 63.17 10.64c21.85 0.01 43.55-3.7 64.16-10.98-19.18-37.07-42.67-77.26-55.76-94.71-2.77 0.27-5.57 0.4-8.39 0.4z" p-id="5800"></path></svg>
