<svg  class="icon" viewBox="0 0 1024 1024" version="1.1" xmlns="http://www.w3.org/2000/svg" ><path d="M834.6 757.5h-59.5V651.3c0-14.1-11.5-25.7-25.7-25.7h-8.7c-14.1 0-25.7 11.5-25.7 25.7v128.5c-0.1 1.1-0.2 2.2-0.2 3.4v8.7c0 14.1 11.5 25.7 25.7 25.7h94.1c14.1 0 25.7-11.5 25.7-25.7v-8.7c-0.1-14.1-11.6-25.7-25.7-25.7z" fill="#515151" p-id="40347"></path><path d="M745.5 529c-119 0-215.5 96.5-215.5 215.5S626.5 960 745.5 960 961 863.5 961 744.5 864.5 529 745.5 529z m110 325.5c-29.4 29.4-68.4 45.5-110 45.5s-80.6-16.2-110-45.5S590 786 590 744.5s16.2-80.6 45.5-110S704 589 745.5 589s80.6 16.2 110 45.5S901 703 901 744.5s-16.2 80.6-45.5 110z" fill="#515151" p-id="40348"></path><path d="M458 859H125V404.7h727V449c0 16.5 13.5 30 30 30s30-13.5 30-30V180c0-33-27-60-60-60H706V94c0-16.5-13.5-30-30-30s-30 13.5-30 30v26H333V94c0-16.5-13.5-30-30-30s-30 13.5-30 30v26H125c-33 0-60 27-60 60v679c0 33 27 60 60 60h333c16.5 0 30-13.5 30-30s-13.5-30-30-30zM273 180v22c0 16.5 13.5 30 30 30s30-13.5 30-30v-22h313v22c0 16.5 13.5 30 30 30s30-13.5 30-30v-22h146v164.7H125V180h148z" fill="#515151" p-id="40349"></path><path d="M330.1 504.6c0-5.5-4.5-10-10-10h-84.4c-5.5 0-10 4.5-10 10V589c0 5.5 4.5 10 10 10h84.4c5.5 0 10-4.5 10-10v-84.4zM320.1 677.9h-84.4c-5.5 0-10 4.5-10 10v84.5c0 5.5 4.5 10 10 10h84.4c5.5 0 10-4.5 10-10v-84.5c0-5.5-4.5-10-10-10zM446.3 494.6c-5.5 0-10 4.5-10 10V589c0 5.5 4.5 10 10 10h84.4c5.5 0 10-4.5 10-10v-84.5c0-5.5-4.5-10-10-10h-84.4zM446.3 677.9c-5.5 0-10 4.5-10 10v84.5c0 5.5 4.5 10 10 10h57.1c-1.6-10.7-2.5-21.7-2.5-32.8 0-25.1 4.3-49.2 12.2-71.6h-66.8z" fill="#515151" ></path></svg>