<svg  class="icon" viewBox="0 0 1024 1024" version="1.1" xmlns="http://www.w3.org/2000/svg" ><path d="M558.72 692.266667a344.149333 344.149333 0 0 1-105.642667 16.426666 341.76 341.76 0 0 1-117.162666-20.309333 58.496 58.496 0 0 0-20.224-3.498667c-14.464 0-31.232 4.650667-52.522667 14.421334 0.512-29.653333-4.309333-50.602667-21.290667-64.896-58.538667-49.365333-90.794667-115.285333-90.794666-185.6 0-143.317333 135.466667-259.84 301.994666-259.84 166.485333 0 301.952 116.522667 301.952 259.84 0 2.816-0.085333 5.632-0.170666 8.448a84.48 84.48 0 0 1 89.813333 15.701333c0.597333-7.978667 0.938667-16.042667 0.938667-24.149333 0-193.578667-176.085333-351.061333-392.533334-351.061334-216.490667 0-392.533333 157.482667-392.533333 351.061334 0 91.733333 40.618667 180.48 112.042667 245.76 0.042667 14.506667-2.56 43.306667-8.106667 77.056-3.072 18.517333 5.034667 37.12 20.693333 47.445333a46.805333 46.805333 0 0 0 51.456 0c36.736-24.106667 64.810667-38.058667 76.8-42.026667 44.501333 15.146667 91.477333 22.826667 139.648 22.826667 61.269333 0 119.338667-12.629333 171.093334-35.114667a85.504 85.504 0 0 1-65.450667-72.533333" fill="#2A8CF4" p-id="12507"></path><path d="M939.306667 624.896c-25.088 0-46.037333 17.749333-50.986667 41.386667a120.32 120.32 0 0 1-50.218667 93.141333 13.354667 13.354667 0 0 0 19.2 18.474667c0.682667-1.024 1.408-1.962667 2.133334-2.901334v-0.085333a120.32 120.32 0 0 1 89.472-46.72 52.138667 52.138667 0 0 0-9.6-103.296" fill="#31A8FF" p-id="12508"></path><path d="M836.778667 521.6a52.138667 52.138667 0 1 0-61.952 60.586667 120.32 120.32 0 0 1 93.141333 50.218666 13.354667 13.354667 0 0 0 18.474667-19.2 240.469333 240.469333 0 0 1-2.986667-2.133333 120.32 120.32 0 0 1-46.677333-89.472" fill="#53E000" p-id="12509"></path><path d="M691.84 683.648a120.32 120.32 0 0 1 45.525333-78.421333l3.584-2.645334a13.354667 13.354667 0 0 0-19.2-18.474666l-2.090666 2.858666h-0.042667a120.32 120.32 0 0 1-89.472 46.762667 52.138667 52.138667 0 1 0 60.586667 61.952c0.170667-4.053333 0.512-8.106667 1.109333-12.032" fill="#FCE117" p-id="12510"></path><path d="M804.266667 779.776a120.32 120.32 0 0 1-93.141334-50.218667 13.354667 13.354667 0 0 0-18.602666 19.072l0.128 0.085334a232.32 232.32 0 0 1 2.901333 2.176 120.277333 120.277333 0 0 1 46.762667 89.429333 52.138667 52.138667 0 1 0 61.952-60.586667" fill="#F96600" ></path></svg>