<svg class="icon" viewBox="0 0 1024 1024" version="1.1" xmlns="http://www.w3.org/2000/svg" ><path d="M739.55584 348.096l-0.128-0.32a280.256 280.256 0 0 0-50.24-71.424c-54.016-55.68-130.88-93.44-217.6-103.104a396.992 396.992 0 0 0-90.624 0h-0.128c-87.936 9.728-165.632 47.232-219.264 102.592-21.376 22.336-38.4 46.272-50.944 71.808a241.92 241.92 0 0 0-24.96 107.072c0 47.168 14.208 94.656 42.176 136.576l0.256 0.384c16.704 25.344 46.592 59.328 69.888 78.08l41.92 33.856-8.96 37.376 22.528-11.392 30.208-15.36 32.512 9.6a369.92 369.92 0 0 0 64.64 12.416h0.32c14.592 1.664 29.184 2.56 43.712 2.56 15.168 0 30.912-0.896 46.72-2.56a373.12 373.12 0 0 0 57.472-11.008c4.032 29.824 18.368 57.024 39.744 77.184a459.712 459.712 0 0 1-87.936 18.56 523.264 523.264 0 0 1-56 3.136c-17.792 0-35.648-1.024-53.44-3.072a454.976 454.976 0 0 1-79.36-15.36l-121.216 61.312s-12.416 5.632-18.816 5.632c-17.792 0-29.952-12.16-29.952-30.08 0-10.752 2.88-25.472 5.504-35.84l16.832-70.464c-31.04-25.024-66.688-65.92-87.552-97.6a327.232 327.232 0 0 1-22.912-328.512 371.2 371.2 0 0 1 66.176-93.44c68.736-71.04 165.44-116.544 271.296-128.32a482.112 482.112 0 0 1 109.44 0c105.344 11.776 201.024 57.728 269.76 128.768 27.008 28.16 49.408 59.776 65.664 93.44 19.84 40.384 32.832 82.752 32.832 127.168a130.56 130.56 0 0 0-85.376-0.256c0-27.52-8-56.704-24-89.152l-0.128-0.256z m176 297.664l-1.024-1.024-1.024-0.768a6.528 6.528 0 0 1-0.96-0.768l-4.096-4.032a181.12 181.12 0 0 1-49.92-93.504 23.488 23.488 0 0 0-0.256-3.2l-0.192-2.432-1.536-6.144a54.592 54.592 0 0 0-15.296-26.048 59.136 59.136 0 0 0-83.456 0 59.712 59.712 0 0 0 0 83.84 58.816 58.816 0 0 0 28.48 15.808c1.024 0.512 2.56 0.512 3.584 0.512 0.512 0 1.152 0.128 1.792 0.256 0.64 0.128 1.28 0.256 1.728 0.256a181.12 181.12 0 0 1 100.8 56.704 13.824 13.824 0 0 0 19.84 0 14.912 14.912 0 0 0 1.536-19.456z m-44.8 186.496l-1.024 1.024c-5.12 4.096-13.248 4.096-19.328-1.536a13.888 13.888 0 0 1 0-19.904c1.984-1.536 4.032-3.52 6.016-5.568l0.064-0.064a182.336 182.336 0 0 0 50.688-97.28c0.128-0.64 0.256-1.28 0.256-1.856 0-1.024 0-2.56 0.512-3.584a59.136 59.136 0 0 1 99.2-28.608 59.648 59.648 0 0 1-25.92 99.2l-6.144 1.472a18.496 18.496 0 0 0-2.368 0.256c-1.024 0.128-2.112 0.256-3.2 0.256a179.968 179.968 0 0 0-93.12 50.048l-4.096 4.096-0.768 1.024a7.04 7.04 0 0 1-0.768 1.024z m-187.328-44.928l1.024 0.96c0.256 0.32 0.64 0.512 1.024 0.768l1.024 0.768 4.032 4.096c26.496 26.56 43.264 59.264 49.92 93.504 0 1.088 0.128 2.176 0.256 3.2 0.128 0.896 0.256 1.728 0.256 2.432l1.536 6.144a59.136 59.136 0 0 0 98.752 26.048 59.648 59.648 0 0 0 0-83.84 58.816 58.816 0 0 0-28.544-15.808c-1.024-0.512-2.56-0.512-3.584-0.512-0.512 0-1.088-0.128-1.728-0.256a181.12 181.12 0 0 1-102.592-56.96 13.824 13.824 0 0 0-19.84 0 13.888 13.888 0 0 0-1.536 19.456z m44.288-185.984l1.024-1.024a13.696 13.696 0 0 1 19.328 1.536 13.888 13.888 0 0 1 0 19.904 60.288 60.288 0 0 0-6.016 5.568l-0.064 0.064a182.272 182.272 0 0 0-50.944 99.136c0 1.024 0 2.56-0.512 3.584a59.136 59.136 0 0 1-99.2 28.608 59.648 59.648 0 0 1 25.92-99.2l6.144-1.472a18.496 18.496 0 0 0 2.368-0.256c1.024-0.128 2.112-0.256 3.2-0.256a180.032 180.032 0 0 0 93.184-50.048l4.032-4.096a7.232 7.232 0 0 0 0.768-1.024 6.592 6.592 0 0 1 0.768-1.024z" ></path></svg>