<svg  class="icon" viewBox="0 0 1024 1024" version="1.1" xmlns="http://www.w3.org/2000/svg"  width="200" height="200"><path d="M512 1024c-80.64-74.88-77.354667-159.701333-77.354667-159.701333h154.709334S592.64 949.12 512 1024z m0-939.178667c-68.053333 89.856-200.234667 294.101333-200.234667 524.416 0 66.645333 12.501333 122.453333 25.130667 161.834667h350.208c12.629333-39.381333 25.130667-95.189333 25.130667-161.834667 0-230.314667-132.181333-434.56-200.234667-524.416z m253.866667 524.416c0 151.722667-58.154667 251.861333-58.154667 251.861334l-62.208-36.394667H378.496l-62.208 36.394667S258.133333 760.96 258.133333 609.237333C258.133333 275.029333 511.914667 0.085333 512 0c0.085333 0.085333 253.866667 275.029333 253.866667 609.237333z m35.114666 99.626667c0 58.154667-25.813333 121.386667-43.605333 148.053333h123.264l-13.653333-83.84-66.005334-64.213333zM157.013333 773.12l-13.653333 83.84h123.264c-17.834667-26.666667-43.605333-89.898667-43.605333-148.053333L157.013333 773.12z m306.645334-242.005333a11.946667 11.946667 0 1 0 0 23.808 11.946667 11.946667 0 0 0 0-23.808z m38.186666 0a11.946667 11.946667 0 1 0 0 23.808 11.946667 11.946667 0 0 0 0-23.808z m38.186667 0a11.946667 11.946667 0 1 0 0 23.808 11.946667 11.946667 0 0 0 0-23.808z m130.474667 150.698666a61.653333 61.653333 0 1 1-115.2-30.677333l-15.402667-21.034667a94.677333 94.677333 0 0 1-99.626667-14.72l-17.194666 14.933334a36.906667 36.906667 0 1 1-36.053334-29.184c4.437333 0 8.618667 0.896 12.544 2.346666l18.304-15.914666a94.592 94.592 0 0 1 8.277334-101.973334l-19.242667-20.906666c-1.408 0.170667-2.773333 0.426667-4.181333 0.426666a31.36 31.36 0 1 1 30.549333-24.490666l19.413333 21.12a94.592 94.592 0 0 1 95.872-1.536l16.426667-16.426667a48.810667 48.810667 0 1 1 30.293333 30.293333l-15.061333 15.061334a94.634667 94.634667 0 0 1-5.888 115.370666l14.037333 19.157334c6.442667-2.261333 13.312-3.584 20.522667-3.584a61.738667 61.738667 0 0 1 61.610667 61.738666z m-168.661334-63.957333a74.837333 74.837333 0 1 0 0-149.632 74.837333 74.837333 0 0 0 0 149.632z"  fill="#515151"></path></svg>