<svg  class="icon" viewBox="0 0 1024 1024" version="1.1" xmlns="http://www.w3.org/2000/svg" ><path d="M889.6 251.6c8-8.6 19.4-18.8 28.4-31 10.6-14.4 18.4-32.2 39.2-28 21.2 4.4 37 18 42.4 41.2 8.8 38 17.6 76.4 21.8 115.2 6 53.4 1.2 106.4-18.4 156.6-31.2 79.4-96 113.2-168.2 105-19.8-2.2-28.8 0-35 24-11.8 45-76.4 83.2-119.4 38.4-9.8-10.2-19.8-20.2-33-28.4 5.6 17.6 12 35 16.6 53 3.8 14.4 5.8 29.4 7.8 44.4 2.8 21 3.8 42.4 7.2 63.2 6.6 39.8-8.6 62-45 61-29.4-0.8-58.6-4.6-88-6.8-2.2-0.2-5.2 0-6.8 1.6-15.4 15.6-33.4 29.2-45.4 47.8-24 37.2-66.2 45.6-93.2 11.4-18.8-24-33.6-52.6-47.4-80.8-9.8-20-9-41.4 12.8-59h-46.4c-8.6 22.2-17.8 42.4-24.2 63.6-4.6 15.4-5.6 32-8.6 48-4.6 24.2-13 33.6-35.2 34.4-41.4 1.8-80.6-11-118-29.4-19-9.4-23.6-26.4-17.2-48.4 2-7.2 5-14 6-17.2-22.6-13.2-45.4-23.4-65-38.6-24-18.6-39.6-45.8-41.6-79.4-0.6-10 4.2-22 9.6-30.6 7-11.2 17.8-19.2 25.8-29.6 13.4-17.2 19.6-36.8 18.4-60.4-1.6-33-0.4-66.2-0.4-94.8-16.4-9-34.6-12.4-41.6-24.2-12.6-21-23.2-46.4-26-71-4-33.6 38.6-76 78.8-85.8 2.2 29.8 4.6 59.4 6.8 89-2 0.4-3.8 1-5.8 1.4l-11.6-11.6c-3.6 11.6-6.6 22.2-9.8 32.8 1.2 1.6 2.4 3 3.6 4.6 12-12.4 27.6-22.4 35.2-37.4 49.2-97.4 127.8-142.2 222-159.6 17.2-3.2 30.6-10.4 42.8-24.4 15.8-18.2 31.8-36.4 56.6-40.4 6.4-1 12-11 17-17.6 59-78 135-107.8 224-96.4 35.2 4.4 63.6 28.4 90.8 52.8 26.8 22.4 55 43.8 80 69.2 19.8 20 35.8 44.6 57.6 72.2zM434.2 775.8c-7.6 1.8-14.2 2-19.6 4.8-9.4 5-17.8 12.6-27 17.8-13.6 7.6-16.2 19.6-9.4 32.6 12 23.2 24 46.8 39.2 67.2 15.6 21 38 17 53.8-4.6 7.2-10 15.8-19 24.4-27.6 20.4-20 44.2-36.6 61.2-59.6 36.2-49.4 54.6-109 68.4-170.2 2.6-11.8-0.8-18.4-10.6-24.6-12.4-8-23-19.4-34.6-29.4 1.4-2 2.6-4 4-6 31 23.8 70.4 30.8 96.8 64.6 8.2 10.6 19.6 19.8 31.4 24.6 35.4 14.8 71.4-18 73.4-69.6-12.2 26.8-19.4 60.8-55.8 52.2 6 1.2 12 2.4 20.2 4.2-26.2 16.6-49.8 3-47.8-26.2 1.8-26.8 7.4-53.4 10.6-74.6 39 11 78.4 24.2 118.4 32.6 68.2 14.2 126-24 152.2-96 21.2-58 19.8-117.8 10.2-177.6-4.2-26.2-10.6-52.8-20.2-77-8.8-22.4-20.2-20.8-35.2-2.8-11.8 14.4-24.8 29.2-39.8 38.4-24 14.6-25.4 14-21 46 5.2 37.8-3.4 72.8-17 107 1.6-28.6 3.2-57.2 4.8-87.6-35.4 3.4-31.8 38.2-43.8 58.6-1.8-0.8-3.6-1.4-5.4-2.2 4.8-20.8 9.4-41.6 14.2-62.4-6.4 4.2-15.2 8-21.6 14.8-6.6 7.2-11 17.2-16.2 25.8-1.8-1.4-3.6-2.8-5.4-4 8.8-13.8 15-32 26.8-40.4 12-8.6 29.4-7.6 45-11-6.8-20.4-26-5-38-14 5.8-2.8 11.2-5.4 16.4-8 0.2-2.2 0.4-4.6 0.6-6.8-7.6-1.6-15-3-23.8-4.8-1.2-2.4-3.4-7.6-6.4-14.2 8.2-4 15.8-8.8 24-11.4 7.8-2.4 16.2-2.2 24.2-3.2-17.4-42.8-36.8-61.6-75-71.6 1-19-71.8-83.4-107.6-95.2C601 60.6 488 106.6 454 175.2h43.6c-19.2 7.2-38.4 11.8-57.8 14.4-20 2.6-36.4 11.4-49.8 28.4-29.4 37.2-60.8 72.8-88.4 111.6-19.4 27.2-35.4 57.8-49.8 88.8-4.8 10.6-3.6 29.4 1.6 40.4 10.2 21.4 25 40 38 59.8 14.4-19.4 28.6-38.2 42.6-57 1.4 7.2-0.6 11.4-2.6 15.6-12 25-25 49.4-35.8 74.8-10.8 25.2-7.6 38 10.4 56.6 22.2 22.8 48.8 26.4 76.8 11 30.4-16.6 60-37 92-47.2 24-7.6 33.6-21.6 33.4-45 0-39.2-2.4-78.4-5.2-117.4-2.2-32.6-4.4-64.8 5.4-96.6 2.6 3.6 3.8 7.2 4.2 11 5.2 38.8 9.8 77.8 15.4 116.6 6.4 43.8 5.2 87-8.4 128.8-2.2 6.6-8.4 15.2-13.6 16.2-38.2 6-70.4 27.8-103.4 47.6-53.6 32.4-82.6 26.2-124.6-23.2-9-10.6-13.6-20.8-8.4-35 9.6-26.8 2.6-49.4-13.4-70.4-7.6-10-14-21-20.6-31.8-11.6-19.4-14-40-3.8-60.8 13-26.6 25.8-53.4 41.2-78.2 15-24 33-45.4 49.8-68-21.2 0.8-40.4 4.8-59 11.2-106.2 35-181 151-176.6 272.6 2.4 64.4 20.6 124.4 52.2 177C160.4 762 160.4 794 149.2 830c-1.6 5.2-3 10.6-4.8 15.8-6 16.4-0.4 28.8 13.2 32.8 28 8 56.4 14.2 84.8 19.6 13 2.4 18.8-6 21.6-21.4 3.4-19 11.6-37 16.6-55.6 4.4-16.6 8.8-33.8 10.6-51 1.8-17 0.4-34.6 0.4-52 1.8-0.2 3.6-0.4 5.2-0.6 1.2 2.8 3.6 5.8 3.4 8.6-0.2 21.6 11.4 26.8 27.6 26.6 18.4-0.2 37 0 55.4 0 21.8 0 41.6-3.6 46.8-33.4 0.2-0.8 1.8-1 3.8-2.2 0.4 20.6 0.4 40.4 0.4 58.6z m-348-116.2c-11 9.8-25 21-37.4 34.2-4.6 4.8-7.8 14.4-7.2 21.4 2.6 32 45.4 77.4 73.2 77.8 6.2 0 14-5.2 18.2-10.8 3-3.8 3.2-13.4 1-18.4-16.4-37.4-34-74.4-47.8-104.2z m482.2 181c20.2 0 42.2 0.4 64-0.2 18.4-0.4 25.6-11.6 23-32.2-2.8-22.4-3.6-45-6.8-67.4-2.6-19.2-7-38.2-10.8-57.6-23.4 53.2-45.6 103.8-69.4 157.4zM85.2 441.2c-8.6 4.2-15.6 9.6-23 10.8-5.6 0.8-14-1.6-17.4-6.2-3.8-5.4-6-15-4.6-22 4.8-24.6 11.2-48.6 18-76.6-38.4 30-42.8 45.6-28.2 87.8 0.8 2.6 1 5.4 2 8 4.6 12.8 8.2 26 24.6 25.4 15.4-0.8 26.4-5.6 28.6-27.2z" fill="" p-id="5723"></path><path d="M740.4 321.8c-24.8 18.4-49.2 36.4-73.6 54.4-1.2-1-2.2-2-3.4-2.8 8.2-10.4 16.4-20.6 24.6-31-13.4-13.6-18-12-25.8 9.6-4-4.6-7.4-8.8-11.2-13.4-4.2 2-8.6 4-12.8 6-1-1.8-2.2-3.4-2-4 22.4-41 38.8-53.4 72.2-55.2 0.2 19.2 14.6 35.6 32 36.4zM426.8 250l-41.4 90c-1.2-0.6-2.6-1.2-3.8-1.8 8.8-26.8 17-54.2 26.8-80.6 8.8-23.8 25.8-35.4 49.4-36 14-0.2 28-2.6 43.6-1.6-36.6 8.4-59 32.2-71 71.8v-40.4c-1.2-0.2-2.4-0.8-3.6-1.4zM646.6 219c-10.2 10.8-18.8 18-25.4 27.4-6.4 9.4-10.6 20.8-16.4 32.6-7.2-30.8 7.4-52.4 41.8-60zM684.4 558.6c-3.6-27.4 4-36.4 23-36.4-7.4 6.6-19.2 17-31 27.4 2.8 3 5.4 6 8 9z" fill="" ></path></svg>