<svg  class="icon" viewBox="0 0 1088 1024" version="1.1" xmlns="http://www.w3.org/2000/svg" p-id="6109" width="200" height="200"><path d="M366.592 154.24h353.472S567.808 231.616 555.776 407.168c0 0-55.168-1.6-80.512 45.12 0 0-66.56 14.912-69.76 25.28 0 0 131.392 23.424 137.92 135.36 4.864 83.392-37.312 169.088-109.376 222.016-76.288 56.128-187.264 48.64-242.112 45.44 0 0 76.608-6.208 91.2-71.104 14.592-64.896 136-553.664 140.8-573.12 4.928-19.52 7.488-70.4-54.464-71.744l-2.944-10.048z" fill="#707070" p-id="6110"></path><path d="M945.6 128.32s-172.992-11.328-276.48 105.152c-103.552 116.48-88.96 205.12-88.96 205.12s-58.432-11.712-86.016 31.168c0 0-18.496-0.32-30.528 10.368 0 0 120.448 29.504 121.088 144.448 0.96 114.88-104.832 254.4-222.976 279.68 0 0 333.952-10.304 358.336-239.104 16.832-158.08-151.296-185.024-151.296-185.024s33.152-20.096 62.72-20.096c0 0 32.064-50.624 84.352-48 0-0.384 4.48-211.648 229.76-283.712z" fill="#707070" p-id="6111"></path><path d="M563.584 882.88h185.344c64.896 0 190.784-64.256 206.08-198.272 15.232-134.08-81.472-196.352-132.736-215.808 0 0 123.648-21.76 157.696-132.736 30.528-99.648 0-160-42.88-160.384-42.752-0.32-180.032 68.8-197.888 263.872 0 0-55.552-16.896-85.376 28.544 0 0-22.08 2.944-29.888 8.448 0 0 132.48 26.304 127.552 175.296-6.144 190.464-187.904 231.04-187.904 231.04z" fill="#707070" p-id="6112"></path></svg>