<svg  class="icon" viewBox="0 0 1024 1024" version="1.1" xmlns="http://www.w3.org/2000/svg" p-id="11433" ><path d="M83.190376 1.375086C-3.905059 455.429005 48.554538 859.316162 512.170923 1022.983699 975.788848 859.316162 1028.245365 455.429005 941.148391 1.375086 660.985071 51.651176 363.356776 49.339862 83.190376 1.375086L83.190376 1.375086zM293.632385 622.553504l451.249853 0C744.883777 857.132656 293.632385 857.132656 293.632385 622.553504L293.632385 622.553504zM428.831182 365.455591c-97.182989 12.326496-173.299296-4.835128-230.276812-48.957979C279.679808 136.787922 438.021005 257.478256 428.831182 365.455591L428.831182 365.455591zM608.034262 365.455591c-9.168265-107.977335 149.172932-228.667669 230.278352-48.957979C781.379753 360.620463 705.215711 377.782087 608.034262 365.455591L608.034262 365.455591z" fill="#8a8a8a" p-id="11434"></path></svg>