<svg  class="icon" viewBox="0 0 1024 1024" version="1.1" xmlns="http://www.w3.org/2000/svg" ><path d="M1004.749 296.448a38.502 38.502 0 0 1-51.2-12.083 538.829 538.829 0 0 0-272.896-209.46 38.451 38.451 0 0 1-24.883-46.08 38.246 38.246 0 0 1 49.1-26.828A615.475 615.475 0 0 1 1017.55 241.92a38.4 38.4 0 0 1-12.8 54.528zM368.23 28.621a38.246 38.246 0 0 0-49.1-26.624A615.475 615.475 0 0 0 6.45 241.92a38.4 38.4 0 0 0 12.8 54.528 38.502 38.502 0 0 0 51.2-12.083 538.829 538.829 0 0 1 272.896-209.46 38.451 38.451 0 0 0 24.883-46.284zM512 204.8a409.6 409.6 0 1 0 409.6 409.6A409.6 409.6 0 0 0 512 204.8z m0 742.4a332.8 332.8 0 1 1 332.8-332.8A332.8 332.8 0 0 1 512 947.2z m230.4-294.4a38.502 38.502 0 0 1-38.4 38.4H473.6a38.502 38.502 0 0 1-38.4-38.4V422.4a38.4 38.4 0 0 1 76.8 0v192h192a38.502 38.502 0 0 1 38.4 38.4z" p-id="4969"></path></svg>