<svg   viewBox="0 0 1024 1024" version="1.1" xmlns="http://www.w3.org/2000/svg" ><path d="M512.268865 0a372.230818 372.230818 0 0 1 372.044702 360.598605 372.230818 372.230818 0 0 1-367.25223 637.817506l-4.699414-1.861154A372.230818 372.230818 0 0 1 140.177634 360.691662l0.558346-11.539155A372.230818 372.230818 0 0 1 512.268865 0z m0 93.057704a279.173113 279.173113 0 0 0-192.257217 481.666678 92.82506 92.82506 0 0 0-39.596053 88.77705 372.416933 372.416933 0 0 1-125.488315-186.906399 279.173113 279.173113 0 1 0 487.017496 248.789773c15.633694 11.957915 35.222341 19.076829 56.439498 19.076829 13.028079 0 25.404753-2.652145 36.664736-7.491145a372.091231 372.091231 0 0 1-114.228333 191.884987 279.173113 279.173113 0 1 0-15.633694-552.762765L605.32657 372.230818a93.057704 93.057704 0 0 0-47.366372-81.09979A372.230818 372.230818 0 0 1 651.855422 279.173113c46.063564 0 90.172916 8.375193 130.885661 23.636657A279.266171 279.266171 0 0 0 512.268865 93.057704z" fill="#515151" ></path><path d="M372.682309 558.346226a93.057704 93.057704 0 1 1 0 186.115409 93.057704 93.057704 0 0 1 0-186.115409z m325.701965 0a93.057704 93.057704 0 1 1 0 186.115409 93.057704 93.057704 0 0 1 0-186.115409z m-186.115409-279.173113a93.057704 93.057704 0 1 1 0 186.115409 93.057704 93.057704 0 0 1 0-186.115409z" fill="#515151" ></path></svg>