<svg  viewBox="0 0 1024 1024" version="1.1" xmlns="http://www.w3.org/2000/svg" ><path d="M512 199.111111a227.555556 227.555556 0 0 1 227.441778 220.444445 227.555556 227.555556 0 0 1-224.512 389.916444l-2.872889-1.137778a227.555556 227.555556 0 0 1-227.527111-388.721778l0.341333-7.054222A227.555556 227.555556 0 0 1 512 199.111111z m0 56.888889a170.666667 170.666667 0 0 0-79.672889 321.649778l6.229333 3.128889-24.519111 51.313777a227.726222 227.726222 0 0 1-120.490666-141.624888 170.666667 170.666667 0 1 0 303.672889 113.265777L597.333333 597.333333h56.888889a226.986667 226.986667 0 0 1-75.861333 169.614223 170.666667 170.666667 0 1 0-49.976889-325.802667l-7.964444 3.783111-25.656889-50.773333A226.702222 226.702222 0 0 1 597.333333 369.777778c28.16 0 55.125333 5.12 80.014223 14.449778A170.723556 170.723556 0 0 0 512 256z" fill="#037458" p-id="2276"></path><path d="M426.666667 540.444444a56.888889 56.888889 0 1 1 0 113.777778 56.888889 56.888889 0 0 1 0-113.777778z m199.111111 0a56.888889 56.888889 0 1 1 0 113.777778 56.888889 56.888889 0 0 1 0-113.777778z m-113.777778-170.666666a56.888889 56.888889 0 1 1 0 113.777778 56.888889 56.888889 0 0 1 0-113.777778z" fill="#037458" ></path></svg>