<svg  class="icon" viewBox="0 0 1024 1024" version="1.1" xmlns="http://www.w3.org/2000/svg" ><path d="M307.2 238.9504C307.2 220.0576 322.4576 204.8 341.3504 204.8H460.8a153.6 153.6 0 0 1 111.36 259.3792A179.0976 179.0976 0 0 1 537.6 819.2H341.3504A34.1504 34.1504 0 0 1 307.2 785.0496V238.9504z m230.4 307.2H392.5504v187.6992H537.6a93.8496 93.8496 0 0 0 3.7888-187.648l-3.7888-0.0512z m-76.8-256H392.5504v136.4992H460.8a68.2496 68.2496 0 0 0 3.4304-136.448L460.8 290.1504z" fill="#515151" ></path></svg>