<svg  class="icon" viewBox="0 0 1024 1024" version="1.1" xmlns="http://www.w3.org/2000/svg" ><path d="M738.437565 222.608696l-107.475478-107.475479a44.521739 44.521739 0 0 1 62.953739-62.953739l165.843478 165.843479A44.432696 44.432696 0 0 1 895.510261 267.130435a44.432696 44.432696 0 0 1-35.750957 49.107478l-165.843478 165.843478a44.521739 44.521739 0 1 1-62.953739-62.953739L738.437565 311.652174H311.652174a222.608696 222.608696 0 0 0-222.608696 222.608696 44.521739 44.521739 0 0 1-89.043478 0 311.652174 311.652174 0 0 1 311.652174-311.652174h426.785391zM489.73913 845.913043H311.652174h178.086956zM246.472348 840.525913l107.475478 107.475478a44.521739 44.521739 0 0 1-62.953739 62.953739L125.106087 845.111652a44.432696 44.432696 0 0 1-35.750957-49.107478 44.432696 44.432696 0 0 1 35.750957-49.152l165.888-165.843478a44.521739 44.521739 0 1 1 62.953739 62.953739L246.472348 751.526957h426.740869a222.608696 222.608696 0 0 0 222.608696-222.608696 44.521739 44.521739 0 0 1 89.043478 0 311.652174 311.652174 0 0 1-311.652174 311.652174H246.472348z m248.653913-623.304348h178.086956-178.086956z" fill="#515151" p-id="5081"></path></svg>