<svg  class="icon" viewBox="0 0 1024 1024" version="1.1" xmlns="http://www.w3.org/2000/svg" ><path d="M725.333333 597.333333c-38.4 0-72.533333 17.066667-96 44.8l-104.533333-59.733333c6.4-19.2 10.666667-38.4 10.666667-57.6 0-23.466667-4.266667-44.8-12.8-66.133333l115.2-66.133334c23.466667 21.333333 53.333333 36.266667 89.6 36.266667 70.4 0 128-57.6 128-128s-57.6-128-128-128-128 57.6-128 128c0 12.8 2.133333 25.6 6.4 38.4L490.666667 405.333333a170.24 170.24 0 0 0-104.533334-57.6v-115.2c36.266667-12.8 64-49.066667 64-89.6C448 85.333333 405.333333 42.666667 352 42.666667S256 85.333333 256 138.666667c0 42.666667 27.733333 76.8 64 89.6v115.2c-85.333333 14.933333-149.333333 89.6-149.333333 179.2s64 164.266667 149.333333 179.2v93.866666c-36.266667 12.8-64 49.066667-64 89.6 0 53.333333 42.666667 96 96 96s96-42.666667 96-96c0-42.666667-27.733333-76.8-64-89.6v-93.866666c44.8-8.533333 81.066667-32 108.8-64l106.666667 61.866666c-2.133333 8.533333-2.133333 17.066667-2.133334 25.6 0 70.4 57.6 128 128 128s128-57.6 128-128-57.6-128-128-128z" fill="#333333" ></path></svg>