<svg t="1709278050239" class="icon" viewBox="0 0 1024 1024" version="1.1" xmlns="http://www.w3.org/2000/svg" p-id="6999" width="200" height="200"><path d="M562.176 375.296h97.728v93.568h49.472c22.848 0 46.208-3.84 67.968-10.752 10.496-3.456 22.4-8.128 32.96-13.952a111.104 111.104 0 0 1-22.912-59.2c-2.752-28.544 3.456-65.92 24.064-88.256l10.24-11.136 12.16 9.216c30.912 23.168 56.768 55.616 61.376 92.736 37.12-10.304 80.576-7.744 113.28 9.856l13.504 7.296-7.04 12.864c-27.712 50.688-85.632 66.304-142.208 63.552-84.672 197.632-268.736 291.2-492.16 291.2-115.328 0-221.312-40.32-281.536-136.512l-0.896-1.472-8.704-16.768a251.328 251.328 0 0 1-22.656-134.72l1.344-13.952h83.584V375.296h97.728V283.648h195.456V192h117.248v183.296z" fill="#394D54" p-id="7000"></path><path d="M878.72 409.792c6.656-47.616-31.616-85.12-55.168-102.976-27.264 29.632-31.36 106.88 11.2 139.52-23.808 19.904-74.176 37.76-125.44 37.76h-626.56c-4.992 50.432 4.416 96.768 25.92 136.448l7.04 12.224c4.608 7.104 9.408 14.208 14.912 20.864 25.6 1.472 49.472 2.112 71.232 1.728 42.56-0.896 77.568-5.632 103.872-14.208 3.904-1.28 8.32 0.64 9.6 4.288a7.04 7.04 0 0 1-4.48 9.024 349.44 349.44 0 0 1-82.88 14.144c1.536 0-1.92 0.256-1.92 0.256l-3.2 0.192c-11.2 0.64-23.552 0.64-35.84 0.64-13.76 0-27.072-0.192-42.176-0.832l-0.448 0.192c52.16 54.912 133.696 88 236.032 88 216.512 0 400.128-89.92 481.344-291.84 57.728 5.568 113.088-8.192 138.24-54.336-39.808-21.888-91.52-14.976-121.28-1.088z" fill="#00AADA" p-id="7001"></path><path d="M878.72 409.792c6.656-47.616-31.616-85.12-55.168-102.976-27.264 29.632-31.36 106.88 11.2 139.52-23.808 19.904-74.176 37.76-125.44 37.76h-589.44c-2.56 76.992 27.904 135.616 81.92 171.008 42.624-0.832 77.632-5.568 103.936-14.144 3.904-1.28 8.256 0.64 9.6 4.288a7.04 7.04 0 0 1-4.544 8.96 355.072 355.072 0 0 1-84.672 14.592l-0.704-0.64c73.664 35.456 180.608 35.456 303.04-8.768 137.344-49.344 265.088-143.744 354.368-251.52-1.6 0.896-2.752 1.536-4.096 1.92z" fill="#24B8EB" p-id="7002"></path><path d="M84.16 545.472c3.904 27.008 12.416 52.16 24.768 75.328l7.04 12.16c4.608 7.104 9.408 14.208 14.912 20.864 25.856 1.536 49.472 2.176 71.168 1.728 42.624-0.896 77.632-5.568 103.936-14.144 3.904-1.28 8.256 0.64 9.6 4.288a7.04 7.04 0 0 1-4.544 8.96c-3.456 1.088-7.04 2.176-11.008 3.2a368.384 368.384 0 0 1-73.664 11.2c-0.96 0-2.752 0-3.712 0.192-11.2 0.64-23.296 0.896-35.904 0.896-13.76 0-27.712-0.256-42.56-0.896 52.16 54.976 134.4 88 236.672 88 185.408 0 346.56-65.92 440.192-211.584H84.16v-0.192z" fill="#008BB8" p-id="7003"></path><path d="M125.568 545.472c11.008 47.36 37.76 84.48 76.48 109.824 42.56-0.832 77.632-5.568 103.936-14.08 3.84-1.28 8.256 0.64 9.6 4.224a7.04 7.04 0 0 1-4.544 9.024c-3.456 1.088-7.104 2.176-11.008 3.2a373.312 373.312 0 0 1-74.176 11.2c73.728 35.392 180.16 34.944 302.592-9.216a812.48 812.48 0 0 0 209.472-114.176H125.568z" fill="#039BC6" p-id="7004"></path><path d="M238.912 397.184h6.656v66.048h-6.656V397.184z m-12.8 0h6.848v66.048h-6.848V397.184z m-12.8 0h6.848v66.048h-6.848V397.184z m-12.8 0h6.848v66.048h-6.912V397.184z m-12.8 0h6.784v66.048h-6.848V397.184z m-12.672 0h6.656v66.048h-6.656V397.184z m-7.04-6.656h84.672v79.36H168v-79.36zM336.64 305.536h6.592v66.112h-6.592V305.536z m-12.8 0h6.848v66.112H323.84V305.536z m-12.864 0h6.848v66.112H311.04V305.536z m-12.8 0h6.848v66.112H298.24V305.536z m-12.8 0h6.848v66.112h-6.912V305.536z m-12.608 0h6.592v66.112h-6.592V305.536z m-7.104-6.656h84.672v79.36H265.728V298.88z" fill="#00ACD3" p-id="7005"></path><path d="M336.64 397.184h6.656v66.048h-6.592V397.184z m-12.8 0h6.912v66.048H323.84V397.184z m-12.8 0h6.848v66.048H311.04V397.184z m-12.8 0h6.848v66.048H298.24V397.184z m-12.8 0h6.848v66.048h-6.912V397.184z m-12.608 0h6.592v66.048h-6.592V397.184z m-7.104-6.656h84.672v79.36H265.728v-79.36z" fill="#20C2EF" p-id="7006"></path><path d="M434.432 397.184h6.656v66.048h-6.656V397.184z m-12.8 0h6.848v66.048h-6.848V397.184z m-12.8 0h6.848v66.048h-6.912V397.184z m-12.8 0h6.784v66.048h-6.848V397.184z m-13.12 0h6.912v66.048h-6.912V397.184z m-12.352 0h6.656v66.048H370.56V397.184z m-7.04-6.656h84.672v79.36H363.456v-79.36z" fill="#00ACD3" p-id="7007"></path><path d="M434.432 305.536h6.656v66.112h-6.656V305.536z m-12.8 0h6.848v66.112h-6.848V305.536z m-12.8 0h6.848v66.112h-6.912V305.536z m-12.8 0h6.784v66.112h-6.848V305.536z m-13.12 0h6.912v66.112h-6.912V305.536z m-12.352 0h6.656v66.112H370.56V305.536z m-7.04-6.656h84.672v79.36H363.456V298.88z m168.64 98.304h6.656v66.048h-6.656V397.184z m-12.8 0h6.848v66.048h-6.848V397.184z m-12.8 0h6.848v66.048h-6.848V397.184z m-13.056 0h6.848v66.048h-6.848V397.184z m-12.8 0h6.848v66.048H480.64V397.184z m-12.416 0h6.656v66.048h-6.656V397.184z m-7.04-6.656H545.92v79.36H461.184v-79.36z" fill="#20C2EF" p-id="7008"></path><path d="M532.16 305.536h6.656v66.112h-6.656V305.536z m-12.8 0h6.848v66.112h-6.848V305.536z m-12.8 0h6.848v66.112h-6.912V305.536z m-13.12 0h6.912v66.112H493.44V305.536z m-12.8 0h6.848v66.112H480.64V305.536z m-12.352 0h6.656v66.112h-6.656V305.536z m-7.04-6.656h84.608v79.36H461.184V298.88z" fill="#00ACD3" p-id="7009"></path><path d="M532.16 213.888h6.656v66.112h-6.656V213.888z m-12.8 0h6.848v66.112h-6.848V213.888z m-12.8 0h6.848v66.112h-6.912V213.888z m-13.12 0h6.912v66.112H493.44V213.888z m-12.8 0h6.848v66.112H480.64V213.888z m-12.352 0h6.656v66.112h-6.656V213.888z m-7.04-6.656h84.608v79.36H461.184v-79.36z" fill="#20C2EF" p-id="7010"></path><path d="M629.888 397.184h6.656v66.048h-6.656V397.184z m-12.8 0h6.848v66.048h-6.848V397.184z m-13.056 0h6.848v66.048h-6.848V397.184z m-12.8 0h6.848v66.048h-6.848V397.184z m-12.8 0h6.848v66.048h-6.912V397.184z m-12.608 0h6.592v66.048h-6.592V397.184z m-6.912-6.656h84.736v79.36H558.912v-79.36z" fill="#00ACD3" p-id="7011"></path><path d="M345.152 598.656c12.8 0 23.36 9.92 23.36 21.888 0 12.032-10.56 21.888-23.36 21.888-12.8 0-23.36-9.856-23.36-21.888 0-11.968 10.304-21.888 23.36-21.888z" fill="#D4EDF1" p-id="7012"></path><path d="M389.44 608c1.92 0 3.84 0.448 5.568 1.088a6.528 6.528 0 0 0-3.2 5.76c0 3.456 2.816 6.528 6.4 6.528 2.432 0 4.608-1.28 5.632-3.52a16 16 0 0 1-14.464 22.144 16 16 0 0 1-15.68-16c0-8.768 6.912-16 15.744-16zM0 555.2h1024c-22.208-5.76-70.528-13.632-62.528-43.2-40.512 47.808-138.24 33.536-163.008 9.856-27.392 40.576-187.392 25.216-198.592-6.4-34.56 41.024-141.248 41.024-175.744 0-11.2 31.616-171.2 46.976-198.592 6.4C200.96 545.344 103.04 559.616 62.528 512c8 29.824-40.32 37.504-62.528 43.2" fill="#394D54" p-id="7013"></path><path d="M407.168 756.608c-57.92-25.728-89.728-60.736-107.328-98.944-21.504 5.76-47.36 9.472-77.44 10.944-11.136 0.64-23.04 0.896-35.648 0.896-14.464 0-29.568-0.448-45.568-1.28 53.12 49.792 118.4 87.936 239.232 88.64 9.152 0.192 17.856 0 26.752-0.256z" fill="#BFDBE0" p-id="7014"></path><path d="M321.344 692.864a185.216 185.216 0 0 1-21.504-35.2c-21.504 5.76-47.36 9.472-77.376 10.944 20.608 10.56 50.112 20.224 98.88 24.32z" fill="#D4EDF1" p-id="7015"></path></svg>
