<svg t="1709278024252" class="icon" viewBox="0 0 1024 1024" version="1.1" xmlns="http://www.w3.org/2000/svg" p-id="6845" width="200" height="200"><path d="M205.653333 737.066667c-29.184 0-55.637333-23.893333-55.637333-52.906667s23.893333-53.034667 55.68-53.034667c31.914667 0 55.893333 23.893333 55.893333 52.992s-26.538667 52.906667-55.68 52.906667z m683.178667-288.554667c-5.76-42.325333-32-76.8-66.56-103.253333l-13.44-10.666667-10.837333 13.226667c-21.077333 23.893333-29.44 66.261333-26.88 97.92 2.56 23.978667 10.24 47.786667 23.637333 66.304-10.837333 5.546667-24.234667 10.666667-34.56 16.085333a225.706667 225.706667 0 0 1-71.68 10.666667H4.138667l-2.56 15.786666a297.813333 297.813333 0 0 0 23.978666 151.04l10.410667 18.56v2.56c64 105.941333 177.92 153.6 301.994667 153.6 238.677333 0 434.432-103.253333 527.232-325.674666 60.8 2.645333 122.197333-13.226667 151.04-71.509334l7.68-13.226666-12.8-7.978667c-34.56-21.077333-81.92-23.893333-121.6-13.226667l-0.768 0.085334z m-341.674667-42.325333h-103.594666v103.253333h103.68V406.101333l-0.085334 0.128z m0-129.834667h-103.594666v103.253333h103.68V276.48l-0.085334-0.128z m0-132.437333h-103.594666v103.253333h103.68v-103.253333h-0.085334z m126.72 262.272H570.88v103.253333h103.253333V406.101333l-0.298666 0.128z m-383.914666 0H187.008v103.253333h103.338667V406.101333l-0.426667 0.128z m129.28 0h-102.4v103.253333H419.84V406.101333l-0.64 0.128z m-257.28 0H59.733333v103.253333h103.594667V406.101333l-1.28 0.128z m257.28-129.834667h-102.4v103.253333H419.84V276.48l-0.64-0.128z m-129.92 0H187.178667v103.253333H290.133333V276.48l-0.682666-0.128z" p-id="6846"></path></svg>
