<svg  class="icon" viewBox="0 0 1024 1024" version="1.1" xmlns="http://www.w3.org/2000/svg" ><path d="M801.143 443.138C827.21 423.023 844 391.472 844 356c0-60.751-49.249-110-110-110h-58v50c0 8.837-7.163 16-16 16H364c-8.837 0-16-7.163-16-16V128c0-8.837 7.163-16 16-16h296c8.837 0 16 7.163 16 16v50h58c98.307 0 178 79.693 178 178 0 56.81-26.614 107.404-68.054 139.995l35.888 44.318a8 8 0 0 1-5.974 13.03l-151.68 4.62a8 8 0 0 1-8.014-9.896L734 466.98V466h0.24l15.981-65.338a8 8 0 0 1 13.989-3.134l36.933 45.61z m-622.09 352.857C137.614 763.405 111 712.81 111 656c0-98.307 79.693-178 178-178h59v-50c0-8.837 7.163-16 16-16h296c8.837 0 16 7.163 16 16v168c0 8.837-7.163 16-16 16H364c-8.837 0-16-7.163-16-16v-50h-59c-60.751 0-110 49.249-110 110 0 35.472 16.79 67.023 42.857 87.138l36.933-45.61a8 8 0 0 1 13.989 3.134L288.76 766h0.24v0.98l19.834 81.087a8 8 0 0 1-8.015 9.897l-151.68-4.62a8 8 0 0 1-5.973-13.031l35.888-44.318zM412 176v72h200v-72H412z m0 300v72h200v-72H412z m0 300v72h200v-72H412z m-48-64h296c8.837 0 16 7.163 16 16v168c0 8.837-7.163 16-16 16H364c-8.837 0-16-7.163-16-16V728c0-8.837 7.163-16 16-16z" fill="#000000"></path></svg>