<svg xmlns="http://www.w3.org/2000/svg" x="0px" y="0px" viewBox="0 0 50.6 50.6"
     style="enable-background:new 0 0 50.6 50.6;" xml:space="preserve">
    <g>
          <g>
           <path d="M0.6,0H5c0.3,0,0.6,0.3,0.6,0.6V50c0,0.3-0.3,0.6-0.6,0.6H0.6C0.3,50.6,0,50.4,0,50V0.6C0,0.3,0.3,0,0.6,0z">
           </path>
              <path d="M11.8,0h4.4c0.3,0,0.6,0.3,0.6,0.6V50c0,0.3-0.3,0.6-0.6,0.6h-4.4c-0.3,0-0.6-0.3-0.6-0.6V0.6C11.3,0.3,11.5,0,11.8,0z">
           </path>
              <path d="M23.1,0h4.4c0.3,0,0.6,0.3,0.6,0.6V50c0,0.3-0.3,0.6-0.6,0.6h-4.4c-0.3,0-0.6-0.3-0.6-0.6V0.6C22.5,0.3,22.8,0,23.1,0z">
           </path>
              <path d="M34.3,0h4.4c0.3,0,0.6,0.3,0.6,0.6V50c0,0.3-0.3,0.6-0.6,0.6h-4.4c-0.3,0-0.6-0.3-0.6-0.6V0.6C33.7,0.3,34,0,34.3,0z">
           </path>
              <path d="M45.6,19.7H50c0.3,0,0.6,0.3,0.6,0.6v10.1c0,0.3-0.3,0.6-0.6,0.6h-4.4c-0.3,0-0.6-0.3-0.6-0.6V20.3
       C45,20,45.3,19.7,45.6,19.7z">
           </path>
              </g>
         </g>
    </svg>