<svg  class="icon" viewBox="0 0 1463 1024" version="1.1" xmlns="http://www.w3.org/2000/svg" ><path d="M0 219.064795C0 98.066213 98.048585 0 219.069403 0L1243.787739 0C1364.796635 0 1462.857143 98.021522 1462.857143 219.064795L1462.857143 804.935205C1462.857143 925.933787 1364.808558 1024 1243.787739 1024L219.069403 1024C98.060507 1024 0 925.978478 0 804.935205L0 219.064795ZM73.142857 219.064795 73.142857 804.935205C73.142857 885.602999 138.476398 950.857143 219.069403 950.857143L1243.787739 950.857143C1324.425289 950.857143 1389.714286 885.52565 1389.714286 804.935205L1389.714286 219.064795C1389.714286 138.397001 1324.380745 73.142857 1243.787739 73.142857L219.069403 73.142857C138.431854 73.142857 73.142857 138.47435 73.142857 219.064795ZM877.714286 694.857143C877.714286 715.195794 894.012526 731.428571 914.117413 731.428571L1207.025445 731.428571C1226.764288 731.428571 1243.428571 715.054994 1243.428571 694.857143 1243.428571 674.518491 1227.130331 658.285714 1207.025445 658.285714L914.117413 658.285714C894.378569 658.285714 877.714286 674.659291 877.714286 694.857143ZM804.571429 512C804.571429 532.338651 820.985527 548.571429 841.233298 548.571429L1206.766702 548.571429C1226.760741 548.571429 1243.428571 532.197851 1243.428571 512 1243.428571 491.661349 1227.014473 475.428571 1206.766702 475.428571L841.233298 475.428571C821.239259 475.428571 804.571429 491.802149 804.571429 512ZM768 329.142857C768 349.481509 784.349074 365.714286 804.516645 365.714286L1206.911927 365.714286C1227.063259 365.714286 1243.428571 349.340709 1243.428571 329.142857 1243.428571 308.804206 1227.079497 292.571429 1206.911927 292.571429L804.516645 292.571429C784.365312 292.571429 768 308.945006 768 329.142857ZM606.885376 504.250368C622.488137 489.321618 634.641554 479.891639 641.990802 471.30496 666.628352 442.51904 676.571429 412.910665 676.571429 365.87904 676.571429 261.706021 615.705125 219.428571 512 219.428571 406.923886 219.428571 347.428571 258.982985 347.428571 363.096466 347.428571 431.850569 362.72245 463.021495 415.508151 504.250368 420.606354 508.232375 420.785298 514.843904 416.347538 515.87339 302.227017 542.347703 219.428571 618.970697 219.428571 694.042514 219.428571 783.158565 305.468635 804.571429 512 804.571429 720.452645 804.571429 804.571429 784.128878 804.571429 695.067648 804.571429 623.744695 715.425134 545.381193 606.885339 516.024466 605.833801 515.74005 599.350491 512.2048 606.885376 504.250368ZM731.428571 695.067648C731.428571 716.694747 670.800603 731.428571 512 731.428571 354.214363 731.428571 292.571429 716.087442 292.571429 694.042514 292.571429 656.597285 353.558565 602.22859 444.961536 584.557714 512.311698 569.046455 510.749257 485.830034 460.531383 446.606775 425.444315 419.201609 420.571429 409.270016 420.571429 363.096466 420.571429 307.170048 442.529792 292.571429 512 292.571429 579.798272 292.571429 603.428571 308.984942 603.428571 365.87904 603.428571 396.177518 599.174693 408.844727 586.422199 423.744402 581.233225 429.807067 576.324279 434.720512 561.402258 449.052087 515.643209 497.299749 512.804462 568.881518 578.387383 584.257134 662.952046 604.082981 731.428571 662.37184 731.428571 695.067648Z" fill="#000000" ></path></svg>