<svg t="1709272357724" class="icon" viewBox="0 0 1024 1024" version="1.1" xmlns="http://www.w3.org/2000/svg" p-id="4547" width="200" height="200"><path d="M410.88 247.632L141.232 789.344h538.256L410.88 247.632z" fill="#00435B" p-id="4548"></path><path d="M403.952 240.752L134.288 782.464h538.24L403.968 240.752z" fill="#00B3FF" p-id="4549"></path><path d="M526.48 305.12L256.832 846.848h538.24L526.496 305.12z" fill="#003773" opacity=".79" p-id="4550"></path><path d="M351.68 247.648l-132.224 176.544-27.36-88.624c-70.24 22.512-121.488 94.16-121.488 178.96 0 56.08 22.512 106.272 57.808 140.544l-44.304 60.912C32.544 667.52 0 595.2 0 514.56c0-119.44 71.312-220.16 169.28-253.392L143.296 176l208.368 71.648z" fill="#00B3FF" p-id="4551"></path><path d="M836.96 837.44l-62.288-217.712 86.528 32.88c13.504-61.28 0-153.68-67.152-205.6-44.32-34.272-97.952-47.424-146.416-40.512l-21.12-72.336c54-9.008 140.88-6.928 214.608 55.728 91.04 77.184 103.152 152.304 92.432 290.08l74.416 21.44-170.992 136.048z" fill="#003773" p-id="4552"></path></svg>
