<svg t="1711187058706" class="icon" viewBox="0 0 1024 1024" version="1.1" xmlns="http://www.w3.org/2000/svg" p-id="4596" width="200" height="200"><path d="M294.52 588.63C186 558.27 165.94 469.75 165.45 409.82 50.45 534.36 3.93 673.44 60 769.87 121 875.19 286.92 899.9 471.23 845c5.81-21.81 10-49.43 9.69-83.19-1.62-141-86.09-145-186.4-173.16z m671-343.57C902.67 136.68 729 113.74 538.42 174.8c-15.18 87.38-21 249.72 136.5 278.31 42.8 7.76 147.15 24.88 148.44 189C964.7 509 1027.05 351.19 965.51 245.06z" fill="#1D2582" ></path><path d="M208.42 355.55S240.08 316.3 289 300c1.13 16.32-33.76 186.08 101.28 238.58 40.38 11 211.44 5.65 201.59 178.81 0 48 0.32 90.46 0.32 90.46s-38.6 17.61-74 29.56c2.75-31.82 47.33-242.13-110.64-247.46-76.55-2.77-208.98-41.54-199.13-234.4z" fill="#D71D1E" p-id="4598"></path><path d="M311.64 290.78s25.36-32.31 74.46-48.62c1.13 16.31-33.76 186.08 101.28 238.57 40.38 11 202.07 44.91 201.59 178.82l0.32 100.3s-38.44 21-72.36 33.76c2.74-31.82 30.53-247.3-112.26-261.51C428.26 524.51 300 495 311.64 290.78z" fill="#D71D1E" p-id="4599"></path><path d="M418.73 218.25S368.66 471 562.49 488.49c34.08 3.07 163.47 7.59 153.62 238.57 20.67-11.95 71.88-40.38 73-48s22.93-160.24-160.24-206.43C589.63 465.55 477 440.51 500 187.72c-33.62 14.05-81.27 30.53-81.27 30.53z" fill="#D71D1E" p-id="4600"></path></svg>
