<svg t="1711187078321" class="icon" viewBox="0 0 1478 1024" version="1.1" xmlns="http://www.w3.org/2000/svg" p-id="4757" width="200" height="200"><path d="M27.36772046 690.49848448c45.15137229-135.02447731 94.41251936-267.60178684 221.21747748-372.81178577 2.11092299 196.78304761 129.53234213 253.31100843 282.50902598 287.02976434 177.63528672 39.15486278 240.72018981 195.79297538 145.24286308 356.52217133-9.39641278 15.82259228-32.31770417 27.75959835-51.31602697 33.06492747-128.50490221 35.75495969-256.71091184 39.17353891-386.09381557-0.99007248-115.95143524-35.97913281-175.05734146-120.56558432-211.57819994-228.09200364l0.01867594-74.72300125zM1210.27035623 664.90585247c-8.2008428-185.64932381-116.13824092-252.97474888-270.94563165-278.0816979-153.42503008-24.88276084-239.767469-264.37001324-143.01985352-388.2047233 10.36782451-13.24464705 29.66503961-22.90260004 46.58980657-27.10577025 134.78162801-33.49458288 270.2544514-43.78768797 404.12072615 3.17573012 153.57446878 53.89397189 221.27352083 180.32530329 184.36034341 338.92490029-27.90905236 120.04251872-98.54097004 235.82582398-221.10539096 351.29156104z" p-id="4758"></path><path d="M757.05661272 941.82933278c2.50322634-39.00540923 4.59545783-66.80237473 5.99652481-94.65538401 9.30301735-183.183465-31.55178958-238.08620085-208.42116137-280.47282196-178.49459657-42.76024819-232.25780637-92.65653221-241.97178751-224.63605694-7.02396464-95.43995922-1.92411713-103.90234244 103.45401188-160.74787181 0 27.77827458-0.09341056 50.81165251 0.01867587 73.80764798 0.8032667 157.44137899 67.86718187 242.04652195 220.39551947 278.19378449 195.49408273 46.30959001 233.65885763 101.0628722 225.9623891 306.34565549-2.63398868 70.22095429-31.2342211 102.23976598-105.43417225 102.16504676z" p-id="4759"></path><path d="M916.12323223 872.57977492c-8.2008428-72.74285602-11.56337896-146.43841742-25.94756828-217.92966058-16.00939834-79.86021599-66.72765539-130.5597818-151.20202042-143.16929206a734.71400526 734.71400526 0 0 1-99.60577726-22.52898844c-142.85172348-42.34926901-222.28228454-191.17882631-170.0695651-330.29438694 11.8622715-31.60783286 52.45555315-52.45555315 100.25958985-97.49485402-5.32402048 66.83972663-9.50849927 102.89359403-10.83483146 139.04084091-5.67895605 155.6293484 57.38727074 237.26424296 208.60796729 271.61815108 192.9721811 43.82503985 245.16620896 108.19892331 230.29632171 302.92709127-2.91420536 38.29553758-38.16477513 74.10654043-58.52679713 111.07576141l-22.9773192-13.24466263z" p-id="4760"></path><path d="M711.64369995-6.12548022c0 87.33252677-4.57678188 142.90776708 0.8966773 197.49291914 13.97320981 139.35840982 72.74285602 206.6651741 208.45852885 236.38625707 113.03723026 24.75199811 192.3370287 79.54264725 216.67804783 199.99613 15.50502405 76.70317694 1.08348305 134.10912385-85.33367501 163.77416347-3.51197466-43.58219081-4.85699816-85.40840975-10.57330658-126.61813699-18.30714278-131.38173972-75.02190925-193.60731753-204.33007798-216.90222077-251.40556729-45.30082588-246.23100051-171.86291979-222.05811148-357.23204249 3.82955831-29.49690996 51.27865976-53.31486323 96.26191707-96.89706943z" p-id="4761"></path></svg>
