<svg  class="icon" viewBox="0 0 1024 1024" version="1.1" xmlns="http://www.w3.org/2000/svg" ><path d="M200.5504 443.8272h119.7056c16.1152 0 27.6224 11.5072 27.6224 27.6224v87.488c0 200.2944 163.456 363.7504 363.7504 363.7504h112.8064v48.3456H985.6V552.0256H824.448v41.4464h-119.7056c-16.1152 0-27.6352-11.52-27.6352-27.6224v-87.488c0-200.2944-163.456-363.7504-363.7504-363.7504h-112.8064V66.2656H39.3984v419.008h161.152v-41.4464z m432.8064 122.0224c0 41.4336 32.2304 73.664 73.6768 73.664h142.7328v239.4368H713.9456c-174.9632 0-317.7088-142.7328-317.7088-317.7088v-87.488c0-41.4336-32.2304-73.664-73.664-73.664H179.8272V158.3488h135.8336c174.9632 0 317.696 142.7328 317.696 317.7088v89.792z m308.5056 359.1424h-69.0688v-329.216h69.0688v329.216zM85.44 110.0032h69.0688v329.216H85.44V110.0032z m0 0" fill="#666666" ></path></svg>