<svg  class="icon" viewBox="0 0 1024 1024" version="1.1" xmlns="http://www.w3.org/2000/svg" ><path d="M950.857143 932.571429v-621.714286c0-9.728-8.557714-18.285714-18.285714-18.285714h-621.714286c-9.728 0-18.285714 8.557714-18.285714 18.285714v621.714286c0 9.728 8.557714 18.285714 18.285714 18.285714h621.714286c9.728 0 18.285714-8.557714 18.285714-18.285714z m73.142857-621.714286v621.714286c0 50.285714-41.142857 91.428571-91.428571 91.428571h-621.714286A91.684571 91.684571 0 0 1 219.428571 932.571429v-621.714286C219.428571 260.571429 260.571429 219.428571 310.857143 219.428571h621.714286C982.857143 219.428571 1024 260.571429 1024 310.857143z m-219.428571-219.428572V182.857143h-73.142858V91.428571c0-9.728-8.557714-18.285714-18.285714-18.285714h-621.714286c-9.728 0-18.285714 8.557714-18.285714 18.285714v621.714286c0 9.728 8.557714 18.285714 18.285714 18.285714H182.857143v73.142858H91.428571A91.684571 91.684571 0 0 1 0 713.142857v-621.714286C0 41.142857 41.142857 0 91.428571 0h621.714286C763.428571 0 804.571429 41.142857 804.571429 91.428571z" fill="" p-id="7266"></path></svg>