<svg  class="icon" viewBox="0 0 1024 1024" version="1.1" xmlns="http://www.w3.org/2000/svg" ><path d="M79.744 415.776A16 16 0 0 0 64 432v512a16 16 0 0 0 16 16h864a16 16 0 0 0 16-16v-512a16 16 0 1 0-32 0V928H96V432a16 16 0 0 0-16.256-16.16z" fill="#2B4255" p-id="16066"></path><path d="M207.744 305.792a16 16 0 0 0-9.792 3.744L70.048 413.44a16 16 0 1 0 20.192 24.832l127.808-103.904a16 16 0 0 0-10.304-28.544z m607.584 0.384a16 16 0 0 0-9.76 28.576l128.192 103.616a16 16 0 1 0 20.128-24.896L825.6 309.856a16 16 0 0 0-10.304-3.68z" fill="#2B4255" p-id="16067"></path><path d="M288 384.032v32h448v-32H288z" fill="#F05542" p-id="16068"></path><path d="M272 128a16 16 0 0 0-16 16v128a16 16 0 0 0 16 16h128a16 16 0 0 0 16-16v-128a16 16 0 0 0-16-16h-128zM288 160h96v96H288V160z" fill="#F05542" p-id="16069"></path><path d="M288 320v32h448v-32H288zM576 512v32h128v-32h-128zM288 448v32h448v-32H288zM655.36 64.032a16 16 0 0 0-15.744 15.936v160a16 16 0 0 0 16 16H816a16 16 0 0 0 11.328-27.296l-160.384-160A16 16 0 0 0 655.36 64z m16.256 54.56L777.28 224h-105.6V118.592z" fill="#F05542" p-id="16070"></path><path d="M208 64a16 16 0 0 0-16 16v432.544a16 16 0 1 0 32 0V95.968h425.376L800 246.72v264.992a16 16 0 1 0 32 0V239.968a16 16 0 0 0-4.672-11.296l-160-160a16 16 0 0 0-11.328-4.704h-448z" fill="#F05542" ></path><path d="M81.824 416.736l-17.76 26.624 439.04 292.8a16 16 0 0 0 17.76 0l439.072-292.8-17.76-26.624L512 703.616 81.824 416.736z" fill="#2B4255" ></path><path d="M448 160v32h160V160h-160z m0 64v32h160V224h-160z" fill="#F05542"></path></svg>