<svg class="icon" viewBox="0 0 1024 1024" version="1.1" xmlns="http://www.w3.org/2000/svg" ><path d="M894.722 238.079H129.278c-35.29 0-64 28.71-64 64v419.842c0 35.29 28.71 64 64 64h765.444c35.29 0 64-28.71 64-64V302.079c0-35.29-28.71-64-64-64z m-765.444 77.876l262.287 224.818-262.287 159.245V315.955z m110.014 392.142l203.405-123.495 48.478 41.552c11.983 10.271 29.667 10.269 41.65 0l48.478-41.552 203.404 123.495H239.292zM512 559.71l-12.641-10.835-287.928-246.796H812.57L512 559.71z m120.435-18.937l262.287-224.818v384.063L632.435 540.773z" ></path></svg>