<svg  class="icon" viewBox="0 0 1024 1024" version="1.1" xmlns="http://www.w3.org/2000/svg"  ><path d="M507.74528 274.03264l-358.8096-97.4848-57.91232 25.8048V824.9856l57.9072 26.73664 358.8096-89.56416z" fill="#E25444" ></path><path d="M148.93568 176.54784l-57.91232 25.8048V824.9856l57.9072 26.73664V176.54784z m358.8096 40.82688l354.0736-40.82688 71.15776 40.82688v593.06496l-71.15776 41.2672-354.0736-41.2672V217.37472z" fill="#7B1D13" p-id="7830"></path><path d="M861.81888 176.54784l71.15776 40.82688v593.06496l-71.15776 41.2672V176.54784zM507.7504 0l-152.7808 80.96256v223.6928l152.7808 25.72288 153.07776-25.088V80.96256L507.74528 0z" fill="#E25444" p-id="7831"></path><path d="M507.74528 261.84704L354.96448 304.64l152.7808 25.73824 153.07776-25.088z" fill="#58150D" p-id="7832"></path><path d="M507.74528 0l-152.7808 80.96256v223.6928l152.7808-42.8032V0z m0.29696 1024l152.7808-80.96256v-223.6928l-152.7808-25.72288-153.07776 25.088v224.32768L508.04224 1024z" fill="#7B1D13" p-id="7833"></path><path d="M508.04224 762.15296l152.7808-42.79296-152.7808-25.73824-153.07776 25.088z" fill="#58150D" p-id="7834"></path><path d="M508.04224 1024l152.7808-80.96256v-223.6928l-152.7808 42.8032V1024z m-0.29696-639.74912l-152.7808 15.09888v225.08544l152.7808 18.33984 153.07776-17.70496V399.36l-153.07776-15.10912z" fill="#E25444" ></path><path d="M507.74528 384.25088l-152.7808 15.09888v225.08544l152.7808 18.33984z" fill="#7B1D13" ></path></svg>