
<svg t="1721489073383" class="icon" viewBox="0 0 1024 1024" version="1.1" xmlns="http://www.w3.org/2000/svg" ><path d="M512 320c-209.376 0-395.232 100.544-512 256 116.768 155.456 302.624 256 512 256s395.232-100.544 512-256c-116.768-155.456-302.624-256-512-256zM448 448c35.36 0 64 28.64 64 64s-28.64 64-64 64-64-28.64-64-64 28.64-64 64-64zM773.6 705.312c-39.648 20.256-81.664 35.872-124.832 46.368-44.48 10.848-90.496 16.32-136.768 16.32s-92.288-5.504-136.768-16.32c-43.2-10.528-85.184-26.112-124.832-46.368-63.008-32.192-120.224-76.416-167.648-129.312 47.424-52.896 104.608-97.088 167.648-129.312 32.352-16.512 66.24-29.952 101.088-40.032-19.872 30.24-31.456 66.432-31.456 105.344 0 106.048 85.952 192 192 192s192-85.952 192-192c0-38.912-11.584-75.104-31.456-105.344 34.848 10.112 68.736 23.52 101.088 40.032 63.008 32.192 120.224 76.416 167.648 129.312-47.424 52.896-104.608 97.088-167.648 129.312zM860.928 243.712c-108.736-55.552-226.112-83.712-348.928-83.712s-240.192 28.16-348.928 83.712c-58.784 30.016-113.728 67.904-163.072 112.064l0 109.216c55.328-58.56 120.704-107.744 192.192-144.288 99.616-50.912 207.232-76.704 319.808-76.704s220.192 25.824 319.808 76.704c71.488 36.544 136.864 85.728 192.192 144.288l0-109.216c-49.344-44.16-104.32-82.048-163.072-112.064z" fill="#444444" p-id="4525"></path></svg>