<svg t="1710739761683" class="icon" viewBox="0 0 1024 1024" version="1.1" xmlns="http://www.w3.org/2000/svg" p-id="4353" width="200" height="200"><path d="M891.733333 66.133333c36.266667 0 66.133333 29.866667 66.133334 66.133334 0 36.266667-29.866667 66.133333-66.133334 66.133333s-66.133333-29.866667-66.133333-66.133333c-2.133333-36.266667 27.733333-66.133333 66.133333-66.133334M279.466667 439.466667H34.133333c-8.533333 0-17.066667 4.266667-23.466666 10.666666-6.4 6.4-10.666667 14.933333-10.666667 23.466667 0 19.2 14.933333 32 34.133333 32h245.333334c81.066667 0 149.333333-64 153.6-145.066667H576c14.933333 36.266667 51.2 64 93.866667 64 55.466667 0 100.266667-44.8 100.266666-98.133333 0-55.466667-44.8-98.133333-100.266666-98.133333-44.8 0-81.066667 27.733333-93.866667 68.266666h-140.8v-46.933333c0-46.933333 38.4-85.333333 85.333333-85.333333h243.2c14.933333 57.6 66.133333 98.133333 128 98.133333 72.533333 0 132.266667-59.733333 132.266667-132.266667C1024 59.733333 964.266667 0 891.733333 0c-61.866667 0-113.066667 42.666667-128 98.133333H518.4c-85.333333 0-153.6 68.266667-153.6 151.466667v46.933333H34.133333c-8.533333 0-17.066667 4.266667-23.466666 10.666667s-10.666667 12.8-10.666667 21.333333c0 19.2 14.933333 32 34.133333 32h332.8c-4.266667 44.8-42.666667 78.933333-87.466666 78.933334M34.133333 663.466667h420.266667c14.933333 36.266667 51.2 64 93.866667 64 55.466667 0 100.266667-44.8 100.266666-98.133334s-44.8-98.133333-100.266666-98.133333c-44.8 0-81.066667 27.733333-93.866667 68.266667H34.133333c-8.533333 0-17.066667 4.266667-23.466666 10.666666s-10.666667 10.666667-10.666667 19.2c0 19.2 14.933333 34.133333 34.133333 34.133334m857.6 294.4c-36.266667 0-66.133333-29.866667-66.133333-66.133334 0-36.266667 29.866667-66.133333 66.133333-66.133333s66.133333 29.866667 66.133334 66.133333c0 36.266667-29.866667 66.133333-66.133334 66.133334m0-196.266667c-61.866667 0-113.066667 42.666667-128 98.133333h-72.533333c-44.8 0-89.6-10.666667-130.133333-29.866666L448 776.533333c-49.066667-23.466667-104.533333-36.266667-157.866667-36.266666h-256c-8.533333 0-17.066667 4.266667-23.466666 10.666666-6.4 6.4-10.666667 14.933333-10.666667 23.466667 0 19.2 14.933333 32 34.133333 32h256c44.8 0 89.6 10.666667 130.133334 29.866667l110.933333 53.333333c49.066667 23.466667 104.533333 36.266667 157.866667 36.266667h72.533333c14.933333 57.6 66.133333 98.133333 128 98.133333 72.533333 0 132.266667-59.733333 132.266667-132.266667 2.133333-72.533333-57.6-130.133333-130.133334-130.133333" fill="#515151" p-id="4354"></path></svg>
