<svg t="1725875207640" class="icon" viewBox="0 0 1025 1024" version="1.1" xmlns="http://www.w3.org/2000/svg" ><path d="M967.811512 417.669896l-94.522092 94.3941c-58.940316 58.940316-146.358853 70.71558-217.522405 36.861696l217.522405-217.586401c24.95844-24.95844 24.95844-65.403912 0-90.362352l-90.298356-90.490344c-24.95844-24.95844-65.339916-24.95844-90.362352 0l-217.586401 217.650397C441.252422 296.973439 453.091682 209.490907 512.031998 150.550591l94.330104-94.3941c74.87532-74.811324 196.275733-74.811324 271.023061 0l90.490344 90.362352C1042.622836 221.394163 1042.622836 342.794575 967.811512 417.669896L967.811512 417.669896zM331.307293 692.660709c-24.95844-24.95844-24.95844-65.339916 0-90.362352l271.023061-271.023061c24.95844-24.95844 65.339916-24.95844 90.362352 0 24.95844 24.95844 24.95844 65.339916 0 90.362352l-271.023061 271.023061C396.711206 717.683145 356.201737 717.683145 331.307293 692.660709L331.307293 692.660709zM150.582589 783.087057l90.362352 90.362352c24.95844 24.95844 65.339916 24.95844 90.362352 0l217.650397-217.650397c33.853884 71.163552 22.014624 158.646085-36.861696 217.650397l-86.3946 94.3941c-74.87532 74.87532-196.211737 74.87532-271.087057 0l-98.425848-98.361852c-74.811324-74.87532-74.811324-196.211737 0-271.087057L150.518593 512C209.522905 453.059684 296.941441 441.220424 368.168989 475.138304l-217.650397 217.586401C125.624148 717.683145 125.624148 758.192613 150.582589 783.087057L150.582589 783.087057z" fill="#666666" p-id="9496"></path></svg>