<svg  class="icon" viewBox="0 0 1024 1024" version="1.1" xmlns="http://www.w3.org/2000/svg" ><path d="M391.00059836 933.26943799c-70.66910852 0-120.4927479-13.23153424-149.46889938-39.69460273-28.97817022-26.46306848-43.4652366-70.44706961-43.4652366-131.94998465v-118.42172561c0-59.43189276-24.54141714-89.29620236-73.62627101-89.59292797v-84.71411417c49.08485385 0 73.62627099-30.897802 73.62627101-92.69542475V265.76226099c0-62.68578085 14.70910611-107.6285885 44.12933623-134.83246124C271.61804748 103.725927 321.21762839 90.125 391.00059836 90.125v86.48841247c-50.85915052 0-76.28670786 28.23736514-76.28670786 84.71209626v106.44774225c0 75.40056848-24.54141714 122.85645913-73.62627099 142.37171027v2.21837613c49.08485385 19.51525113 73.62627099 67.5625751 73.62627099 144.14398901v102.89914809c0 31.63860626 5.91432413 54.11101987 17.74095365 67.41724 11.82864826 13.30622012 31.34188064 19.95932978 58.54575421 19.95932977V933.26943799z m241.01577437 0c70.66910852 0 120.49072998-13.23153424 149.46889939-39.69460273 28.97615149-26.46306848 43.4652366-70.44706961 43.46523661-131.94998465v-118.42172561c0-59.43189276 24.54141714-89.29620236 73.62627017-89.59292797v-84.71411417c-49.08485385 0-73.62627099-30.897802-73.62627017-92.69542475V265.76226099c0-62.68578085-14.70910611-107.6285885-44.13135498-134.83246124C751.39892361 103.725927 701.79934189 90.125 632.01637274 90.125v86.48841247c50.85713177 0 76.28670786 28.23736514 76.28670704 84.71209626v106.44774225c0 75.40056848 24.54141714 122.85645913 73.626271 142.37171027v2.21837613c-49.08485385 19.51525113-73.62627099 67.5625751-73.626271 144.14398901v102.89914809c0 31.63860626-5.91432413 54.11101987-17.74297239 67.41724-11.8246116 13.30622012-31.33986274 19.95932978-58.54373465 19.95932977V933.26943799z" fill="#515151" ></path></svg>