<svg t="1721480432756" class="icon" viewBox="0 0 1032 1024" version="1.1" xmlns="http://www.w3.org/2000/svg" p-id="5773" ><path d="M785.408 150.528c5.12 0 10.752-1.536 17.408-5.632 21.504-13.824 12.8-31.232 12.8-31.744l-0.512-1.024h-1.536c-0.512 0-17.408-2.048-31.232 5.632-14.336 7.68-15.872 22.528-16.384 23.04v1.024l0.512 1.024c0-0.512 7.168 7.68 18.944 7.68z" fill="#3E4A7E" p-id="5774"></path><path d="M927.744 72.192V71.68c-2.048-6.656-9.728-18.944-24.064-16.384-11.776 2.048-14.848 3.584-20.992 6.144-2.56 1.024-5.632 2.56-10.24 4.096-6.144 2.56-15.36 3.584-28.16 5.12-16.896 2.048-39.936 4.608-71.168 11.776-56.32 12.8-100.352 84.992-101.888 88.064-0.512 1.024-44.032 77.824-81.92 120.32-40.448 44.544-107.008 62.976-166.912 74.752-49.664 10.24-78.848 22.016-98.304 29.696-6.656 2.56-11.776 5.12-16.896 6.656-21.504 7.168-84.992 49.664-108.032 92.672-22.528 41.472-47.616 47.616-48.128 47.616l-1.536 0.512c-6.656 1.024-33.792 4.096-75.776 6.144-47.104 2.048-67.584 30.72-68.608 31.744l-1.024 3.072 1.536 1.536s3.584 3.584 10.752 9.728c5.12 4.608 18.944 5.12 28.672 5.632-10.752 7.68-28.16 20.992-26.624 29.696 2.56 13.312 12.288 18.944 62.976 18.944 54.272 0 82.944-18.944 126.464-47.616 44.032-29.184 48.64-32.256 97.792-41.472 45.056-8.192 187.904 14.336 211.456 18.432-4.096 9.728-19.968 41.472-54.784 85.504l-3.072 3.584 4.608 0.512c4.096 0.512 8.704 0.512 12.8 0.512 43.008 0 84.992-17.92 113.664-33.792 13.312-7.168 21.504-19.968 29.696-33.792 10.752-17.408 22.016-34.816 45.568-44.032 15.36 24.576 44.032 30.208 60.416 31.232 27.648 2.048 55.808-6.144 65.536-18.944l2.048-2.56-2.56-1.536c-48.128-24.064-32.768-98.304-32.256-98.816l27.648-101.376c0-0.512 15.36-49.664 22.528-98.816 5.632-37.376 25.088-67.584 59.392-92.16 25.6-18.944 47.104-41.472 54.272-57.856 7.168-17.408 5.12-43.008 5.12-44.032zM734.208 496.64c2.048 13.312 9.216 50.176 23.04 68.608-37.376 3.072-53.248-9.728-62.976-18.432 2.56-12.288 27.136-37.888 39.936-50.176z m-174.592 36.864c3.584-23.552 7.68-53.248 4.096-57.344-0.512-0.512-1.536-1.024-2.56-1.024-5.632 0-13.312 9.216-15.872 12.288l-0.512 1.024c-4.096 15.872-17.92 58.368-29.696 62.976-14.336 5.12-91.136-1.024-102.912-4.608-11.264-3.584-74.24-7.168-77.312-7.168-3.072 0-74.752 4.608-109.568 31.232-28.16 22.016-56.832 34.816-71.168 40.96-3.072 1.024-5.12 2.048-6.656 3.072-8.704 4.096-24.576 10.24-51.712 14.336-26.624 3.584-43.52 1.024-58.368-2.56 2.56-3.072 13.312-8.704 17.408-11.264 2.048-1.024 3.584-2.048 4.608-2.56 5.632-3.584 15.872-13.312 15.872-24.064v-3.584l-3.072 1.024c-12.8 3.584-40.448-0.512-45.568-3.584 9.728-11.264 26.112-16.384 90.624-19.456 57.344-3.072 67.072-16.384 77.824-30.208 2.56-3.072 5.12-6.656 8.192-10.24 5.12-6.656 9.728-13.312 13.824-19.456 15.36-23.04 29.184-42.496 68.096-66.048 57.856-30.72 79.36-35.84 122.368-46.592 18.944-4.608 41.984-10.24 74.24-19.968 83.456-23.552 108.032-49.664 121.344-63.488 3.584-3.584 6.144-6.656 9.216-8.192 12.8-8.192 21.504-23.04 53.248-78.848l11.776-20.992 4.608-6.656c38.4-55.296 46.592-67.072 96.256-89.6 14.336-7.168 32.256-7.168 49.664-7.168 17.92 0 34.816-0.512 47.616-7.168 5.632 14.336 23.552 16.896 30.72 16.896-1.024 5.632-4.096 19.456-17.92 34.816-9.216 9.728-20.48 17.408-32.768 25.6-13.312 9.216-27.648 18.432-38.4 31.232-20.992 24.064-33.28 96.768-33.792 100.352 0 0.512-3.072 43.008-35.328 127.488-26.624 70.144-64.512 97.28-75.776 104.448-0.512-14.848-2.048-40.96-11.264-43.008l-3.072-0.512-0.512 3.072c-2.56 25.6-46.592 94.72-60.416 108.544-13.824 13.824-55.808 41.984-94.72 49.664 53.248-79.36 57.344-112.64 57.344-113.664z" fill="#3E4A7E" p-id="5775"></path><path d="M58.368 967.68l25.088-174.592h3.072l70.656 143.36 70.656-143.36h2.56l25.088 174.592h-16.896l-17.408-124.928-61.44 124.928h-4.608l-62.464-125.952-17.408 125.952zM399.872 838.656v23.552c-6.656-9.216-13.824-15.872-22.528-20.48-8.704-4.608-18.432-6.656-28.672-6.656-18.432 0-34.304 6.656-47.104 19.968-13.312 13.312-19.456 29.184-19.456 47.616 0 18.944 6.656 35.328 19.456 48.64s28.672 19.968 47.104 19.968c10.24 0 19.968-2.048 28.672-6.656 8.704-4.096 16.384-10.752 23.552-18.944v22.016h16.384v-129.536c-1.024 0.512-17.408 0.512-17.408 0.512zM394.24 930.304c-4.608 7.68-10.752 13.824-18.944 18.432s-16.896 6.656-26.112 6.656c-9.216 0-17.408-2.56-25.6-7.168-7.68-4.608-14.336-11.264-18.944-19.456s-7.168-16.896-7.168-26.112 2.56-17.92 7.168-26.112 10.752-14.848 18.944-18.944c7.68-4.608 16.384-6.656 25.6-6.656 14.336 0 26.624 5.12 36.352 14.848 9.728 10.24 14.848 22.528 14.848 37.376 0.512 10.24-1.536 19.456-6.144 27.136zM447.488 838.656h16.896v18.944c5.12-7.68 10.24-12.8 15.872-16.896 5.632-3.584 11.264-5.632 17.408-5.632 4.608 0 9.728 1.536 14.848 4.608l-8.704 13.824c-3.584-1.536-6.656-2.048-8.704-2.048-5.632 0-10.752 2.048-15.872 6.656s-9.216 11.776-11.776 20.992c-2.048 7.168-3.072 22.016-3.072 44.544v43.52h-16.896v-128.512zM532.992 785.408c3.584 0 7.168 1.536 9.728 4.096s4.096 6.144 4.096 9.728-1.536 7.168-4.096 9.728-6.144 4.096-9.728 4.096a13.98784 13.98784 0 0 1-13.824-13.824c0-3.584 1.536-7.168 4.096-9.728 2.56-3.072 5.632-4.096 9.728-4.096zM524.8 838.656h16.896v129.536h-16.896zM688.128 838.656v23.552c-6.656-9.216-13.824-15.872-22.528-20.48s-18.432-6.656-28.672-6.656c-18.432 0-34.304 6.656-47.104 19.968-13.312 13.312-19.456 29.184-19.456 47.616 0 18.944 6.656 35.328 19.456 48.64s28.672 19.968 47.104 19.968c10.24 0 19.968-2.048 28.672-6.656 8.704-4.096 16.384-10.752 23.552-18.944v22.016h16.384v-129.536h-17.408v0.512z m-5.632 91.648c-4.608 7.68-10.752 13.824-18.944 18.432-8.192 4.608-16.896 6.656-26.112 6.656-9.216 0-17.408-2.56-25.6-7.168-7.68-4.608-14.336-11.264-18.944-19.456-4.608-8.192-7.168-16.896-7.168-26.112s2.56-17.92 7.168-26.112 10.752-14.848 18.944-18.944c7.68-4.608 16.384-6.656 25.6-6.656 14.336 0 26.624 5.12 36.352 14.848 9.728 10.24 14.848 22.528 14.848 37.376 0.512 10.24-1.536 19.456-6.144 27.136zM877.568 829.952c-9.728-14.848-23.04-25.088-39.936-30.72-11.776-4.096-30.72-6.144-56.832-6.144h-36.352V967.68h55.808c22.016 0 38.912-3.072 50.688-9.728 12.288-6.144 22.016-16.384 29.696-29.696s11.264-28.672 11.264-46.08c0-19.968-4.608-37.376-14.336-52.224z m-14.336 93.696c-7.68 11.264-17.92 18.944-31.232 23.04-9.216 3.072-26.112 4.608-50.176 4.608h-19.968v-141.312h12.288c25.088 0 43.008 1.536 54.272 5.12 14.336 4.608 26.112 12.8 34.304 24.576 8.192 11.776 12.288 26.624 12.288 43.008-0.512 16.384-4.608 29.696-11.776 40.96zM744.96 967.68zM1027.072 898.56c-2.56-5.632-6.656-10.752-11.264-14.848-5.12-4.096-11.776-7.68-20.992-10.752 7.168-4.096 12.8-9.216 16.896-15.36 3.584-6.144 5.632-13.312 5.632-20.992 0-8.192-2.048-15.872-6.656-22.528s-10.24-11.776-17.408-15.36c-7.68-3.072-17.92-5.12-31.744-5.12h-34.304v174.08h48.128c17.408 0 31.232-4.608 41.472-14.336s15.36-21.504 15.36-35.84c-1.024-6.656-2.56-13.312-5.12-18.944z m-83.456-88.576h19.968c12.288 0 20.992 2.048 26.624 6.656 5.632 4.608 8.192 10.752 8.192 18.944 0 6.144-1.536 11.264-5.12 16.384s-7.68 8.192-13.312 10.752c-5.632 2.048-14.848 3.584-26.624 3.584h-10.24v-56.32h0.512z m64 125.44c-3.584 5.12-8.192 9.216-14.336 11.776s-15.36 3.584-28.16 3.584h-21.504v-67.072h9.728c14.848 0 25.088 0.512 31.232 2.048 8.704 2.048 15.872 6.144 20.992 11.776s7.68 12.8 7.68 20.48c-0.512 6.144-2.048 11.776-5.632 17.408z" fill="#2F5280" p-id="5776"></path><path d="M865.792 94.72c4.608-5.12 9.728-5.12 3.584 1.024-11.264 12.288-29.696 35.84-34.816 52.224-2.048 2.56-6.656 8.704-3.584-2.048 10.752-23.04 17.408-32.256 34.816-51.2zM870.4 99.84c4.608-5.12 8.704-4.096 2.56 2.048-11.264 12.288-26.112 35.84-27.648 49.152-2.048 2.56-3.584 6.144-3.584-2.048 4.608-13.312 11.264-30.208 28.672-49.152zM874.496 103.936c4.608-5.12 8.704-3.072 2.56 2.56-10.24 14.336-16.384 33.28-17.408 46.592-2.048 2.56-4.096 7.68-4.096-0.512 1.536-11.776 2.56-25.088 18.944-48.64z" fill="#3E4A7E" p-id="5777"></path><path d="M879.104 107.008c4.608-5.12 6.144-1.536 2.56 3.584-10.24 14.336-10.24 29.184-11.264 42.496-2.048 2.56-2.048 5.632-4.096 1.024 2.048-11.264-1.536-20.992 12.8-47.104z" fill="#3E4A7E" p-id="5778"></path></svg>