<svg t="1721486762325" class="icon" viewBox="0 0 1024 1024" version="1.1" xmlns="http://www.w3.org/2000/svg" p-id="4403" ><path d="M251.008 674.1504c20.5568-43.5456 77.4144-85.9392 94.976-92.5184 17.536-7.1424 43.52-23.2704 102.1952-36.4032 59.2896-13.696 115.5328-32.768 150.016-76.9792 35.072-43.5456 73.1904-122.3424 73.1904-122.3424s39.9104-75.1872 89.5232-87.7056c49.5872-13.1328 76.1856-11.3152 88.9088-17.28 13.2608-5.9904 12.672-7.168 27.2384-10.1632 14.4896-2.9952 18.7136 14.336 18.7136 14.336s1.8432 26.24-4.8384 43.5712c-6.6304 17.28-27.2384 40.5504-47.2064 57.2416-20.5056 16.7424-47.744 45.3888-53.8368 94.9248-5.9904 49.536-19.8912 99.072-19.8912 99.072l-24.832 102.656s-15.104 77.568 30.2592 103.1936c-14.5152 22.0928-87.1168 31.6416-109.4912-13.696-40.5504 15.5136-42.9312 62.6688-68.9408 79.36-26.624 16.7168-68.9664 36.992-111.2832 32.8448 38.0672-54.3488 50.176-90.112 50.176-90.112s-148.224-28.0576-192.3328-19.1488c-44.16 8.9856-48.384 12.544-88.32 42.3936-39.9104 30.464-64.7168 47.1552-111.872 47.1552-47.2064 0-52.0448-6.5536-53.8368-17.3056-1.8432-10.752 29.0048-31.6416 29.0048-31.6416s-26.0096 1.792-32.0512-4.7616c-6.0416-6.5792-9.6768-10.1376-9.6768-10.1376s18.1504-28.672 59.2896-31.0272c42.9056-2.432 70.7584-5.9904 70.7584-5.9904s23.552-5.9648 44.16-49.536zM757.248 313.728s11.52 14.9248 29.056 1.792c18.1504-12.5184 10.24-28.0064 10.24-28.0064s-13.8752-1.792-25.9584 5.376c-11.52 6.5024-13.3376 20.8384-13.3376 20.8384z m86.528-46.592c-15.1552 19.0976-21.1968 28.672-30.8736 51.9168-3.0464 10.752 1.2288 4.7872 3.072 1.8176 4.8128-16.6912 21.12-40.576 30.7968-53.0944 6.0416-5.9904 1.2032-5.9904-2.9952-0.6144z m4.1984 4.7872c-15.104 19.1232-21.1456 36.3776-25.344 49.5104 0 8.3968 1.152 4.8128 2.9952 2.4064 1.1776-13.7216 14.5152-37.6064 24.7808-50.1248 5.4528-5.376 1.8176-6.5536-2.432-1.792z m3.6352 4.224c-14.5152 23.808-15.104 37.5296-16.9216 48.896 0 8.3456 1.8176 2.9696 3.6096 0.5888 0.64-13.1328 6.656-32.8192 15.7184-47.1552 5.4784-5.376 1.8432-7.1424-2.4064-2.3808v0.0512z m4.2496 3.5328c-12.7232 26.24-9.6768 35.8144-11.52 47.1296 1.8432 4.1984 1.8432 1.2032 3.6352-1.1264 0.64-13.184 1.2288-28.6976 10.3168-43.008 3.6096-4.7616 1.792-8.3456-2.432-2.9952z" p-id="4404"></path></svg>