<svg t="1709339461232" class="icon" viewBox="0 0 1024 1024" version="1.1" xmlns="http://www.w3.org/2000/svg" p-id="4397" width="200" height="200"><path d="M415.509333 487.594667a8.469333 8.469333 0 0 1 7.573334 12.202666c-21.482667 43.477333-44.416 73.088-68.8 88.832l-1.237334 0.789334-0.213333 0.149333a13.44 13.44 0 0 1-6.677333 1.962667h-0.32a13.44 13.44 0 0 1-13.461334-13.184v-35.456l-41.28 41.28a13.44 13.44 0 0 1-9.173333 3.925333h-0.341333a13.44 13.44 0 0 1-13.44-13.184v-82.837333a2.986667 2.986667 0 0 1 2.986666-2.986667h19.413334a2.986667 2.986667 0 0 1 2.986666 2.986667v53.738666l42.026667-48.746666a13.44 13.44 0 0 1 18.816-0.213334l0.213333 0.213334a13.44 13.44 0 0 1 3.925334 9.173333v0.32l-0.746667 48.64 0.704-0.533333c12.821333-9.92 25.578667-28.309333 38.250667-55.168a20.757333 20.757333 0 0 1 18.773333-11.904z m93.12 0a32.853333 32.853333 0 1 1 0 65.706666h-29.866666a11.2 11.2 0 0 1 0-22.4h26.88a9.706667 9.706667 0 0 0 0.234666-19.413333h-8.64c-21.12 0-38.4 16.298667-40.021333 36.992l-0.106667 3.136c-0.256-0.085333-0.256 0 0 0.213333 0 6.314667 3.925333 12.181333 10.218667 12.309334h41.301333v21.674666h-41.066666a33.237333 33.237333 0 0 1-33.237334-32.704V522.709333h0.426667a32.853333 32.853333 0 0 1 32.789333-35.114666h41.088z m-305.856 1.493333a48.170667 48.170667 0 1 1 0 96.341333H191.573333a48.170667 48.170667 0 1 1 0-96.341333h11.2zM84.394667 456.96c23.509333 0 42.581333 19.072 42.581333 42.581333v11.2a42.581333 42.581333 0 0 1-42.581333 42.581334H44.821333a13.077333 13.077333 0 0 1-13.077333-12.714667 12.330667 12.330667 0 0 1 11.946667-12.693333h42.197333a17.92 17.92 0 0 0 17.92-17.621334v-10.026666a17.92 17.92 0 0 0-17.92-17.92H29.866667a7.466667 7.466667 0 0 0-7.466667 7.253333v30.848c0 1.066667 0.213333 2.069333 0.64 2.986667h-0.64v57.514666a4.48 4.48 0 0 1-4.48 4.48H4.48a4.48 4.48 0 0 1-4.48-4.48V489.813333c0-18.154667 14.72-32.853333 32.853333-32.853333h51.541334zM931.413333 448a4.48 4.48 0 0 1 4.48 4.48v66.474667h0.618667a7.445333 7.445333 0 0 0-0.64 2.986666v30.826667a7.466667 7.466667 0 0 0 7.466667 7.253333h47.082666c9.898667 0 10.453333-8.021333 10.453334-17.92v-10.005333c-0.170667-9.749333-0.661333-17.621333-10.453334-17.621333h-33.237333a12.330667 12.330667 0 0 1-11.946667-12.693334 13.077333 13.077333 0 0 1 13.056-12.693333h32.128c23.509333 0 33.6 19.050667 33.6 42.56v11.2c0 23.530667-10.090667 42.581333-33.6 42.581333h-44.074666c-18.133333 0-32.853333-14.72-32.853334-32.853333V452.48a4.48 4.48 0 0 1 4.48-4.48z m-301.76 41.088a11.2 11.2 0 1 1 0 22.4H590.08a9.706667 9.706667 0 0 0-9.706667 9.472v53.269333a11.2 11.2 0 0 1-22.4 0V521.173333c0-17.557333 14.08-31.829333 31.573334-32.106666h40.106666z m125.482667-31.36c6.186667 0 11.2 4.992 11.2 11.178667v84.416c0 17.557333-14.08 31.829333-31.573333 32.106666h-73.728a11.2 11.2 0 0 1 0-22.4h73.173333c5.312 0 9.6-4.224 9.728-9.493333V468.906667c0-6.186667 5.013333-11.2 11.2-11.2z m93.738667 30.613333a48.170667 48.170667 0 0 1 0 96.341334h-11.2a48.170667 48.170667 0 0 1 0-96.341334h11.2zM203.904 514.474667h-13.44a22.4 22.4 0 0 0-2.453333 44.672l2.453333 0.149333h13.44a22.4 22.4 0 0 0 0-44.821333z m646.058667-0.746667h-13.44a22.4 22.4 0 0 0-2.432 44.672l2.432 0.149333h13.44a22.4 22.4 0 0 0 0-44.821333z" fill="#DD0000" p-id="4398"></path></svg>
