<svg  class="icon" viewBox="0 0 1024 1024" version="1.1" xmlns="http://www.w3.org/2000/svg" ><path d="M388.522667 648.533333z" fill="#FFFFFF" ></path><path d="M505.173333 707.754667L381.269333 512l100.266667 233.045333" fill="#808285" ></path><path d="M481.536 745.045333L381.269333 512l-259.84 411.136h248.32" fill="#6666FF" ></path><path d="M865.024 923.136h24.405333L368.981333 100.864h-24.405333zM820.309333 923.136h24.405334L324.266667 100.864h-24.405334zM775.594667 923.136h24.405333L279.552 100.864H255.146667zM730.88 923.136h24.405333L234.837333 100.864h-24.405333zM686.165333 923.136h24.405334L190.122667 100.864h-24.405334zM641.450667 923.136h24.405333L145.408 100.864h-24.405333z" fill="#6666FF" ></path><path d="M629.418667 511.744L619.52 488.96" fill="#474747" ></path><path d="M528.554667 278.272l100.693333 233.728 259.413333-411.136H640.682667" fill="#6666FF" ></path><path d="M504.917333 315.648L629.248 512l-100.693333-233.728" fill="#808285" ></path><path d="M635.477333 375.466667z" fill="#FFFFFF" ></path></svg>