<svg  class="icon" viewBox="0 0 800 900" version="1.1" xmlns="http://www.w3.org/2000/svg"  ><path d="M448.765856 618.344506c0.105632 0.272003 0.279925 0.314256 0.528161 0.13204 0.493831-0.448937 0.934845-0.934845 1.320402-1.452442 33.485408-33.617448 67.023633-67.200567 100.614673-100.746714-6.110823-10.328189-11.038565-21.197742-14.788508-32.613942-33.173793 13.697856-66.36079 27.342896-99.558351 40.932478 2.123207 10.837864-0.781678 20.035788-8.714657 27.596413-8.75691 6.897783-18.350954 8.305332-28.784775 4.225288-10.206712-5.091472-15.578109-13.365114-16.108911-24.823567 0.641716-12.166189 6.541274-20.616765 17.693394-25.351729 12.56231-3.763147 23.083277-0.639075 31.557621 9.374858a17962.618734 17962.618734 0 0 0 101.538954-42.120841 133.285393 133.285393 0 0 1-2.904885-28.652735c-102.814464-0.044894-205.631568 0-308.446032 0.132041-4.673169 16.378273-14.620289 28.349042-29.841097 35.914948-19.110978 8.028047-37.244594 6.269271-54.400584-5.28161-17.157575-13.520922-24.243911-31.169422-21.258481-52.948141 3.842107-18.628239 14.361226-31.964305 31.55762-40.008197 20.648983-7.985795 39.574841-5.080909 56.777309 8.714657 9.962437 8.962892 15.94835 20.099167 17.957475 33.406184 103.036291 0.264081 206.114835 0.351227 309.238273 0.26408v-1.056322a151.819091 151.819091 0 0 1 5.01753-21.918682c-0.023767-0.509675-0.287848-0.816009-0.792242-0.924282-34.840141-14.342212-69.653874-28.7346-104.44384-43.177162-10.180304 11.577289-22.195967 13.998908-36.046989 7.262214-9.858125-6.55976-14.128307-15.757684-12.807905-27.596413 2.434822-11.413559 9.256022-18.76292 20.466239-22.050723 12.520057-2.252607 22.335929 1.840641 29.444977 12.279744 3.678641 6.472613 4.69007 13.338706 3.036926 20.598279 0.055457 0.155807 0.142603 0.287848 0.26408 0.396121a13407.770041 13407.770041 0 0 0 104.3118 42.913082c0.248236-0.029049 0.470063-0.116195 0.660201-0.26408 3.826527-8.611665 8.360789-16.798161 13.600146-24.559487a65626.89096 65626.89096 0 0 0-110.913812-111.045853c-0.372354-0.083185-0.723581 0.004753-1.056322 0.26408-21.063061 14.20489-43.861131 17.814871-68.396851 10.827301-24.461777-8.155334-41.405183-24.220408-50.835498-48.194692-8.778036-26.042035-5.521923-50.425645 9.770979-73.150301 17.196923-22.746839 40.127033-33.70618 68.792972-32.878023 27.052407 2.172326 47.959661 14.540009 62.71912 37.103311 12.031508 20.242563 14.846606 41.721023 8.450576 64.435644-3.102946 9.907508-7.856395 18.886246-14.260347 26.936212-0.258799 0.332477-0.348586 0.684497-0.264081 1.056322l108.801169 108.801168c34.597187-34.623595 76.189867-48.046807 124.778039-40.272277 35.410555 7.28334 63.79921 25.372855 85.165964 54.268544 24.583254 35.698403 31.449348 74.605384 20.598279 116.723584-10.930292 36.715113-33.070802 64.398672-66.416247 83.05332-36.561946 18.863271-74.235671 21.414288-113.026457 7.658334-21.942449-8.479625-40.605019-21.596504-55.985067-39.347995-0.176934-0.176934-0.351227-0.176934-0.528161 0a26957.930971 26957.930971 0 0 0-100.350593 100.086512c15.440787 22.613214 18.82894 46.950873 10.1671 73.01826-9.895097 25.037473-27.720531 41.455358-53.476303 49.251014-26.756637 6.491099-50.787963 1.122342-72.093978-16.108911-22.972363-20.954788-31.55498-46.789784-25.74785-77.507628 5.297455-21.74703 17.402905-38.516142 36.31107-50.307337 19.705687-11.402996 40.568047-14.130948 62.58708-8.186496 10.46287 3.250831 19.969768 8.223467 28.520695 14.920549z m242.161824-252.989125c25.737286-0.509675 47.172701 8.733142 64.303604 27.728453 16.951328 20.711834 22.584165 44.214999 16.901152 70.509495-7.156582 26.344671-23.307746 44.785413-48.458773 55.324866-26.355235 9.403907-51.178802 6.411875-74.470703-8.978737-21.768156-16.069299-33.036471-37.7239-33.802305-64.963804 0.926923-29.503074 13.689933-52.213998 38.291674-68.132771 11.51391-6.815918 23.925694-10.645085 37.235351-11.487502z" p-id="1048"></path><path d="M532.743457 423.981253v1.056322c-103.123438 0.087147-206.201982 0-309.238273-0.26408h308.974192c-0.063379-0.340664 0.026408-0.604744 0.264081-0.792242z" p-id="1049"></path><path d="M450.614419 617.024104c-0.385558 0.517598-0.826572 1.003506-1.320402 1.452442-0.248236 0.182216-0.422529 0.139963-0.528161-0.13204 0.546647-0.549287 1.164595-0.990302 1.848563-1.320402z" p-id="1050"></path></svg>
